<?xml version="1.0" encoding="UTF-8" standalone="no"?>
<svg
   xmlns:dc="http://purl.org/dc/elements/1.1/"
   xmlns:cc="http://creativecommons.org/ns#"
   xmlns:rdf="http://www.w3.org/1999/02/22-rdf-syntax-ns#"
   xmlns:svg="http://www.w3.org/2000/svg"
   xmlns="http://www.w3.org/2000/svg"
   xmlns:xlink="http://www.w3.org/1999/xlink"
   xmlns:sodipodi="http://sodipodi.sourceforge.net/DTD/sodipodi-0.dtd"
   xmlns:inkscape="http://www.inkscape.org/namespaces/inkscape"
   width="45.065754mm"
   height="49.758617mm"
   viewBox="0 0 45.065754 49.758617"
   version="1.1"
   id="svg1257"
   inkscape:version="1.0 (4035a4fb49, 2020-05-01)"
   sodipodi:docname="wapuurepa_viuda.svg">
  <defs
     id="defs1251">
    <radialGradient
       inkscape:collect="always"
       xlink:href="#linearGradient1043"
       id="radialGradient2419"
       gradientUnits="userSpaceOnUse"
       gradientTransform="matrix(0.76827773,0.00432631,-0.00416875,0.74029667,149.99273,137.8482)"
       cx="15.400969"
       cy="30.672573"
       fx="15.400969"
       fy="30.672573"
       r="18.550282" />
    <linearGradient
       id="linearGradient1043"
       inkscape:collect="always">
      <stop
         id="stop1035"
         offset="0"
         style="stop-color:#ffeacc;stop-opacity:1" />
      <stop
         style="stop-color:#ffe9c9;stop-opacity:1"
         offset="0.33381867"
         id="stop1037" />
      <stop
         style="stop-color:#ffdaa6;stop-opacity:1;"
         offset="0.59913296"
         id="stop1039" />
      <stop
         id="stop1041"
         offset="1"
         style="stop-color:#ffd291;stop-opacity:1" />
    </linearGradient>
  </defs>
  <sodipodi:namedview
     fit-margin-bottom="0"
     fit-margin-right="0"
     fit-margin-left="0"
     fit-margin-top="0"
     id="base"
     pagecolor="#ffffff"
     bordercolor="#666666"
     borderopacity="1.0"
     inkscape:pageopacity="0.0"
     inkscape:pageshadow="2"
     inkscape:zoom="1.4"
     inkscape:cx="203.58904"
     inkscape:cy="169.27912"
     inkscape:document-units="mm"
     inkscape:current-layer="layer1"
     inkscape:document-rotation="0"
     showgrid="false"
     inkscape:window-width="1920"
     inkscape:window-height="1017"
     inkscape:window-x="-8"
     inkscape:window-y="-8"
     inkscape:window-maximized="1" />
  <metadata
     id="metadata1254">
    <rdf:RDF>
      <cc:Work
         rdf:about="">
        <dc:format>image/svg+xml</dc:format>
        <dc:type
           rdf:resource="http://purl.org/dc/dcmitype/StillImage" />
        <dc:title></dc:title>
      </cc:Work>
    </rdf:RDF>
  </metadata>
  <g
     transform="translate(-0.90164785,-0.82298174)"
     inkscape:label="Layer 1"
     inkscape:groupmode="layer"
     id="layer1">
    <g
       transform="translate(-146.65476,-136.82738)"
       id="g2710">
      <path
         d="m 191.49922,140.37537 c -0.27888,-0.0694 -0.73366,-0.10291 -2.5622,-0.10291 -0.59048,0 -1.26167,0.003 -1.97522,0.007 -0.80554,0.004 -1.6655,0.008 -2.52386,0.008 -1.37992,0 -3.31223,-0.01 -4.68732,-0.0887 -2.20235,-1.60029 -4.73935,-2.45443 -7.54665,-2.53912 -6.0836,-0.18627 -11.47,2.44237 -14.3867,6.961 -0.98573,0.93696 -2.84028,1.97872 -3.34173,2.08994 -0.84066,0.1868 -1.38528,0.92275 -1.29438,1.74956 0.0654,0.59605 0.48939,1.26581 1.43543,1.57724 -0.10914,0.1072 -0.21318,0.21977 -0.30999,0.33635 -0.64115,0.77213 -0.9093,1.64986 -0.75512,2.47185 0.0311,0.16483 0.0743,0.32241 0.12926,0.47223 -1.38689,2.35955 -2.11654,5.03804 -2.11654,7.79183 0,0.69549 0.0469,1.38749 0.13998,2.07279 -0.21828,-0.0378 -0.43763,-0.0571 -0.65698,-0.0571 -1.05492,0 -2.03287,0.45722 -2.68234,1.25429 -0.71731,0.88067 -0.96884,2.05884 -0.70819,3.31742 0.53067,2.5635 4.41622,6.88515 7.51446,7.62861 0.30516,0.0729 0.59664,0.11015 0.86614,0.11015 0.82886,0 1.51346,-0.34921 1.92829,-0.98332 0.13166,-0.20154 0.22686,-0.41542 0.29282,-0.63411 2.11439,1.45743 4.55861,2.36009 7.1479,2.6222 0.56098,1.82943 2.0672,2.13442 3.00708,2.13442 1.41692,0 2.64104,-0.57568 3.51388,-1.63699 0.0788,7.9e-4 0.15794,0.002 0.23731,0.002 0.59906,0 1.34345,-0.041 2.19511,-0.17234 -2.72605,3.05745 -6.66415,4.81693 -9.56397,4.81747 h -8.5e-4 c -1.22225,0 -2.86415,-0.31169 -3.74638,-1.79486 -1.16727,-1.96236 -3.03844,-3.18153 -4.8828,-3.18153 -1.93741,0 -3.28354,1.36711 -3.34924,3.40157 -0.0357,1.10125 0.54167,2.29898 1.66979,3.46321 1.89772,1.95889 5.57759,3.93546 9.52159,3.93546 0.8715,0 1.72557,-0.0976 2.53835,-0.28999 6.98915,-1.65442 13.25133,-7.24724 15.0729,-13.39859 6.67112,-5.09379 6.14233,-19.09727 3.93167,-25.34109 -0.15338,-0.43337 -0.3191,-0.85789 -0.49689,-1.27224 0.26896,0.0311 0.53497,0.0466 0.79668,0.0466 0.61113,0 1.20643,-0.0858 1.76982,-0.2546 3.46749,-1.03961 5.03404,-3.61223 5.00133,-5.02384 -0.0172,-0.74508 -0.45798,-1.33389 -1.12247,-1.50006"
         id="all-outline"
         fill="#000000"
         style="display:inline;fill:#56000e;fill-opacity:1;fill-rule:evenodd;stroke:none;stroke-width:0.755301" />
      <path
         d="m 180.0901,156.75021 c -2.1522,-1.92833 -3.6359,-3.11346 -5.76932,-3.55461 -1.43436,-0.29642 -3.14625,0.0831 -4.65649,0.41783 -1.14448,0.25407 -2.13289,0.47384 -2.90195,0.39236 -1.18122,-0.12436 -2.11761,-0.7456 -2.38443,-1.5834 -0.18797,-0.59015 -0.13649,-1.53596 1.17773,-2.69188 0.54677,-0.48108 1.20106,-0.88309 1.91837,-1.2098 -1.03453,0.002 -2.05673,-0.19725 -3.03925,-0.71853 -1.2689,1.76136 -4.48942,3.03735 -5.48052,2.59755 -0.22015,-0.0978 -0.46605,-0.2656 -0.69317,-0.49957 -0.0215,0.0166 -0.0413,0.0348 -0.0628,0.0517 0.26146,0.24469 0.45211,0.58747 0.53443,0.98815 0.16706,0.81234 -0.11745,1.68149 -0.76128,2.32471 -0.56044,0.56041 -1.26649,0.88175 -1.93661,0.88175 -0.46873,0 -0.86882,-0.16295 -1.16861,-0.44757 -1.32575,2.15774 -2.09535,4.69284 -2.09535,7.41099 0,1.26554 0.1692,2.49088 0.47999,3.65859 1.33058,1.09616 3.5222,5.45078 4.00031,6.54319 0.026,0.0598 0.0555,0.13534 0.0858,0.22271 2.28065,2.10762 5.25206,3.4801 8.53855,3.73364 -0.0413,-0.54326 -0.0228,-1.12216 -0.004,-1.69382 0.0231,-0.70031 0.0472,-1.42474 -0.0442,-2.01972 -0.0753,-0.48965 -0.20111,-1.01495 -0.33438,-1.57107 -0.49635,-2.07359 -1.05948,-4.42403 0.92459,-5.74585 0.38024,-0.25354 0.79373,-0.38218 1.22841,-0.38218 1.78269,0 3.40314,2.14836 4.23924,3.78188 1.13858,-1.84203 3.00975,-3.01001 5.23489,-3.23541 1.12678,-0.11444 2.25115,0.0316 3.17789,0.37467 0.32688,-1.18835 0.49474,-2.42012 0.49474,-3.66663 0,-1.49147 -0.23651,-2.95802 -0.70283,-4.35971"
         id="WordPress-blue2"
         fill="#005683"
         style="display:inline;fill:url(#radialGradient2419);fill-opacity:1;fill-rule:evenodd;stroke:none;stroke-width:0.755301" />
      <path
         style="display:inline;fill:#eaa84c;fill-opacity:1;stroke:none;stroke-width:0.112356px;stroke-linecap:butt;stroke-linejoin:miter;stroke-opacity:1"
         d="m 171.79775,147.55588 c 19.9314,17.03273 -2.7068,33.97686 -14.46075,23.97852 13.62616,13.8886 40.22618,-12.1116 14.46075,-23.97852 z"
         id="path1033"
         sodipodi:nodetypes="ccc" />
      <path
         sodipodi:nodetypes="cssc"
         id="path2203-6"
         d="m 154.67171,162.30447 c -0.40054,-0.4296 7.30568,-9.0737 7.73292,-8.6359 0.10915,0.11185 -0.59177,1.10053 -1.61259,2.37237 -2.13764,2.66329 -5.67805,6.56824 -6.12033,6.26353 z"
         style="display:inline;opacity:0.8;fill:#56000e;fill-opacity:1;fill-rule:evenodd;stroke:none;stroke-width:0.216205;stroke-linecap:butt;stroke-linejoin:miter;stroke-miterlimit:4;stroke-dasharray:none;stroke-opacity:1" />
      <path
         style="display:inline;opacity:0.8;fill:#56000e;fill-opacity:1;fill-rule:evenodd;stroke:none;stroke-width:0.216205;stroke-linecap:butt;stroke-linejoin:miter;stroke-miterlimit:4;stroke-dasharray:none;stroke-opacity:1"
         d="m 164.4384,171.13118 c -0.40054,-0.4296 7.30568,-9.07371 7.73292,-8.6359 0.33772,0.34606 -7.07944,9.08611 -7.73292,8.6359 z"
         id="path2203-4-6"
         sodipodi:nodetypes="csc" />
      <path
         style="display:inline;opacity:0.8;fill:#56000e;fill-opacity:1;fill-rule:evenodd;stroke:none;stroke-width:0.291468;stroke-linecap:butt;stroke-linejoin:miter;stroke-miterlimit:4;stroke-dasharray:none;stroke-opacity:1"
         d="m 155.86282,165.38801 c -0.55319,-0.56532 10.08992,-11.94015 10.67999,-11.36404 0.46642,0.45539 -9.77746,11.95648 -10.67999,11.36404 z"
         id="path2203-5-0"
         sodipodi:nodetypes="csc" />
      <path
         sodipodi:nodetypes="csc"
         id="path2203-5-1-2"
         d="m 161.11019,170.08262 c -0.55319,-0.56531 10.08991,-11.94014 10.67998,-11.36404 0.46643,0.45539 -9.77745,11.95648 -10.67998,11.36404 z"
         style="display:inline;opacity:0.8;fill:#56000e;fill-opacity:1;fill-rule:evenodd;stroke:none;stroke-width:0.291468;stroke-linecap:butt;stroke-linejoin:miter;stroke-miterlimit:4;stroke-dasharray:none;stroke-opacity:1" />
      <path
         style="display:inline;opacity:0.8;fill:#56000e;fill-opacity:1;fill-rule:evenodd;stroke:none;stroke-width:0.291468;stroke-linecap:butt;stroke-linejoin:miter;stroke-miterlimit:4;stroke-dasharray:none;stroke-opacity:1"
         d="m 157.10943,168.90897 c -0.55319,-0.56531 14.38058,-15.72192 14.97065,-15.14581 0.46643,0.45539 -14.06812,15.73825 -14.97065,15.14581 z"
         id="path2203-5-1-5-7"
         sodipodi:nodetypes="csc" />
      <path
         d="m 171.52528,169.73526 c -0.004,-0.0169 -0.008,-0.0333 -0.0123,-0.0504 -0.0383,-0.15277 -0.0807,-0.31009 -0.12844,-0.47358 -0.39821,-1.43331 -2.29191,-4.28385 -3.73833,-4.28385 -0.2223,0 -0.42958,0.0662 -0.63365,0.20207 -1.26648,0.84423 -1.01094,2.37135 -0.47597,4.60467 0.1322,0.55237 0.26896,1.12377 0.35101,1.65711 0.107,0.69387 0.081,1.46922 0.056,2.21857 -0.0386,1.1637 -0.0786,2.36733 0.42341,2.88593 0.21962,0.227 0.56178,0.33742 1.04633,0.33742 0.14025,0 0.27218,-0.0105 0.39982,-0.0265 0.0389,-0.005 0.0756,-0.0121 0.11316,-0.0182 0.089,-0.0145 0.17511,-0.0322 0.25797,-0.0536 0.0367,-0.01 0.0735,-0.0196 0.10913,-0.0305 0.0863,-0.0263 0.16894,-0.0565 0.24832,-0.09 0.0233,-0.01 0.048,-0.0182 0.0708,-0.0284 0.1019,-0.0464 0.19897,-0.0976 0.29014,-0.15383 0.009,-0.006 0.0169,-0.0121 0.0257,-0.0177 0.0807,-0.0515 0.15687,-0.10614 0.22901,-0.16376 0.0212,-0.0169 0.0413,-0.0343 0.0619,-0.0517 0.0593,-0.0501 0.11584,-0.10211 0.16947,-0.15545 0.018,-0.018 0.0365,-0.0359 0.0539,-0.0541 0.0601,-0.0633 0.11691,-0.1281 0.17001,-0.19403 0.006,-0.008 0.0131,-0.015 0.019,-0.0228 0.0593,-0.0751 0.1137,-0.15143 0.16438,-0.22808 0.0121,-0.018 0.0225,-0.0362 0.0338,-0.0539 0.0359,-0.0568 0.0703,-0.11364 0.1019,-0.16992 0.0153,-0.027 0.0298,-0.0536 0.044,-0.0804 0.0247,-0.0466 0.048,-0.0927 0.07,-0.13856 0.0137,-0.0287 0.0282,-0.0576 0.041,-0.086 0.0182,-0.0399 0.0341,-0.0783 0.0501,-0.11685 0.0338,-0.0807 0.0641,-0.15866 0.0893,-0.23049 0.002,-0.004 0.003,-0.008 0.005,-0.0121 0.0177,-0.0515 0.0338,-0.10023 0.0477,-0.14553 0.0609,-0.19806 0.0885,-0.33689 0.0925,-0.36021 0.004,-0.0231 0.01,-0.0472 0.0169,-0.0691 0.40197,-1.2717 0.5634,-2.34132 0.23598,-3.91588 -0.029,-0.13936 -0.0622,-0.28302 -0.0987,-0.43015"
         id="sole-left"
         fill="#ffd200"
         style="display:inline;fill-rule:evenodd;stroke:none;stroke-width:0.755301" />
      <path
         d="m 156.03727,174.63206 v 0 c -0.20648,0 -0.43468,-0.0295 -0.67843,-0.0879 -2.72042,-0.65287 -6.44373,-4.73546 -6.91461,-7.00979 -0.2105,-1.01709 -0.0172,-1.95727 0.54436,-2.64659 0.49635,-0.60892 1.24664,-0.95813 2.05861,-0.95813 0.73099,0 1.47377,0.27417 2.14818,0.79277 1.32441,1.01817 3.571,5.48186 4.05582,6.58928 0.20165,0.46071 0.602,1.84363 0.041,2.70126 -0.18476,0.28248 -0.55266,0.6191 -1.25496,0.6191 z m -4.99007,-9.89839 c -0.57733,0 -1.08709,0.23504 -1.43435,0.66145 -0.40626,0.49876 -0.54141,1.20041 -0.38078,1.9763 0.40974,1.97951 3.93006,5.81875 6.31448,6.39068 0.18207,0.0437 0.34725,0.0659 0.49072,0.0659 0.37166,0 0.51003,-0.14553 0.58189,-0.25515 0.29068,-0.44463 0.12576,-1.41161 -0.10485,-1.93851 -0.66019,-1.50809 -2.75232,-5.46176 -3.80965,-6.2749 -0.53229,-0.40952 -1.10533,-0.6258 -1.65746,-0.6258 z"
         id="sole-right-outline"
         fill="#000000"
         style="display:inline;fill:#56000e;fill-opacity:1;fill-rule:evenodd;stroke:none;stroke-width:0.755301" />
      <path
         d="m 149.61285,165.39512 c -0.40626,0.49876 -0.54141,1.20041 -0.38078,1.9763 0.40974,1.97951 3.93006,5.81875 6.31448,6.39068 0.18207,0.0437 0.34725,0.0659 0.49072,0.0659 0.37166,0 0.51003,-0.14553 0.58189,-0.25515 0.29068,-0.44463 0.12576,-1.41161 -0.10485,-1.93851 -0.66019,-1.50809 -2.75232,-5.46176 -3.80965,-6.2749 -0.53229,-0.40952 -1.10533,-0.6258 -1.65746,-0.6258 -0.57733,0 -1.08709,0.23504 -1.43435,0.66145"
         id="sole-right"
         fill="#ffd200"
         style="display:inline;fill-rule:evenodd;stroke:none;stroke-width:0.755301" />
      <path
         d="m 155.13305,152.54916 c 0.12309,0.65555 0.5583,0.79331 0.90181,0.79331 0.45156,0 0.96294,-0.24148 1.36785,-0.64644 0.45184,-0.45159 0.65456,-1.04738 0.5422,-1.59439 -0.0697,-0.33956 -0.25528,-0.5998 -0.49635,-0.69602 -0.0394,-0.0158 -0.0936,-0.0241 -0.15687,-0.0241 -0.43307,0 -1.22412,0.38969 -1.74702,1.01951 -0.19093,0.23022 -0.49877,0.6853 -0.41162,1.14815"
         id="hand-right"
         fill="#ffd200"
         style="display:inline;fill-rule:evenodd;stroke:none;stroke-width:0.755301" />
      <path
         d="m 184.42453,141.89606 c -1.60141,0 -3.89493,-0.0134 -5.31748,-0.12864 -0.12389,-0.01 -0.2333,-0.01 -0.30409,-0.004 0.10485,0.17125 0.36201,0.47115 0.77282,0.8134 l 0.10351,0.0876 c 2.79442,2.38127 4.89782,2.88137 6.17021,2.88164 h 5.3e-4 c 0.45452,0 0.89429,-0.063 1.30805,-0.18707 1.96315,-0.58855 3.16904,-1.80451 3.6426,-2.74603 0.17671,-0.35189 0.21264,-0.58292 0.21264,-0.69146 -0.26707,-0.0271 -0.96159,-0.0407 -2.07014,-0.0407 -0.58994,0 -1.26086,0.003 -1.97441,0.007 -0.81171,0.004 -1.67891,0.008 -2.54424,0.008"
         id="ear-left"
         fill="#ff8800"
         style="display:inline;fill:#ec7023;fill-opacity:1;fill-rule:evenodd;stroke:none;stroke-width:0.755301" />
      <path
         d="m 154.82468,148.28058 c -0.0375,0.008 -0.0491,0.0212 -0.0493,0.0212 0.004,-0.001 0.0276,0.0437 0.11664,0.10372 0.16304,0.11015 0.82752,0.4197 2.62683,-0.0608 -0.0552,-0.41702 -0.0343,-0.93723 0.14668,-1.55526 -1.05142,0.73087 -2.2372,1.3572 -2.84081,1.49121"
         id="ear-right"
         fill="#ff8800"
         style="display:inline;fill:#ec7023;fill-opacity:1;fill-rule:evenodd;stroke:none;stroke-width:0.755301" />
      <path
         d="m 179.86297,173.91835 c -0.80419,0.48027 -1.59203,0.86245 -2.34795,1.16155 -2.48096,4.53686 -7.87031,8.02286 -12.54636,8.11157 -2.41527,0.0397 -4.28644,-0.87049 -5.30301,-2.57906 -1.14045,-1.91706 -2.88238,-2.62488 -4.0156,-2.33328 -0.75941,0.19564 -1.19462,0.82868 -1.22546,1.78307 -0.0271,0.83726 0.71249,1.95432 1.97817,2.9883 2.27555,1.85945 6.1804,3.3544 9.77259,2.50374 6.20989,-1.46977 11.78749,-6.26713 13.68762,-11.63589"
         id="tail"
         fill="#ff8800"
         style="display:inline;fill:#ec7023;fill-opacity:1;fill-rule:evenodd;stroke:none;stroke-width:0.755301" />
      <path
         d="m 184.0341,148.91603 c -0.4497,-1.2701 -1.00209,-2.42602 -1.6419,-3.4651 -0.9616,-0.46821 -2.04307,-1.15913 -3.23501,-2.17462 l -0.0963,-0.082 c -1.31797,-1.09723 -1.13616,-1.59868 -1.07663,-1.76351 0.0477,-0.13212 0.13246,-0.23531 0.24938,-0.31249 -1.78671,-1.1436 -3.83781,-1.78334 -6.07823,-1.85088 -5.56768,-0.16857 -10.44726,2.19929 -13.05559,6.33387 -0.71302,1.13073 -0.95945,2.15828 -0.71195,2.97222 0.1802,0.59284 0.59369,0.9584 0.89295,1.09134 0.50681,0.22566 3.73136,-0.89301 4.66829,-2.59567 0.0534,-0.0962 0.14346,-0.16697 0.24991,-0.19485 0.107,-0.0279 0.21989,-0.0112 0.31348,0.0464 2.19993,1.35291 4.67284,0.73435 6.81753,0.0485 0.21238,-0.0673 0.43789,0.049 0.50574,0.26051 0.0362,0.11363 0.018,0.23076 -0.0381,0.32617 1.41745,-0.0372 2.83974,0.17876 4.09309,0.67323 0.20648,0.0815 0.30784,0.31492 0.22632,0.52155 -0.0815,0.20664 -0.31535,0.30821 -0.52182,0.2262 -3.08377,-1.21622 -7.25999,-0.62044 -9.50819,1.3572 -0.77094,0.67806 -1.10587,1.33308 -0.94283,1.84417 0.1676,0.5253 0.85139,0.93857 1.70224,1.02782 0.63955,0.0665 1.61267,-0.14875 2.64372,-0.37763 1.58882,-0.35243 3.39027,-0.75203 4.99356,-0.42024 2.59841,0.53736 4.32237,2.0953 6.9315,4.45351 l 0.31803,0.28731 c 0.16465,0.14874 0.17752,0.40309 0.0287,0.56764 -0.0794,0.0882 -0.18879,0.13267 -0.29846,0.13267 -0.0912,0 -0.18127,-0.0333 -0.25582,-0.0951 0.25743,1.09455 0.38963,2.21831 0.38963,3.35574 0,1.36364 -0.18932,2.71092 -0.55937,4.00835 0.4143,0.23424 0.76236,0.51565 1.01174,0.83833 0.13596,0.17555 0.10351,0.42828 -0.0721,0.56363 -0.17537,0.13588 -0.42877,0.10372 -0.56419,-0.0721 -0.69479,-0.89864 -2.46434,-1.42233 -4.21243,-1.24625 -1.27292,0.12891 -3.59245,0.73837 -4.90694,3.34851 0.0501,0.13401 0.0917,0.2581 0.12201,0.36718 0.68916,2.36062 0.52612,3.79286 0.005,5.45291 -0.0512,0.28007 -0.15043,0.61401 -0.29899,0.96189 1.77008,0.005 4.8946,-0.38352 8.21944,-2.67152 6.29517,-4.3321 5.74143,-17.9585 3.69247,-23.74482"
         id="left-body"
         fill="#ffd200"
         style="display:inline;fill:#fcd209;fill-opacity:1;fill-rule:evenodd;stroke:none;stroke-width:0.755301" />
      <path
         d="m 163.58659,144.94011 c -0.63954,0.47947 -0.44674,1.0723 0.26815,1.16155 0.71517,0.0892 0.77095,0.13669 1.43034,-0.35752 0.71489,-0.53602 0.80446,-1.42956 0,-1.34005 -0.80447,0.0895 -1.34077,0.26801 -1.69849,0.53602"
         id="nose"
         fill="#000000"
         style="display:inline;fill:#56000e;fill-opacity:1;fill-rule:evenodd;stroke:none;stroke-width:0.755301" />
      <path
         d="m 161.70952,145.29763 c 0,0.4441 -0.36013,0.80403 -0.80446,0.80403 -0.44407,0 -0.80446,-0.35993 -0.80446,-0.80403 0,-0.44409 0.36039,-0.80403 0.80446,-0.80403 0.44433,0 0.80446,0.35994 0.80446,0.80403"
         id="eye-left"
         fill="#000000"
         style="display:inline;fill:#56000e;fill-opacity:1;fill-rule:evenodd;stroke:none;stroke-width:0.755301" />
      <path
         d="m 171.0056,143.06431 c 0,0.4441 -0.36014,0.80403 -0.80447,0.80403 -0.44433,0 -0.80446,-0.35993 -0.80446,-0.80403 0,-0.44409 0.36013,-0.80402 0.80446,-0.80402 0.44433,0 0.80447,0.35993 0.80447,0.80402"
         id="eye-right"
         fill="#000000"
         style="display:inline;fill:#56000e;fill-opacity:1;fill-rule:evenodd;stroke:none;stroke-width:0.755301" />
      <path
         style="display:inline;fill:#f6891f;fill-opacity:1;stroke:none;stroke-width:0.264583px;stroke-linecap:butt;stroke-linejoin:miter;stroke-opacity:1"
         d="m 180.10471,141.80177 c 4.62355,4.1582 9.56569,2.33425 6.73004,0.0469 z"
         id="path1093"
         sodipodi:nodetypes="ccc" />
      <path
         id="path1125"
         d="m 158.31861,148.21982 c 1.52462,2.248 3.24941,0.30978 5.69903,-1.2129 -1.27471,2.13148 -5.42233,4.38582 -5.69903,1.2129 z"
         style="display:inline;fill:#f9b017;fill-opacity:1;stroke:none;stroke-width:0.264583px;stroke-linecap:butt;stroke-linejoin:miter;stroke-opacity:1"
         sodipodi:nodetypes="ccc" />
      <path
         id="path1160"
         style="display:inline;fill:#f9b017;fill-opacity:1;stroke:none;stroke-width:0.264583px;stroke-linecap:butt;stroke-linejoin:miter;stroke-opacity:1"
         d="m 171.9429,139.24268 c 0,0 7.63224,5.71121 -1.53366,7.55384 -3.77473,0.75884 -6.39186,0.21033 -6.39186,0.21033 l 4.54909,0.971 c 7.71202,-0.47721 9.97495,1.44213 12.993,7.60677 -4.31763,-6.76725 -12.8796,-3.86729 -16.50535,-3.75752 0.79955,2.95984 6.48822,0.1365 8.80394,0.55933 3.21786,0.58756 5.73497,2.04806 7.34173,5.36085 0.61849,2.57945 0.18722,5.50044 -0.16182,7.37113 -3.52538,-0.68865 -7.5343,-0.055 -8.74387,3.43198 0.58198,1.31449 0.65575,4.13422 -0.17198,6.78198 15.21085,1.71807 15.72856,-22.63696 10.26978,-29.8815 -0.68144,-0.45787 -5.58586,-3.12722 -4.15822,-4.33258 -2.07735,-1.1318 -3.63543,-2.04939 -6.29086,-1.8756 z"
         sodipodi:nodetypes="csccccscccccccc" />
      <path
         sodipodi:nodetypes="cccccc"
         id="path1182"
         d="m 155.53974,178.48541 c 0,0 -1.03019,1.10798 0.0668,2.20498 8.76451,8.32147 19.73421,-0.22967 23.19792,-6.06777 0.53453,-0.73499 -1.28944,0.45728 -1.28944,0.45728 -5.67975,7.87267 -14.64701,10.8957 -18.22945,5.19811 -1.24377,-1.96625 -2.73738,-2.73962 -3.74583,-1.7926 z"
         style="display:inline;fill:#f6891f;fill-opacity:1;stroke:none;stroke-width:0.264583px;stroke-linecap:butt;stroke-linejoin:miter;stroke-opacity:1" />
      <path
         style="display:inline;opacity:1;fill:#f9b017;fill-opacity:1;stroke:none;stroke-width:0.264583px;stroke-linecap:butt;stroke-linejoin:miter;stroke-opacity:1"
         d="m 155.54429,151.21408 c 0,0 -0.0945,0.73233 0.63783,0.82683 0.73234,0.0945 2.07888,-0.73233 2.07888,-0.73233 0,0 -0.82812,2.24013 -2.03163,2.26785 -1.20351,0.0277 -1.55916,-1.06305 -0.68508,-2.36235 z"
         id="path1184" />
      <path
         d="m 156.03486,154.1465 v 0 c -0.87633,0 -1.52499,-0.55532 -1.69286,-1.4494 -0.10914,-0.58211 0.0982,-1.2248 0.5835,-1.8096 0.63043,-0.759 1.62555,-1.31003 2.36619,-1.31003 0.16679,0 0.32017,0.0273 0.45559,0.0815 0.4926,0.19699 0.86104,0.67592 0.98546,1.28109 0.16707,0.81233 -0.11745,1.68149 -0.76128,2.32471 -0.56044,0.56041 -1.26649,0.88176 -1.9366,0.88176 z m 1.25683,-3.765 c -0.43307,0 -1.22412,0.38969 -1.74702,1.01951 -0.19093,0.23022 -0.49877,0.6853 -0.41162,1.14815 0.12309,0.65555 0.5583,0.79331 0.90181,0.79331 0.45156,0 0.96294,-0.24148 1.36785,-0.64644 0.45184,-0.45159 0.65456,-1.04738 0.5422,-1.59439 -0.0697,-0.33956 -0.25528,-0.5998 -0.49635,-0.69602 -0.0394,-0.0158 -0.0936,-0.0241 -0.15687,-0.0241 z"
         id="hand-right-outline"
         fill="#000000"
         style="display:inline;fill:#56000e;fill-opacity:1;fill-rule:evenodd;stroke:none;stroke-width:0.755301" />
      <path
         id="path1210"
         d="m 157.66545,146.78936 -2.11069,1.15043 c 0,0 0.70588,0.10408 1.04288,-0.0984 0.337,-0.20251 1.06781,-1.05199 1.06781,-1.05199 z"
         style="display:inline;fill:#f6891f;fill-opacity:1;stroke:none;stroke-width:0.264583px;stroke-linecap:butt;stroke-linejoin:miter;stroke-opacity:1" />
      <path
         d="m 191.30401,141.15555 c -0.19441,-0.0488 -0.65751,-0.0788 -2.36082,-0.0788 -0.59101,0 -1.26328,0.003 -1.97844,0.007 -0.81063,0.004 -1.67596,0.008 -2.54022,0.008 -1.48074,0 -3.55652,-0.0115 -4.95977,-0.10452 -2.07979,-1.56438 -4.54868,-2.4413 -7.28519,-2.52412 -5.83475,-0.17876 -10.96211,2.31426 -13.73053,6.66432 -1.06484,1.05033 -3.11138,2.2151 -3.79866,2.36813 -0.3183,0.0705 -0.5583,0.28409 -0.64303,0.57086 -0.0853,0.29026 0.006,0.60785 0.24482,0.84932 0.21855,0.22031 0.67333,0.49582 1.58318,0.49582 0.48938,0 1.11257,-0.0815 1.89933,-0.29213 0.29551,0.66949 0.80473,1.09562 1.21956,1.28001 0.9911,0.43981 4.21162,-0.83619 5.48052,-2.59754 0.98252,0.52128 2.00472,0.72014 3.03925,0.71853 -0.71731,0.3267 -1.3716,0.72872 -1.91837,1.20979 -1.31422,1.15593 -1.3657,2.10173 -1.17773,2.69189 0.26682,0.83779 1.20321,1.45904 2.38443,1.5834 0.76906,0.0815 1.75747,-0.13829 2.90195,-0.39237 1.51024,-0.33474 3.22213,-0.71424 4.65649,-0.41783 2.13342,0.44115 3.61712,1.62629 5.76932,3.55461 0.46632,1.40169 0.70283,2.86824 0.70283,4.35971 0,1.24651 -0.16786,2.47828 -0.49475,3.66663 -0.92673,-0.34305 -2.0511,-0.48911 -3.17788,-0.37467 -2.22514,0.22539 -4.09632,1.39338 -5.2349,3.23541 -0.83609,-1.63352 -2.45655,-3.78188 -4.23923,-3.78188 -0.43468,0 -0.84817,0.12864 -1.22842,0.38218 -1.98406,1.32182 -1.42094,3.67226 -0.92459,5.74585 0.13327,0.55612 0.25904,1.08142 0.33439,1.57107 0.0914,0.59498 0.0673,1.31941 0.0442,2.01972 -0.0461,1.38722 -0.0939,2.82133 0.72428,3.6669 0.42636,0.44061 1.03775,0.66413 1.81728,0.66413 1.61213,0 2.65445,-0.83941 3.27924,-1.77771 0.14239,0.005 0.29309,0.009 0.45774,0.009 1.03749,0 2.5,-0.12998 4.18346,-0.64322 -2.51554,3.90704 -7.24765,6.81575 -11.38043,6.89427 -1.48208,0.0322 -3.49082,-0.32831 -4.59642,-2.18642 -1.34264,-2.2569 -3.48573,-3.06763 -4.90747,-2.70073 -1.11981,0.28811 -1.78618,1.21274 -1.82881,2.53564 -0.0357,1.10206 0.79293,2.42763 2.27287,3.63662 1.94572,1.58956 5.01393,2.92827 8.14221,2.92827 0.77657,0 1.55717,-0.0825 2.32516,-0.26426 6.82262,-1.61529 12.91695,-7.11082 14.55751,-13.10137 3.68979,-2.63479 4.86431,-7.87196 5.19682,-11.82483 0.42368,-5.03911 -0.35906,-10.04124 -1.3228,-12.76288 -0.34056,-0.96188 -0.74065,-1.8581 -1.18766,-2.69563 0.89617,0.30044 1.65103,0.39799 2.24472,0.39799 h 5.3e-4 c 0.53282,0 1.05036,-0.0745 1.5392,-0.22084 3.13793,-0.94098 4.45081,-3.25979 4.42829,-4.23508 -0.009,-0.38432 -0.20112,-0.66064 -0.51352,-0.73863 z m -33.7852,7.18908 c -1.79931,0.48054 -2.46379,0.17099 -2.62683,0.0608 -0.089,-0.06 -0.11289,-0.10505 -0.11664,-0.10371 2.6e-4,0 0.0118,-0.0129 0.0493,-0.0212 0.60361,-0.13401 1.78939,-0.76034 2.84082,-1.49121 -0.18101,0.61804 -0.20192,1.13824 -0.14669,1.55526 v 0 0 z m 13.86917,25.73667 c -0.007,0.022 -0.0129,0.0461 -0.0169,0.0692 -0.0196,0.10935 -0.50574,2.68277 -2.95773,2.68277 -0.48456,0 -0.82672,-0.11042 -1.04634,-0.33742 -0.50198,-0.5186 -0.46203,-1.72223 -0.42341,-2.88592 0.0249,-0.74936 0.0509,-1.52471 -0.056,-2.21859 -0.0821,-0.53334 -0.21882,-1.10473 -0.35102,-1.6571 -0.53496,-2.23332 -0.79051,-3.76044 0.47598,-4.60467 0.20406,-0.13588 0.41134,-0.20208 0.63364,-0.20208 1.44642,0 3.34012,2.85055 3.73833,4.28386 0.62238,2.13282 0.48161,3.35682 0.003,4.87 v 0 0 z m -5.21263,11.47294 c -3.59219,0.85066 -7.49704,-0.64429 -9.77259,-2.50374 -1.26568,-1.03398 -2.00525,-2.15104 -1.97817,-2.9883 0.0308,-0.95439 0.46605,-1.58743 1.22546,-1.78307 1.13322,-0.2916 2.87515,0.41622 4.0156,2.33328 1.01657,1.70857 2.88774,2.61873 5.30301,2.57906 4.67605,-0.0887 10.0654,-3.57471 12.54636,-8.11157 0.75592,-0.2991 1.54376,-0.68128 2.34795,-1.16155 -1.90013,5.36876 -7.47773,10.16612 -13.68762,11.63589 z m 17.85875,-36.63821 c 2.04896,5.78632 2.6027,19.41272 -3.69247,23.74482 -3.32484,2.28799 -6.44936,2.67661 -8.21944,2.67151 0.14855,-0.34787 0.24777,-0.68181 0.29899,-0.96188 0.52102,-1.66005 0.68406,-3.09229 -0.005,-5.45292 -0.0303,-0.10908 -0.0719,-0.23317 -0.122,-0.36717 1.31448,-2.61014 3.63401,-3.2196 4.90693,-3.34851 1.7481,-0.17608 3.51764,0.34761 4.21243,1.24625 0.13541,0.17581 0.38882,0.20797 0.56419,0.0721 0.17565,-0.13535 0.20809,-0.38808 0.0721,-0.56363 -0.24938,-0.32268 -0.59744,-0.60409 -1.01174,-0.83833 0.37005,-1.29743 0.55937,-2.64472 0.55937,-4.00835 0,-1.13743 -0.1322,-2.26119 -0.38963,-3.35574 0.0745,0.0619 0.16465,0.0951 0.25582,0.0951 0.10967,0 0.21908,-0.0445 0.29845,-0.13267 0.14883,-0.16456 0.13596,-0.41889 -0.0287,-0.56764 l -0.31803,-0.2873 c -2.60914,-2.35822 -4.33309,-3.91616 -6.9315,-4.45351 -1.60329,-0.3318 -3.40475,0.0678 -4.99356,0.42023 -1.03104,0.22888 -2.00417,0.44409 -2.64372,0.37763 -0.85085,-0.0892 -1.53464,-0.50252 -1.70224,-1.02782 -0.16303,-0.51109 0.17189,-1.16611 0.94283,-1.84417 2.2482,-1.97764 6.42442,-2.57343 9.50818,-1.3572 0.20648,0.082 0.44031,-0.0196 0.52183,-0.2262 0.0815,-0.20663 -0.0198,-0.44007 -0.22632,-0.52154 -1.25335,-0.49448 -2.67563,-0.7105 -4.09309,-0.67325 0.056,-0.0954 0.0743,-0.21253 0.0381,-0.32616 -0.0678,-0.21146 -0.29336,-0.32778 -0.50574,-0.26051 -2.14469,0.68584 -4.6176,1.3044 -6.81753,-0.0485 -0.0936,-0.0576 -0.20648,-0.0742 -0.31347,-0.0464 -0.10646,0.0279 -0.19656,0.0986 -0.24992,0.19485 -0.93693,1.70266 -4.16148,2.82133 -4.66829,2.59567 -0.29926,-0.13294 -0.71275,-0.4985 -0.89295,-1.09134 -0.24751,-0.81394 -8.5e-4,-1.84149 0.71195,-2.97222 2.60833,-4.13458 7.48792,-6.50244 13.05559,-6.33386 2.24042,0.0675 4.29153,0.70727 6.07823,1.85087 -0.11691,0.0772 -0.20165,0.18037 -0.24938,0.3125 -0.0595,0.16482 -0.24134,0.66627 1.07664,1.7635 l 0.0963,0.082 c 1.19195,1.01548 2.27341,1.70641 3.23501,2.17463 0.63981,1.03907 1.19221,2.19499 1.6419,3.46509 v 0 0 z m 6.76658,-6.30304 c -0.47356,0.94151 -1.67944,2.15747 -3.64259,2.74602 -0.41377,0.12409 -0.85354,0.18707 -1.30806,0.18707 h -5.3e-4 c -1.27239,-2.7e-4 -3.37578,-0.50038 -6.17021,-2.88164 l -0.10351,-0.0876 c -0.41081,-0.34225 -0.66796,-0.64215 -0.77282,-0.81341 0.0708,-0.006 0.18021,-0.006 0.30409,0.004 1.42255,0.11525 3.71607,0.12865 5.31748,0.12865 0.86534,0 1.73254,-0.004 2.54425,-0.008 0.71355,-0.004 1.38447,-0.007 1.97441,-0.007 1.10855,0 1.80307,0.0137 2.07014,0.0407 0,0.10854 -0.0359,0.33957 -0.21264,0.69146 v 0 0 z"
         id="left-body-outline"
         fill="#000000"
         style="display:inline;fill:#56000e;fill-opacity:1;fill-rule:evenodd;stroke:none;stroke-width:0.755301" />
      <path
         sodipodi:nodetypes="ccscc"
         id="path1178"
         d="m 166.57979,170.06046 c 1.27524,5.54804 2.95184,4.77079 4.94549,-0.3252 2.3e-4,2e-5 0.50081,1.94583 0.2302,3.29366 -0.33911,1.68898 -1.19651,3.90184 -3.4147,3.93337 -2.56168,0 -0.90568,-4.19856 -1.76099,-6.90183 z"
         style="opacity:1;fill:#f9b017;fill-opacity:1;stroke:none;stroke-width:0.264583px;stroke-linecap:butt;stroke-linejoin:miter;stroke-opacity:1" />
      <path
         sodipodi:nodetypes="cscsc"
         id="path1180"
         d="m 150.47093,169.6643 c 0,0 3.3309,2.92932 3.99236,1.79539 0.66146,-1.13393 -0.16823,-3.99642 -0.16823,-3.99642 0,0 3.91553,5.91825 1.92833,6.34483 -2.74796,0.58988 -5.75246,-4.1438 -5.75246,-4.1438 z"
         style="opacity:1;fill:#f9b017;fill-opacity:1;stroke:none;stroke-width:0.264583px;stroke-linecap:butt;stroke-linejoin:miter;stroke-opacity:1" />
    </g>
  </g>
</svg>
