<?xml version="1.0" encoding="utf-8"?>
<!-- Generator: Adobe Illustrator 19.0.0, SVG Export Plug-In . SVG Version: 6.00 Build 0)  -->
<svg version="1.1" id="Capa_1" xmlns="http://www.w3.org/2000/svg" xmlns:xlink="http://www.w3.org/1999/xlink" x="0px" y="0px"
	 viewBox="-147 380.9 300 80" style="enable-background:new -147 380.9 300 80;" xml:space="preserve">
<style type="text/css">
	.st0{fill:#596325;}
	.st1{fill:#6C4322;}
	.st2{fill:#5A6425;}
	.st3{fill:#EFDFDF;}
	.st4{fill:#93633A;}
	.st5{fill:#93623A;}
</style>
<g id="Auyantepui">
	<g id="XMLID_2_">
		<path id="XMLID_383_" class="st0" d="M-139.5,426.2c0.9,0.1,1.9,0.2,2.8,0.4c0.4,0.1,0.6,0,0.7-0.5c0.8-3.6,1.7-7.1,3.3-10.4
			c0.6-1.2,1.3-2.4,2.2-3.4c1.1-1.1,2.5-1.5,3.9-1.9c2.9-0.9,5.9-1.4,8.9-1.9c0.2,0,0.3-0.1,0.5-0.1c1.6,0.8,3.2,1.8,4.7,2.9
			c1.2,0.9,2.3,1.9,3.4,2.8c2,1.7,4,3.4,6.1,5c0.5,0.3,0.9,0.7,1.3,1.1c0.6,0.6,1.3,1.2,2,1.6c1.3,1,2.7,1.8,4.1,2.8
			c0.7,0.5,1.4,0.9,2.2,1.3c1.7,0.9,3.5,1.8,5.4,2.4c0.9,0.3,1.8,0.5,2.7,0.7c0.4,0.3,0.9,0.1,1.3,0.2c1,0.1,2.1,0,3.1,0
			c0.2,0,0.4,0,0.5-0.2c0.1-0.1,0.3-0.2,0.5-0.2c1.6-0.2,3.2-0.6,4.8-0.9c3.8-0.9,7.5-2,11.2-2.9c1.7-0.4,3.4-0.8,5.1-1.2
			c2.4-0.6,4.8-1.1,7.3-1.6c1.9-0.4,3.7-0.7,5.6-1.1c2.7-0.5,5.3-0.9,8-1.2c2.1-0.2,4.2,0.1,6.2,0.8c2,0.6,4.1,1.2,6.2,1.7
			c0.3,0.1,0.5,0.2,0.8,0.3c1.5,0.7,3.2,0.7,4.8,0.6c1.2-0.1,2.4-0.2,3.6-0.2c0.3,0,0.6,0,0.7-0.3c1.2-0.3,2.4-0.3,3.5-0.5
			c1.3-0.2,2.7-0.2,4-0.4c2.8-0.4,5.5-0.7,8.3-1.2c1.5-0.3,3-0.5,4.5-0.7c0.7-0.1,1.4-0.4,2.1-0.4c1.1-0.2,2.2-0.4,3.2-0.9
			c1.6-0.4,2.8-1.4,3.9-2.6c1.1-1.2,2.5-1.5,4-1.1c2.8,0.7,5.3,2,7.9,3.2c0.2,0.1,0.5,0.2,0.6,0.4c0.6,0.6,1.4,0.8,2.2,0.9
			c1.4,0.6,2.7,1.3,4.1,1.9c2.4,1.1,4.8,1.6,7.4,1.8c3.5,0.2,6.9,0.3,10.4,0.4c2.3,0.1,4.6,0.1,6.9,0.1c2.9-0.1,5.8-0.4,8.6-1.1
			c0.4-0.1,0.9-0.3,1.4-0.2c0.3,0.2,0.2,0.4,0.2,0.7c0,0.3-0.1,0.5-0.2,0.8c1.3-0.8,2.6-1.5,3.8-2.3c0.9-0.6,1.8-0.7,2.8-0.8
			c1-0.1,2.1,0,3.1-0.4c1.1,0,2,0.5,2.8,1c1.4,0.9,2.2,2.2,2.9,3.7c1.1,2.2,2.5,2.5,4.5,2.2c1.9-0.3,3.7-1.1,5.5-1.8
			c2.4-0.9,4.8-2,7.1-3.1c3.1-1.5,6.1-3,9.1-4.7c0.1-0.1,0.3-0.2,0.4-0.3c0.7-0.4,1.3-0.6,2.2-0.3c2.7,1.1,5.5,2.2,8.3,3.3
			c2.8,1.1,5.6,1.6,8.6,1.4c2.7-0.2,5.3-0.9,7.5-2.4c1.1-0.8,2.1-1.7,3.1-2.6c0.5-0.5,1-0.9,1.5-1.4c0.1-0.1,0.2-0.3,0.4-0.2
			c1.3,3.1,2.7,6.2,4,9.3c0.2,0.5,0.4,1.1,0.7,1.5c0.5,0.9,0.5,1.9,0.5,2.8c0,4.4,0,8.7,0,13.1c0,0.3,0.1,0.6-0.1,0.8
			c-0.1,0.1-0.1,0-0.2,0c-0.1-0.2-0.1-0.3-0.1-0.5c0-0.1,0-0.1,0-0.2c0-4.6,0-9.3,0-13.9c0-0.1,0-0.1-0.1-0.2c0-0.1-0.1-0.2,0-0.3
			c-0.1,0.2,0,0.4,0,0.6c0,4.4,0,8.8,0,13.2c0,0.4,0.1,0.7-0.3,1c-0.4,0.1-0.9,0.1-1.3,0.1c-66,0-131.9,0-197.9,0
			c-28.6,0-57.3,0-85.9,0c-0.4,0-0.8,0.1-1.2-0.1c-0.2-0.2-0.1-0.5-0.1-0.7c0-4.6,0-9.2,0-13.8
			C-140.5,426.4-140.7,426.7-139.5,426.2z"/>
		<path id="XMLID_382_" class="st1" d="M7.2,419.6c-1.1,0-2.1,0.4-3.2,0.6c-0.6,0.1-1.2,0.1-1.8,0.3c-1.1,0.2-2.2,0.4-3.2,0.5
			c-1.8,0.2-3.6,0.4-5.3,0.7c-1.7,0.3-3.4,0.3-5,0.6c-1.3,0.2-2.6,0.4-4,0.4c-0.3,0.2-0.6,0.2-0.9,0.2c-1.5,0.1-3,0.3-4.5,0.3
			c-1.3,0.1-2.6-0.2-3.8-0.6c-1.6-0.4-3.1-0.9-4.7-1.3c-2.7-0.6-5.3-1.8-8.1-1.4c-1.4,0.2-2.9,0.3-4.3,0.6c-1.2,0.2-2.5,0.4-3.7,0.6
			c-1.4,0.2-2.8,0.5-4.2,0.8c-1.3,0.2-2.6,0.4-3.9,0.7c-1.2,0.3-2.5,0.5-3.8,0.8c-1.3,0.3-2.5,0.7-3.8,0.9c-1.4,0.3-2.8,0.6-4.2,1
			c-2.4,0.6-4.9,1.2-7.3,2c-1.2,0.3-2.3,0.5-3.5,0.8c-1.3,0.3-2.7,0.5-4,0.8c-0.2,0.2-0.4,0.1-0.6,0.1c-1.3,0-2.7,0.1-4,0
			c-0.2,0-0.4-0.1-0.5-0.2c-1.3,0-2.4-0.5-3.6-0.9c-1.8-0.7-3.5-1.6-5.2-2.6c-1.2-0.7-2.3-1.5-3.4-2.2c-0.7-0.5-1.5-0.9-2.1-1.5
			c-0.7-0.5-1.4-1-2.1-1.5c-1.3-1-2.6-2-3.8-3.1c-0.9-0.8-1.9-1.6-2.9-2.4c-2-1.7-4-3.4-6.2-4.8c-0.7-0.4-1.4-0.8-2.1-1.2
			c-0.2-0.1-0.4-0.2-0.4-0.4c1.2-1.8,2.4-3.7,3.6-5.5c1.6-2.5,3.3-4.9,4.9-7.4c0.1-0.2,0.3-0.3,0.4-0.5c0.3,0.4,0.4,0.9,0.5,1.3
			c0.9,2.6,1.8,5.1,3,7.5c1.1,2.2,2.2,4.4,4.1,6.1c0.9,0.8,2,1.3,3.3,1.3c1.8,0.1,3.5-0.4,5.1-1.1c2.3-0.9,4.4-2.2,6.4-3.7
			c2.2-1.7,4.4-3.3,6.3-5.3c0.9-0.9,2-1.3,3.2-1.7c1.1-0.4,2.2-0.6,3.4-0.5c0.3,0,0.6,0,0.9,0c3.3,0,6,1.4,8.4,3.5
			c0.7,0.6,1.3,1.4,2,2c1,0.9,2,1.8,3.4,2c0.8,0.1,1.7,0.1,2.5-0.2c1.1-0.3,2.1-0.8,3.2-1.2c0.1,0,0.1,0,0.2,0
			c1.3-0.5,2.7-0.5,3.9-1c2.6-0.5,5.2-1.1,7.7-1.8c0.9-0.3,1.8-0.7,2.8-1c1.1-0.3,2.3-0.4,3.4-0.5c1.9-0.3,3.9-0.3,5.8-0.6
			c0.4-0.1,0.9,0,1.3-0.1c2.8-0.2,5.5-0.5,8.3-0.7c1.8-0.2,3.6-0.3,5.3-0.5c1.6-0.2,3.2-0.4,4.8-0.6c2.2-0.3,4.4-0.6,6.6-1.2
			c0.4-0.1,0.8,0.1,1.2-0.1c2.2,0,4.4,0.2,6.6,0.3c0.7,0,1.4,0.1,2.1,0.1c0.5,0.1,0.9,0.5,1.2,0.9c0.5,0.6,1,1.2,1.5,1.9
			c0.1,0.4,0.3,0.7,0.6,1c0.4,0.5,0.6,1.1,0.9,1.6c0.2,0.4,0.4,0.8,0.5,1.2c0.7,1.4,1.8,2,3.3,2c1.6,0,3,0.6,4.3,1.4
			c1.6,1,3.1,2.2,4.5,3.5c1.4,1.2,2.9,2.4,4.3,3.6c0.4,0.3,0.8,0.8,1.4,0.5c0.5-0.3,0.3-0.9,0.3-1.4c-0.1-1.7-0.4-3.4-0.6-5.1
			c-0.3-1.8-0.4-3.6-0.5-5.5c0-1,0.1-2,1.1-2.5c0.9-0.4,1.7,0.1,2.4,0.6c0.3,0.3,0.6,0.5,1,0.7c0.3,0.3,0.8,0.5,1.1,0.9
			c0.1,0.2,0.2,0.4,0.4,0.5c0,0,0.1,0.1,0.1,0.1c0.1,0.2,0.2,0.3,0.4,0.4c0,0,0.1,0.1,0.1,0.1c0.3,0.3,0.6,0.5,0.8-0.1
			c0.2-0.5,0.5-0.8,0.8-1.2c0.5-0.6,0.9-1.2,1.3-1.8c0.4-0.5,0.8-1,1-1.5c0.6-1,1.3-1.9,2-2.9c0.1-0.2,0.3-0.2,0.4-0.4
			c0.9-0.4,1.8-0.5,2.7-0.7c0.7-0.2,1.3-0.4,1.8-0.9c2.9-2.4,5.8-4.8,8.7-7.1c0.3-0.2,0.6-0.3,1-0.3c12.2,0,24.4,0,36.6,0
			c0.6,0,1.2-0.2,1.7-0.5c1.6-1,3.3-2,4.9-3c0.3,0.2,0.3,0.6,0.3,0.9c0.5,3.2,0.7,6.3,0.8,9.5c0,1,0.4,2,0.6,2.9
			c0.3,1.4,0.8,2.7,1.2,4c0.1,0.9,0.6,1.7,1,2.5c0.3,0.5,0.6,0.9,0.9,1.3c0.4,0.5,0.8,0.7,1.4,0.7c1.1,0.1,1.8-0.5,2.2-1.5
			c0.5-1.3,1.4-2.4,2-3.6c0.6-1.3,1.5-2.3,2.5-3.3c0.4-0.2,0.7-0.5,1-0.8c1.1-0.5,2.1-1.1,3.3-1.1c1.5-0.1,3.1,0,4.5,0.6
			c0.3,0.1,0.5,0.2,0.7,0.4c0.1,0.1,0.2,0.2,0.3,0.2c1.5,0.3,3,0.8,4.6,0.3c0.3-0.1,0.5-0.2,0.8-0.4c0.7-0.4,1.4-0.9,2.2-1.2
			c0.8,0.1,1.6,0.4,2.3,0.7c0.3,0.1,0.4,0.4,0.6,0.7c2,4.8,4.1,9.6,6.1,14.3c0.7,1.5,1.4,3.1,1.9,4.6c-1.4,1.6-3.1,3-4.8,4.3
			c-1.1,0.9-2.5,1.4-3.9,1.8c-2.1,0.6-4.2,0.7-6.4,0.6c-1.6-0.1-3.2-0.4-4.8-1c-1.8-0.7-3.6-1.3-5.3-2c-1.6-0.6-3.2-1.3-4.8-1.9
			c-0.6-0.2-1,0.1-1.4,0.4c-1.4,0.9-2.9,1.7-4.3,2.4c-1.8,0.9-3.5,1.8-5.3,2.7c-2.5,1.2-5.1,2.3-7.7,3.3c-1.6,0.6-3.2,1.3-4.9,1.6
			c-1.7,0.3-3.2,0-4.2-1.5c-0.4-0.5-0.7-1.1-0.9-1.6c-1-2.2-2.8-3.3-5.1-3.8c-0.3-0.2-0.3-0.5-0.3-0.7c-0.6-5.3-1.1-10.5-1.7-15.8
			c-0.5-4.5-1-9-1.5-13.5c-0.1-0.7-0.1-1.3-0.1-2c0-0.1,0-0.2,0-0.3c0,0.1,0,0.3,0,0.4c0,2.3-0.3,4.6-0.5,6.8
			c-0.2,2.6-0.5,5.3-0.7,7.9c-0.1,0.6-0.1,1.3-0.3,1.9c-1.4,5.5-2.7,11-4.1,16.5c-0.1,0.3,0,0.7-0.5,0.8c-1,0.2-2,0.5-3,0.7
			c-0.9,0.2-1.9,0.2-2.8,0.4c-3.3,0.5-6.6,0.4-9.9,0.3c-2.2-0.1-4.3,0-6.5-0.1c-2.8-0.2-5.6-0.2-8.4-0.6c-1.5-0.2-3-0.8-4.3-1.5
			c-1.3-0.6-2.6-1.1-3.9-1.9c-0.1,0-0.2,0-0.3,0c-0.7-0.4-1.5-0.5-2.1-1c-1.6-0.7-3.1-1.5-4.7-2.2c-1.7-0.7-3.3-1.5-5.2-1.5
			c-1,0-1.8,0.4-2.5,1.1c-1,1.1-2,2-3.4,2.5c-0.2,0.1-0.4,0.1-0.6,0.1c-0.7,0.4-1.5,0.5-2.2,0.7C7.8,419.4,7.5,419.4,7.2,419.6z"/>
		<path id="XMLID_381_" class="st2" d="M-72.9,399.1c-1.5-0.1-2.9,0.4-4.3,0.9c-1.4,0.5-2.3,1.5-3.4,2.5c-0.9,0.8-1.8,1.7-2.8,2.3
			c-1,0.7-1.8,1.6-2.9,2.2c-1.2,0.8-2.4,1.6-3.7,2.3c-1.1,0.6-2.3,1.1-3.5,1.5c-1.4,0.5-2.9,0.7-4.3,0.5c-1.3-0.2-2.4-0.8-3.2-1.8
			c-1.3-1.4-2.2-3.1-3.1-4.8c-1.3-2.4-2.2-5-3.2-7.6c-0.3-0.7-0.6-1.5-0.7-2.3c1.2-1.8,2.3-3.6,3.5-5.3c0.1-0.2,0.4-0.3,0.6-0.4
			c4.2-1.7,8.4-3.4,12.6-5.1c0.4-0.2,0.7-0.1,1,0.2c1.5,1.3,3,2.5,4.5,3.8c0.3,0.3,0.5,0.6,0.5,1c0.2,2.7,0.5,5.4,0.8,8
			c0,0.4,0.2,0.5,0.6,0.4c1.5-0.2,3.1-0.4,4.6-0.6c0.8-0.1,1.7-0.2,2.5-0.3c0.4,0,0.6-0.2,0.8-0.4c1.6-2.1,3.2-4.2,4.8-6.3
			c0.3-0.4,0.5-0.4,0.8-0.1c1.7,1.7,3.5,3.4,5.2,5.2c0.7,0.8,1.6,0.9,2.5,1.2c4.4,1.3,8.7,2.6,13.1,3.6c2.7,0.6,5.4,1.3,8.2,1.3
			c1.7,0,3.4-0.3,5.1-0.4c0.1,0,0.2,0,0.3,0c0.3-0.2,0.7,0.1,1.1-0.1l0,0c0.3-0.2,0.7,0.1,1-0.1l0,0c0.3-0.1,0.6,0,0.9-0.1
			c0.1,0,0.1,0,0.2,0c0.2-0.1,0.5,0,0.7-0.1c0.1,0,0.1,0,0.2,0c0.4-0.1,0.7,0,1.1-0.1c0.7-0.1,1.4-0.1,2.1-0.3
			c0.4-0.1,0.9-0.1,1.3,0.2c-0.5,0.3-1.1,0.1-1.7,0.2c-1.8,0.3-3.7,0.3-5.6,0.6c-1.9,0.2-3.8,0.5-5.6,1.4c-0.9,0.5-2,0.6-3.1,0.8
			c-1.1,0.3-2.3,0.5-3.5,0.8c-0.5,0.1-1,0.3-1.6,0.2c-0.5,0.2-1,0.3-1.5,0.3c-0.9,0.1-1.7,0.4-2.6,0.7c-0.7,0.4-1.4,0.7-2.1,0.9
			c-2.1,0.7-4.2,0.9-6.2-0.8c-1.1-0.9-2-2-3.1-2.9c-1.1-0.9-2.3-1.7-3.6-2.3c-1-0.5-2-0.7-3.1-1c-0.5-0.1-1,0-1.5-0.1
			C-72.2,398.9-72.5,398.9-72.9,399.1z"/>
		<path id="XMLID_94_" class="st2" d="M39,400.6c-0.5,1.1-1.5,2-2.1,3.1c-0.4,0.5-0.4,0.5-1,0l0,0c-0.1-0.2-0.3-0.4-0.5-0.5l0,0
			c-0.1-0.2-0.3-0.4-0.5-0.5c-0.3-0.4-0.8-0.5-1-0.9c-0.3-0.2-0.7-0.5-1-0.6c-0.6-0.4-1.3-0.7-2-0.7c-0.5-0.1-0.8,0.3-1,0.7
			c-0.2,0.4-0.4,0.8-0.4,1.3c-0.1,1.7,0.1,3.4,0.3,5.1c0.2,1.5,0.4,3.1,0.7,4.6c0.1,0.6,0.2,1.3,0.1,2c0,0.9-0.5,1.2-1.3,0.8
			c-1-0.5-1.7-1.4-2.7-2c-0.6-0.4-1.1-0.9-1.6-1.3c-1.1-1.1-2.4-2-3.6-3c-1.4-1.1-2.9-2.1-4.7-2.5c-0.6-0.2-1.3,0-2-0.1
			c-1.3-0.2-2.1-0.9-2.6-2c-0.4-0.9-0.8-1.7-1.2-2.6c0-0.1-0.1-0.1-0.2-0.2c-0.1-0.4-0.2-0.7-0.5-1c-0.8-1-1.4-2.1-2.6-2.8
			c5.2,0.3,10.3,0.5,15.5,0.8c2.4,0.1,4.8,0.3,7.2,0.4c0.9,0,1.8-0.3,2.6-0.5c3-0.7,6-1.5,9.1-2.2c0.1,0,0.2,0,0.3,0
			c-0.7,1.1-1.5,2.3-2.3,3.4"/>
		<path id="XMLID_379_" class="st2" d="M113,396.8c-0.5,0.8-1.3,1.5-1.9,2.3c-0.2,0.4-0.4,0.8-0.7,1.2c-0.8,1.4-1.6,2.8-2.4,4.2
			c-0.3,0.6-0.8,0.8-1.4,0.8c-0.8,0.1-1.5,0.1-2-0.5c-0.4-0.5-0.7-1-1-1.5c-0.4-0.8-0.7-1.6-1-2.4c-0.3-0.9-0.8-1.9-0.9-2.8
			c-0.3-1.7-1-3.3-1-5.1c0-2.4-0.1-4.9-0.6-7.3c-0.1-0.8-0.2-1.6-0.3-2.3c1-0.6,2-1.2,2.9-1.8c0.3-0.2,0.6-0.3,1-0.2
			c2.1,0.3,4.1,0.5,6.2,0.8c0.3,0,0.4,0.2,0.4,0.5c0.1,1.8,0.3,3.5,0.7,5.2c0.5,2.1,1.3,4.1,2.9,5.6c0.9,0.9,2,1.4,3.2,1.6
			c0,0,0,0.1,0,0.1c-1,0-1.8,0.6-2.7,0.9c-0.2,0.1-0.4,0.1-0.6,0.3C113.6,396.3,113.3,396.6,113,396.8z"/>
		<path id="XMLID_376_" class="st2" d="M117.2,395C117.2,395,117.2,394.9,117.2,395c1.6,0.1,3.2-0.4,4.8-0.6
			c2.8-0.3,5.7-0.4,8.5,0.3c-0.6,0.6-1.3,0.9-2.1,1.3c-1.4,0.9-3,0.8-4.5,0.4c-0.5-0.1-1-0.1-1.4-0.4
			C120.8,395.3,119.1,394.8,117.2,395z"/>
		<path id="XMLID_370_" class="st3" d="M67.8,422.5c0.6-2,1-4,1.5-5.9c1-3.9,1.9-7.7,2.9-11.6c0.3-1.3,0.3-2.7,0.4-4.1
			c0.4-4.1,0.7-8.1,1.1-12.2c0-0.1,0-0.2,0-0.3c0.1-0.1,0.1-0.2,0.2-0.1c0.2,2.3,0.5,4.6,0.7,6.9c0.4,4.2,0.9,8.4,1.4,12.6
			c0.4,4,0.9,8.1,1.3,12.1c0,0.2,0.1,0.3,0.1,0.5c0,0.3-0.3,0.3-0.5,0.3c-1.3,0.1-2.5,0.2-3.8,0.3c-0.3,0-0.6,0.1-0.9,0.3
			c-1.6,1-3.1,1.9-4.7,2.9C67.5,423.5,67.8,423,67.8,422.5z"/>
		<path id="XMLID_360_" class="st4" d="M59.1,394.5c-1.1,3.3-2.2,6.6-3.3,9.9c-0.1,0.3-0.1,0.6-0.1,0.9c0,3,0,6,0,9
			c0,0.5-0.2,0.7-0.6,0.8c-1.4,0.1-2.7,0.3-4.1,0.4c-0.3,0-0.6,0.3-0.8,0c-0.1-0.2,0.1-0.5,0.1-0.8c0.6-2.8,1.4-5.6,2-8.4
			c0.4-2.1,1-4.1,1.4-6.2c0.1-0.3,0.2-0.5,0.4-0.7c0.9-1,1.8-1.9,2.7-2.9c0.8-0.9,1.5-1.7,2.3-2.5C59.3,394.1,59.1,394.3,59.1,394.5
			z"/>
		<path id="XMLID_359_" class="st4" d="M-74.1,404.1c-0.5,2.1-1,4.1-1.5,6.2c-0.6,2.3-1.2,4.7-1.8,7c-0.7,2.7-1.3,5.5-2,8.3
			c0,0.2,0,0.3-0.2,0.5c0-0.8,0-1.6,0-2.3c0.2-0.3,0.1-0.6,0.1-0.9c0-6,0-12.1,0-18.1c0-1,0-1,1-1.1c1.2,0,2.5,0.1,3.7-0.1
			C-74.4,403.6-74.3,403.9-74.1,404.1z"/>
		<path id="XMLID_358_" class="st4" d="M-24.9,420.7c-1-0.3-1.8-1.1-2.8-1.5c-0.5-0.3-1-0.6-1.5-0.9c-0.2-0.1-0.3-0.3-0.2-0.5
			c1.4-3.7,2.8-7.5,4.2-11.3c0.3-0.8,0.5-1.6,0.9-2.4c0.5,0.1,0.3,0.6,0.3,0.8c-0.2,1.9-0.1,3.7-0.1,5.6c0,3,0,6,0,9
			c0,0.2,0,0.3,0,0.5C-24.1,420.7-24.2,420.8-24.9,420.7z"/>
	</g>
	<g id="titulo_5_">
		<path id="XMLID_96_" class="st5" d="M-86.4,454.9h-52.1c-0.2,0-0.3-0.1-0.3-0.3l0,0c0-0.2,0.1-0.3,0.3-0.3h52.1
			c0.2,0,0.3,0.1,0.3,0.3l0,0C-86.1,454.8-86.2,454.9-86.4,454.9z"/>
		<g id="XMLID_95_">
			<path class="st5" d="M-73,455.5l-0.8,2.3h-1l2.5-7.4h1.1l2.5,7.4h-1l-0.8-2.3H-73z M-70.6,454.7l-0.7-2.1
				c-0.2-0.5-0.3-0.9-0.4-1.3h0c-0.1,0.4-0.2,0.9-0.4,1.3l-0.7,2.1H-70.6z"/>
			<path class="st5" d="M-63.3,456.4c0,0.5,0,1,0,1.4h-0.9l-0.1-0.9h0c-0.3,0.4-0.8,1-1.7,1c-0.8,0-1.8-0.5-1.8-2.3v-3.1h1v2.9
				c0,1,0.3,1.7,1.2,1.7c0.6,0,1.1-0.4,1.3-0.9c0.1-0.1,0.1-0.3,0.1-0.5v-3.2h1V456.4z"/>
			<path class="st5" d="M-61.3,452.5l1.2,3.1c0.1,0.3,0.3,0.8,0.3,1.1h0c0.1-0.3,0.2-0.7,0.3-1.1l1-3.1h1l-1.4,3.8
				c-0.7,1.8-1.2,2.7-1.8,3.3c-0.5,0.4-0.9,0.6-1.2,0.6l-0.2-0.8c0.2-0.1,0.6-0.2,0.8-0.5c0.3-0.2,0.6-0.6,0.8-1.1
				c0-0.1,0.1-0.2,0.1-0.2s0-0.1-0.1-0.3l-2-4.9H-61.3z"/>
			<path class="st5" d="M-53.6,457.8l-0.1-0.7h0c-0.3,0.4-0.9,0.8-1.6,0.8c-1.1,0-1.6-0.8-1.6-1.5c0-1.3,1.1-2,3.2-2v-0.1
				c0-0.4-0.1-1.2-1.2-1.2c-0.5,0-1,0.2-1.4,0.4l-0.2-0.6c0.4-0.3,1.1-0.5,1.7-0.5c1.6,0,2,1.1,2,2.2v2c0,0.5,0,0.9,0.1,1.3H-53.6z
				 M-53.8,455.1c-1,0-2.2,0.2-2.2,1.2c0,0.6,0.4,0.9,0.9,0.9c0.7,0,1.1-0.4,1.3-0.9c0-0.1,0.1-0.2,0.1-0.3V455.1z"/>
			<path class="st5" d="M-51.3,454c0-0.5,0-1,0-1.4h0.9l0.1,0.9h0c0.3-0.5,0.9-1,1.7-1c0.7,0,1.9,0.4,1.9,2.3v3.2h-1v-3
				c0-0.9-0.3-1.6-1.2-1.6c-0.6,0-1.1,0.4-1.3,1c0,0.1-0.1,0.3-0.1,0.4v3.2h-1V454z"/>
			<path class="st5" d="M-44.1,451v1.5h1.4v0.7h-1.4v2.9c0,0.7,0.2,1,0.7,1c0.3,0,0.4,0,0.6-0.1l0,0.7c-0.2,0.1-0.5,0.1-0.9,0.1
				c-0.4,0-0.8-0.1-1-0.4c-0.3-0.3-0.4-0.8-0.4-1.4v-2.9h-0.8v-0.7h0.8v-1.3L-44.1,451z"/>
			<path class="st5" d="M-41.2,455.3c0,1.3,0.9,1.8,1.8,1.8c0.7,0,1.1-0.1,1.5-0.3l0.2,0.7c-0.3,0.2-0.9,0.3-1.8,0.3
				c-1.6,0-2.6-1.1-2.6-2.7c0-1.6,0.9-2.9,2.5-2.9c1.7,0,2.2,1.5,2.2,2.5c0,0.2,0,0.3,0,0.4H-41.2z M-38.4,454.7
				c0-0.6-0.3-1.6-1.3-1.6c-1,0-1.4,0.9-1.5,1.6H-38.4z"/>
			<path class="st5" d="M-36.3,454.2c0-0.7,0-1.2,0-1.7h0.9l0,0.9h0c0.4-0.6,1-1,1.9-1c1.3,0,2.2,1.1,2.2,2.7c0,1.9-1.2,2.8-2.4,2.8
				c-0.7,0-1.3-0.3-1.6-0.8h0v2.9h-1V454.2z M-35.3,455.7c0,0.1,0,0.3,0,0.4c0.2,0.7,0.8,1.1,1.4,1.1c1,0,1.6-0.8,1.6-2
				c0-1.1-0.6-2-1.6-2c-0.7,0-1.3,0.5-1.5,1.2c0,0.1-0.1,0.3-0.1,0.4V455.7z"/>
			<path class="st5" d="M-25.6,456.4c0,0.5,0,1,0,1.4h-0.9l-0.1-0.9h0c-0.3,0.4-0.8,1-1.7,1c-0.8,0-1.8-0.5-1.8-2.3v-3.1h1v2.9
				c0,1,0.3,1.7,1.2,1.7c0.6,0,1.1-0.4,1.3-0.9c0.1-0.1,0.1-0.3,0.1-0.5v-3.2h1V456.4z"/>
			<path class="st5" d="M-23,451c0,0.3-0.2,0.6-0.6,0.6c-0.3,0-0.6-0.3-0.6-0.6c0-0.3,0.3-0.6,0.6-0.6C-23.2,450.4-23,450.7-23,451z
				 M-24,457.8v-5.3h1v5.3H-24z"/>
			<path class="st5" d="M-16.9,454.5v0.7h-2.7v-0.7H-16.9z"/>
			<path class="st5" d="M-13.5,450.5c0.4-0.1,1.1-0.2,1.7-0.2c1,0,1.6,0.2,2,0.5c0.4,0.3,0.6,0.7,0.6,1.3c0,0.7-0.5,1.3-1.2,1.6v0
				c0.7,0.2,1.5,0.8,1.5,1.8c0,0.6-0.3,1.1-0.6,1.5c-0.5,0.5-1.3,0.7-2.5,0.7c-0.7,0-1.2,0-1.5-0.1V450.5z M-12.5,453.6h0.9
				c1,0,1.6-0.5,1.6-1.2c0-0.9-0.7-1.2-1.6-1.2c-0.4,0-0.7,0-0.8,0.1V453.6z M-12.5,457.1c0.2,0,0.5,0,0.8,0c1,0,1.9-0.4,1.9-1.4
				c0-1-0.9-1.4-1.9-1.4h-0.8V457.1z"/>
			<path class="st5" d="M-2.7,455.1c0,2-1.4,2.8-2.6,2.8c-1.4,0-2.5-1-2.5-2.7c0-1.8,1.2-2.8,2.6-2.8
				C-3.8,452.4-2.7,453.5-2.7,455.1z M-6.9,455.2c0,1.2,0.7,2,1.6,2c0.9,0,1.6-0.9,1.6-2.1c0-0.9-0.4-2-1.6-2
				C-6.5,453.1-6.9,454.2-6.9,455.2z"/>
			<path class="st5" d="M-1.5,450.1h1v7.8h-1V450.1z"/>
			<path class="st5" d="M3,450.2l-1.3,1.6H1l1-1.6H3z M1,457.8v-5.3h1v5.3H1z"/>
			<path class="st5" d="M4,452.5l1,3c0.2,0.5,0.3,0.9,0.4,1.4h0c0.1-0.4,0.3-0.9,0.4-1.4l1-3h1l-2.1,5.3H4.9l-2-5.3H4z"/>
			<path class="st5" d="M11.7,457.8l-0.1-0.7h0c-0.3,0.4-0.9,0.8-1.6,0.8c-1.1,0-1.6-0.8-1.6-1.5c0-1.3,1.1-2,3.2-2v-0.1
				c0-0.4-0.1-1.2-1.2-1.2c-0.5,0-1,0.2-1.4,0.4l-0.2-0.6c0.4-0.3,1.1-0.5,1.7-0.5c1.6,0,2,1.1,2,2.2v2c0,0.5,0,0.9,0.1,1.3H11.7z
				 M11.6,455.1c-1,0-2.2,0.2-2.2,1.2c0,0.6,0.4,0.9,0.9,0.9c0.7,0,1.1-0.4,1.3-0.9c0-0.1,0.1-0.2,0.1-0.3V455.1z"/>
			<path class="st5" d="M14.1,454.2c0-0.6,0-1.2,0-1.7h0.8l0,1h0c0.2-0.7,0.8-1.2,1.5-1.2c0.1,0,0.2,0,0.3,0v0.9c-0.1,0-0.2,0-0.3,0
				c-0.7,0-1.2,0.5-1.3,1.2c0,0.1,0,0.3,0,0.4v2.8h-1V454.2z"/>
			<path class="st5" d="M22.2,454.5v0.7h-2.7v-0.7H22.2z"/>
			<path class="st5" d="M25.3,457.8v-0.6l0.8-0.7c1.8-1.7,2.6-2.6,2.6-3.7c0-0.7-0.3-1.4-1.4-1.4c-0.6,0-1.2,0.3-1.5,0.6l-0.3-0.7
				c0.5-0.4,1.2-0.7,2-0.7c1.5,0,2.2,1,2.2,2.1c0,1.3-1,2.4-2.4,3.8l-0.6,0.5v0h3.2v0.8H25.3z"/>
			<path class="st5" d="M31,457.2c0-0.4,0.3-0.7,0.7-0.7s0.6,0.3,0.6,0.7c0,0.4-0.3,0.7-0.7,0.7C31.3,457.9,31,457.6,31,457.2z"/>
			<path class="st5" d="M37.4,451.5h-2.7l-0.3,1.8c0.2,0,0.3,0,0.6,0c0.5,0,1.1,0.1,1.5,0.4c0.6,0.3,1,0.9,1,1.8
				c0,1.4-1.1,2.4-2.6,2.4c-0.8,0-1.4-0.2-1.8-0.4l0.2-0.7c0.3,0.2,0.9,0.4,1.5,0.4c0.9,0,1.7-0.6,1.7-1.5c0-0.9-0.6-1.6-2-1.6
				c-0.4,0-0.7,0-1,0.1l0.5-3.4h3.4V451.5z"/>
			<path class="st5" d="M43.5,454.2c0,2.4-0.9,3.7-2.5,3.7c-1.4,0-2.3-1.3-2.3-3.6c0-2.4,1-3.7,2.5-3.7
				C42.6,450.6,43.5,451.9,43.5,454.2z M39.6,454.3c0,1.8,0.6,2.9,1.4,2.9c1,0,1.5-1.1,1.5-3c0-1.7-0.4-2.9-1.4-2.9
				C40.2,451.3,39.6,452.4,39.6,454.3z"/>
			<path class="st5" d="M49.1,454.2c0,2.4-0.9,3.7-2.5,3.7c-1.4,0-2.3-1.3-2.3-3.6c0-2.4,1-3.7,2.5-3.7
				C48.2,450.6,49.1,451.9,49.1,454.2z M45.2,454.3c0,1.8,0.6,2.9,1.4,2.9c1,0,1.5-1.1,1.5-3c0-1.7-0.4-2.9-1.4-2.9
				C45.8,451.3,45.2,452.4,45.2,454.3z"/>
			<path class="st5" d="M52.6,454c0-0.5,0-1,0-1.4h0.8l0,0.9h0c0.3-0.5,0.8-1,1.7-1c0.7,0,1.3,0.4,1.5,1.1h0
				c0.2-0.3,0.4-0.5,0.6-0.7c0.3-0.2,0.7-0.4,1.2-0.4c0.7,0,1.7,0.5,1.7,2.3v3.1h-0.9v-3c0-1-0.4-1.6-1.1-1.6c-0.5,0-1,0.4-1.1,0.9
				c0,0.1-0.1,0.3-0.1,0.5v3.3h-0.9v-3.2c0-0.8-0.4-1.5-1.1-1.5c-0.6,0-1,0.5-1.2,1c-0.1,0.1-0.1,0.3-0.1,0.5v3.2h-0.9V454z"/>
			<path class="st5" d="M61.6,456.8c0.3,0.2,0.8,0.4,1.3,0.4c0.7,0,1-0.3,1-0.8c0-0.5-0.3-0.7-1-1c-1-0.3-1.4-0.9-1.4-1.5
				c0-0.9,0.7-1.6,1.8-1.6c0.5,0,1,0.2,1.3,0.3l-0.2,0.7c-0.2-0.1-0.6-0.3-1.1-0.3c-0.6,0-0.9,0.3-0.9,0.7c0,0.4,0.3,0.6,1,0.9
				c0.9,0.3,1.4,0.8,1.4,1.6c0,0.9-0.7,1.6-2,1.6c-0.6,0-1.1-0.1-1.5-0.4L61.6,456.8z"/>
			<path class="st5" d="M66,454c0-0.5,0-1,0-1.4h0.9l0.1,0.9h0c0.3-0.5,0.9-1,1.7-1c0.7,0,1.9,0.4,1.9,2.3v3.2h-1v-3
				c0-0.9-0.3-1.6-1.2-1.6c-0.6,0-1.1,0.4-1.3,1c0,0.1-0.1,0.3-0.1,0.4v3.2h-1V454z"/>
			<path class="st5" d="M72.1,454c0-0.5,0-1,0-1.4h0.8l0,0.9h0c0.3-0.5,0.8-1,1.7-1c0.7,0,1.3,0.4,1.5,1.1h0
				c0.2-0.3,0.4-0.5,0.6-0.7c0.3-0.2,0.7-0.4,1.2-0.4c0.7,0,1.7,0.5,1.7,2.3v3.1h-0.9v-3c0-1-0.4-1.6-1.1-1.6c-0.5,0-1,0.4-1.1,0.9
				c0,0.1-0.1,0.3-0.1,0.5v3.3h-0.9v-3.2c0-0.8-0.4-1.5-1.1-1.5c-0.6,0-1,0.5-1.2,1c-0.1,0.1-0.1,0.3-0.1,0.5v3.2h-0.9V454z"/>
		</g>
		<path id="XMLID_93_" class="st5" d="M143.8,454.9H91.1c-0.2,0-0.3-0.1-0.3-0.3l0,0c0-0.2,0.1-0.3,0.3-0.3h52.7
			c0.2,0,0.3,0.1,0.3,0.3l0,0C144.1,454.8,143.9,454.9,143.8,454.9z"/>
	</g>
</g>
</svg>
