<?xml version="1.0" encoding="utf-8"?>
<!-- Generator: Adobe Illustrator 19.0.0, SVG Export Plug-In . SVG Version: 6.00 Build 0)  -->
<svg version="1.1" id="Capa_1" xmlns="http://www.w3.org/2000/svg" xmlns:xlink="http://www.w3.org/1999/xlink" x="0px" y="0px"
	 viewBox="-147 380.9 300 80" style="enable-background:new -147 380.9 300 80;" xml:space="preserve">
<style type="text/css">
	.st0{fill:#949494;}
	.st1{fill:#798838;}
	.st2{fill:#647223;}
	.st3{fill:#93623A;}
</style>
<g id="Cerro_El_Ãvila">
	<g id="XMLID_716_">
		<g id="XMLID_49_">
			<path id="XMLID_39_" class="st0" d="M-82.4,401.5L-82.4,401.5c-0.8,0-1.4-0.6-1.4-1.4v-5.9c0-0.8,0.6-1.4,1.4-1.4h0
				c0.8,0,1.4,0.6,1.4,1.4v5.9C-81,400.9-81.6,401.5-82.4,401.5z"/>
			<path id="XMLID_78_" class="st1" d="M152.9,417.1c0-0.2,0-0.3-0.1-0.5c-0.3-0.2-0.5-0.4-0.8-0.5c-1.8-1.1-3.7-1.9-5.9-2.1
				c-2.4-0.2-4.6-1.4-6.8-2.4c-4.8-2.3-9.3-4.8-13.9-7.4c-6.1-3.4-12.2-6.9-18.4-10.2c-4.6-2.4-9.2-4.8-14.3-6.1
				c-1.7-0.5-3.5-0.8-5.3-0.5c-3.5,0.5-6.9,1.1-10.4,1.4c-5.3,0.5-10.6,1.4-15.9,2.3c-5,0.8-9.9,1.7-14.9,2.6
				c-6.2,1.2-12.4,2.2-18.5,3.7c-4.5,1.1-9,2.5-13.2,4.6c-2,1-3.8,2.1-5.7,3.2c-1.2,0.7-2.7,0.8-4,0c-0.2-0.1-0.4-0.2-0.5-0.3
				c-2.7-1.3-5.7-2-8.6-2.7c-5.6-1.4-11.4-2.5-17-4.1c-3.3-0.9-6.7-1.9-9.7-3.8c-2.2-1.4-4.2-3-5.1-5.6c-0.1-0.3-0.3-0.3-0.6-0.3
				c-1.3,0.1-2.7,0.2-4,0.4c-5.3,0.8-10.6,2-15.8,3.6c-4.8,1.4-9.7,3-14.4,4.6c-3.5,1.2-6.9,2.4-10.4,3.7c-0.7,0.1-1.4,0-2.1-0.1
				c-0.2,0-0.4-0.1-0.7,0c-1.6-0.2-3.2-0.4-4.8-0.7c-3.7-0.6-7.4-1.1-11-1.7c-0.5-0.1-1,0-1.5,0.2c-1.2,0.6-2.5,1.1-3.7,1.6
				c-6.8,2.8-13.7,5.1-20.9,6.5c-1.9,0.4-3.9,0.6-5.8,1c-5.5,1.3-10.4,3.8-15.1,6.8c-0.3,0.2-0.5,0.5-0.5,0.9c0,0.3,0,0.5,0,0.8l0,0
				v19.4h0.1c0.1,0.1,0.3,0.2,0.5,0.2c2.5,0,5,0,7.4,0l7.3-0.2h284.6v-6.8c0,0,0-0.1,0-0.1v-9.3l0,0
				C152.9,418.6,152.9,417.8,152.9,417.1z"/>
			<g id="XMLID_87_">
				<path id="XMLID_288_" class="st2" d="M86.4,415c-1.3-0.2-2.6-0.2-3.9-0.3c-0.2-0.2-0.4-0.2-0.6-0.3c-2.4-0.2-4.8-0.5-7.1-0.6
					c-0.5,0-1.1-0.2-1.6,0c-0.4-0.3-0.8-0.1-1.2-0.3c-0.8,0-1.5-0.1-2.2-0.3c-0.4-0.1-0.8-0.1-1.2-0.2c-0.5,0-1-0.3-1.5,0
					c-0.2-0.2-0.5-0.4-0.8-0.4c-0.5-0.1-1-0.1-1.5-0.3c-1.3-0.4-2.6-0.5-3.8-1.3c-0.6-0.5-0.7-0.6-0.2-1.3c0.6-0.8,1.2-1.5,1.7-2.3
					c1.7-2.6,3.3-5.1,5-7.7c0.7-1.1,1.4-2.2,2-3.5c-2.1,1-4,1.9-6,2.9c-3.5,1.8-6.8,3.8-10.2,5.9c-3.1,2-6.1,4.1-9,6.5
					c-2.7,2.2-5.1,4.5-7.4,7.1c-0.5,0.6-1.2,1-1.4,1.7c-0.8,0.9-1.8,1.6-2.5,2.7c-0.7,0.1-1,0.7-1.5,1.1c0.1,0,0.2,0,0.2,0.1
					c0,0.1,0,0.2,0.2,0.2c0.4-0.3,1-0.4,1.5-0.5c3.1-1.1,6.3-2.3,9.5-3.3c1.4-0.5,2.7-1,4.2-1.3c0.5,0.4,0.9,0,1.4-0.1
					c2.1-0.6,4.1-1.2,6.3-1.5c2.5-0.3,5.1-0.5,7.7-0.7c0.6,0,1.2,0,1.7-0.3c-0.1-0.4,0.2-0.3,0.4-0.3c1.6,0,3.2-0.2,4.9-0.1
					c0.7-0.1,1.4-0.1,2.1,0c0.6,0,1.1-0.3,1.6,0c0.2,0.1,0.5,0.2,0.8,0.2c1.6,0,3.2-0.1,4.8-0.3c1.3-0.2,2.5-0.1,3.8-0.5
					c0.2-0.1,0.1-0.3,0.3-0.4c1.3-0.1,2.6-0.1,3.9-0.2C86.4,415.1,86.4,415.1,86.4,415C86.5,415,86.5,415,86.4,415z"/>
				<path id="XMLID_291_" class="st2" d="M-75.1,414.3c-0.2,0-0.4-0.1-0.6-0.2c0,0-0.1,0-0.1,0c-0.3-0.5-0.7-0.7-1.1-0.9
					c-0.1,0-0.1-0.1-0.2-0.1c-1.4-1-2.9-0.9-4.4-0.3c-1.2,0.5-2.3,1.2-3.3,1.9c-1.5,1-2.8,2.1-4.2,3.2c-0.7,0.5-1.4,1-2.2,1.3
					c-2.8,0.9-5.5,2.3-8.1,3.6c-0.1,0-0.1,0.2-0.2,0.3c0,0-0.1,0-0.1,0c-0.2,0.1-0.4,0-0.5,0.3c-0.4,0.4-0.9,0.5-1.4,0.8
					c-0.2,0.2-0.3,0.4,0.1,0.5c0.2,0,0.4-0.1,0.5-0.1c0.3-0.2,0.6-0.2,1-0.3c0.2,0,0.4-0.1,0.5,0.1c0.1,0.1,0.2,0.1,0.3,0.1
					c2-0.5,4.1-1.1,6.1-1.7c0.2-0.1,0.3-0.1,0.5-0.2c0.2-0.1,0.5-0.1,0.7-0.3c0.1-0.1,0-0.2,0.1-0.3c1.5-0.4,2.9-1.1,4.4-1.1
					c1.9-0.3,3.7-1.2,5.5-1.9c0.5-0.2,1-0.4,1.3-0.9c0-0.2,0-0.4,0.3-0.4c0.3-0.1,0.6-0.2,0.8-0.4c1-0.4,2-0.4,3.1-0.4
					c1.2-0.1,2,0.4,3.2,0.5c0.2,0,0.7,0.1,0.8,0.1c1.1,0.1,2.3,0.2,3.5,0.2c0.5,0,1-0.2,1.6-0.4c-1.9-0.6-3.7-1.3-5.5-2
					C-73.5,415.1-74.3,414.7-75.1,414.3z"/>
			</g>
		</g>
		<path id="XMLID_77_" class="st0" d="M153,429.5c-0.1,0-0.2-0.1-0.2-0.1c-3.3,0-6.6,0-9.9,0c-0.5,0-0.9,0-1.4,0.2
			c-0.4,0-0.3-0.4-0.3-0.6c0-2.4,0-4.7,0-7.1c0-0.5-0.1-0.6-0.6-0.6c-3,0-6,0-9,0c-0.6,0-0.7,0.2-0.7,0.8c0,2.8,0,5.5,0,8.3
			c0,0.3-0.3,0.6-0.6,0.6c-2,0-4.1,0-6.1,0c-0.6,0-0.8-0.1-0.8-0.8c0-4.2,0-8.4,0-12.6c0-0.6-0.2-0.7-0.7-0.7c-2.4,0-4.7,0-7.1,0
			c-0.5,0-0.7,0.1-0.6,0.7c0.1,1.3,0.1,2.5,0,3.8c-0.1,2,0.2,2-0.9,2c-3.3,0-6.6,0-9.8,0c-0.5,0-0.7,0.1-0.7,0.7c0,1.5,0,2.9,0,4.4
			c0,0.6-0.2,0.8-1,0.7c-1.7-0.1-3.4-0.1-5,0c-0.7,0-0.9-0.1-1-0.6v-6.4c0-2.6,0-5.1,0-7.7c0-0.1,0-0.2,0-0.2v-0.5
			c0-0.1-0.1-0.2-0.2-0.2H82.5c-0.1,0-0.2,0.1-0.2,0.2v8c-0.1,0.1-0.3,0.1-0.8,0.1c-1.5,0-3,0-4.5,0c-0.9,0-1,0.1-1,1
			c0,1.9,0,3.8,0,5.7c0,0.2,0,0.5-0.3,0.5c-0.6,0-1.2,0-1.8,0c-0.2,0-0.4,0-0.5-0.1v-16c0-0.1-0.1-0.2-0.2-0.2h-9
			c-0.1,0-0.2,0.1-0.2,0.2v7.8c-0.1,0.2-0.3,0.2-0.8,0.2c-1.8,0-3.7,0-5.5,0c-1.2,0-1.3,0.1-1.3,1.3c0,1.9,0,3.8,0,5.7
			c0,0.7-0.1,0.8-0.7,0.8c-2,0-4.1,0-6.1,0c-0.7,0-0.8-0.1-0.8-0.8c0-2,0-4,0-6c0-0.3,0-0.5,0-0.8c0-0.1,0-0.2-0.1-0.3v-1.4
			c0-0.1-0.1-0.2-0.2-0.2H31.9c-0.1,0-0.2,0.1-0.2,0.2v4.9c0,0-0.1,0-0.2,0c-2.9,0-5.8,0-8.7,0c-0.3,0-0.6-0.3-0.6-0.6
			c0-0.7,0-1.4,0-2.1c0-0.4-0.1-0.6-0.6-0.6c-1.7,0-3.5,0-5.2,0c-0.2,0.2-0.1,0.5-0.1,0.7c0,2.6,0,5.1,0,7.7c0,0.4,0,0.7-0.3,1
			c0,0.3-0.2,0.1-0.3,0.1c-2.3,0-4.7,0-7,0c0.2-0.1,0.4-0.1,0.6-0.1c1.9,0,3.7,0,5.6,0c0.2,0,0.4,0,0.7,0c0.1,0,0.3-0.1,0.3-0.2
			c0-0.2-0.2-0.2-0.3-0.2c-0.2,0-0.4,0-0.5,0c-2.2,0-4.4,0-6.5,0c-0.3,0-0.5,0-0.8-0.1c-0.3-0.2-0.2-0.4-0.2-0.7c0-2.1,0-4.1,0-6.2
			c-0.1-0.2-0.3-0.3-0.5-0.3c-0.1,0-0.2,0.1-0.2,0.1c-0.3,0.1-0.6,0.1-0.9,0.1c-4.6,0-9.3,0-13.9,0c-0.3,0-0.7,0-1,0.1
			c-0.1,0-0.2,0.1-0.2,0.2c-0.2,0.3-0.1,0.6-0.1,0.9c0,2.3,0,4.6,0,6.9c0,0.7-0.1,0.8-0.8,0.8c-2.5,0-5,0-7.4,0
			c-0.3,0-0.6,0-0.8-0.3c-0.1-0.3-0.1-0.6-0.1-0.9c0-3.7,0-7.4,0-11.1c0-1,0-1.1-1-1.1c-2,0-3.9,0-5.9,0c-0.3,0-0.5-0.1-0.8,0.1
			c-0.2,0.3-0.2,0.6-0.2,0.9c0,2.2,0,4.4,0,6.6c0,1,0.1,2.1,0,3.1c0,0.1-0.1,0.1-0.1,0.2c-0.1,0-0.1,0.1-0.2,0.1
			c-0.2,0.1-0.2,0.5-0.6,0.5c-0.7,0-1.4,0.1-2.1-0.1c0-2.3,0-4.6,0-6.8c-0.3-0.3-0.6-0.2-1-0.2c-4,0-8.1,0-12.1,0
			c-0.2,0-0.5,0-0.7,0c-0.1,0-0.2,0.1-0.2,0.1c0,2.1,0,4.3,0,6.4c0,0.2,0,0.4-0.3,0.5c-4,0-8.1,0-12.1,0c-0.2,0-0.3,0-0.5,0
			c-0.4,0-0.5-0.2-0.5-0.5c0.1-1.9,0-3.8,0-5.7c0-0.7,0-0.7-0.7-0.7c-2.5,0-5,0-7.6,0c-0.2,0.1-0.3,0.2-0.3,0.4c0,1.3-0.4,2.7-0.2,4
			c0,0,0,0,0,0c-0.1,0.1,0,0.2-0.1,0.3c0,0.2,0,0.4-0.3,0.4c-2.1,0-4.2,0-6.3,0c-0.2,0-0.4,0-0.6-0.1v-14.1c0-0.1-0.1-0.2-0.2-0.2
			h-7.5c-0.1,0-0.2,0.1-0.2,0.2v4c0,0.1,0,0.2-0.1,0.3c0,0.3,0,0.7,0,1c0,3.2,0,6.4,0,9.6c0,0.2,0,0.4,0,0.6c0,0.2-0.1,0.3-0.3,0.3
			c-0.1,0-0.2-0.1-0.2-0.2v-9c0-0.1-0.1-0.2-0.2-0.2h-11c-0.1,0-0.2,0.1-0.2,0.2v9.4c0,0-0.1,0-0.1,0c-1.8,0-3.7,0-5.5,0
			c-0.3,0-0.6-0.1-0.8,0.2h-0.1c0-0.1-0.1-0.1-0.1-0.2v-4.5c0,0,0-0.1,0-0.1c0-0.3,0.1-0.5,0-0.8v-11.5c0-0.1-0.1-0.2-0.2-0.2h-8.7
			c-0.1,0-0.2,0.1-0.2,0.2v0.1c-0.1,0.1-0.1,0.3-0.1,0.5c0,0.2,0,0.4,0,0.6c0,5.3,0,10.6,0,15.9c0,0.3,0.1,0.7-0.2,0.9
			c-0.2,0.1-0.4,0.1-0.7,0.1c-1.8,0-3.7,0-5.5,0c-0.9,0-0.9-0.1-0.9-1c0-3.5,0-6.9,0-10.4c0-0.2,0-0.4,0-0.7
			c-0.1-0.5-0.3-0.7-0.9-0.7c-2.2,0.2-4.4,0.2-6.6,0c-0.8-0.1-1,0.1-1,0.7c0,1.9,0,3.8,0,5.8c0,0.3,0,0.1,0,0.4
			c-0.2,0.3-0.9,0.2-1.2,0.2c-2.3,0-3.2-0.1-5.5,0c-0.1,0-0.2,0-0.4,0c-0.2,0-0.7,0.1-0.9,0c-0.1-0.2-0.1-0.1-0.2-0.3
			c0-2.4,0-4.8-0.1-7.3c0-0.2,0-0.6,0-0.8c0-0.2-0.4-0.4-0.7-0.4c-1.5,0-3-0.1-4.5,0.1c-0.6,0-0.4,0.6-0.4,0.9l-0.2,14.5h0v3.1
			h291.3v-0.4c0-0.1,0-0.3,0-0.7C153,432.8,152.9,431.1,153,429.5z"/>
	</g>
	<g id="titulo_3_">
		<path id="XMLID_73_" class="st3" d="M-90.3,448.6h-54.4c-0.2,0-0.3-0.1-0.3-0.3l0,0c0-0.2,0.1-0.3,0.3-0.3h54.4
			c0.2,0,0.3,0.1,0.3,0.3l0,0C-90.1,448.5-90.2,448.6-90.3,448.6z"/>
		<g id="XMLID_48_">
			<path class="st3" d="M-77.7,451.4c-0.4,0.2-1.1,0.4-2,0.4c-2.2,0-3.8-1.4-3.8-3.9c0-2.4,1.6-4,4-4c1,0,1.6,0.2,1.8,0.3l-0.2,0.8
				c-0.4-0.2-0.9-0.3-1.6-0.3c-1.8,0-3,1.2-3,3.2c0,1.9,1.1,3.1,3,3.1c0.6,0,1.2-0.1,1.6-0.3L-77.7,451.4z"/>
			<path class="st3" d="M-76.1,449.1c0,1.4,0.9,1.9,1.9,1.9c0.7,0,1.2-0.1,1.5-0.3l0.2,0.7c-0.4,0.2-1,0.3-1.8,0.3
				c-1.7,0-2.7-1.1-2.7-2.8s1-3,2.6-3c1.8,0,2.3,1.6,2.3,2.6c0,0.2,0,0.4,0,0.5H-76.1z M-73.1,448.4c0-0.6-0.3-1.6-1.4-1.6
				c-1,0-1.5,0.9-1.5,1.6H-73.1z"/>
			<path class="st3" d="M-70.9,447.9c0-0.6,0-1.2,0-1.7h0.9l0,1.1h0c0.3-0.7,0.9-1.2,1.5-1.2c0.1,0,0.2,0,0.3,0v0.9
				c-0.1,0-0.2,0-0.3,0c-0.7,0-1.2,0.5-1.3,1.3c0,0.1,0,0.3,0,0.5v2.9h-1V447.9z"/>
			<path class="st3" d="M-67.1,447.9c0-0.6,0-1.2,0-1.7h0.9l0,1.1h0c0.3-0.7,0.9-1.2,1.5-1.2c0.1,0,0.2,0,0.3,0v0.9
				c-0.1,0-0.2,0-0.3,0c-0.7,0-1.2,0.5-1.3,1.3c0,0.1,0,0.3,0,0.5v2.9h-1V447.9z"/>
			<path class="st3" d="M-58.5,448.9c0,2-1.4,2.9-2.7,2.9c-1.5,0-2.6-1.1-2.6-2.8c0-1.8,1.2-2.9,2.7-2.9
				C-59.6,446-58.5,447.2-58.5,448.9z M-62.9,448.9c0,1.2,0.7,2.1,1.7,2.1c1,0,1.7-0.9,1.7-2.1c0-0.9-0.5-2.1-1.7-2.1
				S-62.9,447.9-62.9,448.9z"/>
			<path class="st3" d="M-54.3,449.1c0,1.4,0.9,1.9,1.9,1.9c0.7,0,1.2-0.1,1.5-0.3l0.2,0.7c-0.4,0.2-1,0.3-1.8,0.3
				c-1.7,0-2.7-1.1-2.7-2.8s1-3,2.6-3c1.8,0,2.3,1.6,2.3,2.6c0,0.2,0,0.4,0,0.5H-54.3z M-51.4,448.4c0-0.6-0.3-1.6-1.4-1.6
				c-1,0-1.5,0.9-1.5,1.6H-51.4z"/>
			<path class="st3" d="M-49.1,443.6h1v8.1h-1V443.6z"/>
			<path class="st3" d="M-42.8,449.2l-0.8,2.4h-1l2.6-7.7h1.2l2.6,7.7h-1.1l-0.8-2.4H-42.8z M-40.2,448.5l-0.8-2.2
				c-0.2-0.5-0.3-1-0.4-1.4h0c-0.1,0.5-0.2,0.9-0.4,1.4l-0.8,2.2H-40.2z M-39.7,442.2l-1.4,1.3H-42l1.1-1.3H-39.7z"/>
			<path class="st3" d="M-36.9,446.1l1.1,3.1c0.2,0.5,0.3,1,0.4,1.4h0c0.1-0.5,0.3-0.9,0.5-1.4l1.1-3.1h1l-2.2,5.5h-1l-2.1-5.5
				H-36.9z"/>
			<path class="st3" d="M-30.7,444.6c0,0.3-0.2,0.6-0.6,0.6c-0.4,0-0.6-0.3-0.6-0.6c0-0.4,0.3-0.6,0.6-0.6
				C-30.9,444-30.7,444.2-30.7,444.6z M-31.8,451.7v-5.5h1v5.5H-31.8z"/>
			<path class="st3" d="M-29.1,443.6h1v8.1h-1V443.6z"/>
			<path class="st3" d="M-23.4,451.7l-0.1-0.7h0c-0.3,0.4-0.9,0.8-1.7,0.8c-1.1,0-1.7-0.8-1.7-1.6c0-1.3,1.2-2.1,3.3-2.1V448
				c0-0.5-0.1-1.3-1.3-1.3c-0.5,0-1,0.2-1.4,0.4l-0.2-0.7c0.5-0.3,1.1-0.5,1.8-0.5c1.7,0,2.1,1.2,2.1,2.3v2.1c0,0.5,0,0.9,0.1,1.3
				H-23.4z M-23.5,448.9c-1.1,0-2.3,0.2-2.3,1.2c0,0.7,0.4,1,0.9,1c0.7,0,1.2-0.5,1.3-0.9c0-0.1,0.1-0.2,0.1-0.3V448.9z"/>
			<path class="st3" d="M-16.2,448.2v0.7H-19v-0.7H-16.2z"/>
			<path class="st3" d="M-7.2,451.4c-0.4,0.2-1.1,0.4-2,0.4c-2.2,0-3.8-1.4-3.8-3.9c0-2.4,1.6-4,4-4c1,0,1.6,0.2,1.8,0.3l-0.2,0.8
				c-0.4-0.2-0.9-0.3-1.6-0.3c-1.8,0-3,1.2-3,3.2c0,1.9,1.1,3.1,3,3.1c0.6,0,1.2-0.1,1.6-0.3L-7.2,451.4z"/>
			<path class="st3" d="M-3,451.7l-0.1-0.7h0c-0.3,0.4-0.9,0.8-1.7,0.8c-1.1,0-1.7-0.8-1.7-1.6c0-1.3,1.2-2.1,3.3-2.1V448
				c0-0.5-0.1-1.3-1.3-1.3c-0.5,0-1,0.2-1.4,0.4l-0.2-0.7c0.5-0.3,1.1-0.5,1.8-0.5c1.7,0,2.1,1.2,2.1,2.3v2.1c0,0.5,0,0.9,0.1,1.3
				H-3z M-3.2,448.9c-1.1,0-2.3,0.2-2.3,1.2c0,0.7,0.4,1,0.9,1c0.7,0,1.2-0.5,1.3-0.9c0-0.1,0.1-0.2,0.1-0.3V448.9z"/>
			<path class="st3" d="M-0.6,447.9c0-0.6,0-1.2,0-1.7h0.9l0,1.1h0c0.3-0.7,0.9-1.2,1.5-1.2c0.1,0,0.2,0,0.3,0v0.9
				c-0.1,0-0.2,0-0.3,0c-0.7,0-1.2,0.5-1.3,1.3c0,0.1,0,0.3,0,0.5v2.9h-1V447.9z"/>
			<path class="st3" d="M6.1,451.7L6.1,451h0c-0.3,0.4-0.9,0.8-1.7,0.8c-1.1,0-1.7-0.8-1.7-1.6c0-1.3,1.2-2.1,3.3-2.1V448
				c0-0.5-0.1-1.3-1.3-1.3c-0.5,0-1,0.2-1.4,0.4l-0.2-0.7c0.5-0.3,1.1-0.5,1.8-0.5c1.7,0,2.1,1.2,2.1,2.3v2.1c0,0.5,0,0.9,0.1,1.3
				H6.1z M6,448.9c-1.1,0-2.3,0.2-2.3,1.2c0,0.7,0.4,1,0.9,1c0.7,0,1.2-0.5,1.3-0.9c0-0.1,0.1-0.2,0.1-0.3V448.9z"/>
			<path class="st3" d="M12.5,451.5c-0.3,0.1-0.8,0.3-1.6,0.3c-1.7,0-2.7-1.1-2.7-2.8c0-1.7,1.2-2.9,3-2.9c0.6,0,1.1,0.1,1.4,0.3
				l-0.2,0.8c-0.2-0.1-0.6-0.3-1.2-0.3c-1.3,0-1.9,0.9-1.9,2.1c0,1.3,0.8,2.1,1.9,2.1c0.6,0,0.9-0.1,1.2-0.3L12.5,451.5z"/>
			<path class="st3" d="M16.7,451.7l-0.1-0.7h0c-0.3,0.4-0.9,0.8-1.7,0.8c-1.1,0-1.7-0.8-1.7-1.6c0-1.3,1.2-2.1,3.3-2.1V448
				c0-0.5-0.1-1.3-1.3-1.3c-0.5,0-1,0.2-1.4,0.4l-0.2-0.7c0.5-0.3,1.1-0.5,1.8-0.5c1.7,0,2.1,1.2,2.1,2.3v2.1c0,0.5,0,0.9,0.1,1.3
				H16.7z M16.6,448.9c-1.1,0-2.3,0.2-2.3,1.2c0,0.7,0.4,1,0.9,1c0.7,0,1.2-0.5,1.3-0.9c0-0.1,0.1-0.2,0.1-0.3V448.9z"/>
			<path class="st3" d="M19.1,450.6c0.3,0.2,0.8,0.4,1.3,0.4c0.7,0,1.1-0.4,1.1-0.8c0-0.5-0.3-0.7-1-1c-1-0.4-1.5-0.9-1.5-1.6
				c0-0.9,0.7-1.6,1.9-1.6c0.6,0,1,0.2,1.4,0.3l-0.3,0.7c-0.2-0.1-0.6-0.3-1.1-0.3c-0.6,0-0.9,0.3-0.9,0.8c0,0.5,0.3,0.7,1,0.9
				c1,0.4,1.4,0.8,1.4,1.7c0,1-0.8,1.7-2.1,1.7c-0.6,0-1.2-0.1-1.6-0.4L19.1,450.6z"/>
			<path class="st3" d="M28.4,448.2v0.7h-2.8v-0.7H28.4z"/>
			<path class="st3" d="M31.7,451.7v-0.6l0.8-0.8c1.9-1.8,2.7-2.8,2.8-3.9c0-0.8-0.4-1.4-1.5-1.4c-0.7,0-1.2,0.3-1.6,0.6l-0.3-0.7
				c0.5-0.4,1.2-0.8,2.1-0.8c1.6,0,2.3,1.1,2.3,2.2c0,1.4-1,2.5-2.6,4l-0.6,0.5v0h3.3v0.8H31.7z"/>
			<path class="st3" d="M37.7,451.1c0-0.4,0.3-0.7,0.7-0.7c0.4,0,0.7,0.3,0.7,0.7c0,0.4-0.3,0.7-0.7,0.7
				C37.9,451.8,37.7,451.5,37.7,451.1z"/>
			<path class="st3" d="M44.7,444.3v0.7l-3.2,6.7h-1l3.2-6.6v0h-3.6v-0.8H44.7z"/>
			<path class="st3" d="M50,445c-0.2,0-0.5,0-0.8,0c-1.6,0.3-2.4,1.4-2.6,2.6h0c0.4-0.5,1-0.9,1.8-0.9c1.3,0,2.2,0.9,2.2,2.4
				c0,1.4-0.9,2.6-2.5,2.6c-1.6,0-2.6-1.2-2.6-3.2c0-1.5,0.5-2.6,1.3-3.3c0.6-0.6,1.4-1,2.4-1.1c0.3,0,0.5-0.1,0.7-0.1V445z
				 M49.7,449.2c0-1.1-0.6-1.7-1.5-1.7c-0.6,0-1.2,0.4-1.4,0.9c-0.1,0.1-0.1,0.3-0.1,0.4c0,1.2,0.6,2.1,1.6,2.1
				C49.1,451,49.7,450.3,49.7,449.2z"/>
			<path class="st3" d="M56.1,445.1h-2.8l-0.3,1.9c0.2,0,0.3,0,0.6,0c0.6,0,1.1,0.1,1.6,0.4c0.6,0.3,1.1,1,1.1,1.9
				c0,1.4-1.2,2.5-2.8,2.5c-0.8,0-1.5-0.2-1.8-0.5l0.3-0.8c0.3,0.2,0.9,0.4,1.6,0.4c0.9,0,1.8-0.6,1.8-1.6c0-1-0.6-1.6-2.1-1.6
				c-0.4,0-0.8,0-1,0.1l0.5-3.6h3.5V445.1z"/>
			<path class="st3" d="M60.2,447.6c0-0.6,0-1,0-1.5h0.9l0,0.9h0c0.3-0.5,0.8-1,1.7-1c0.8,0,1.3,0.5,1.6,1.1h0
				c0.2-0.3,0.4-0.5,0.6-0.7c0.3-0.3,0.7-0.4,1.2-0.4c0.7,0,1.8,0.5,1.8,2.4v3.2h-1v-3.1c0-1.1-0.4-1.7-1.2-1.7
				c-0.6,0-1,0.4-1.2,0.9c0,0.1-0.1,0.3-0.1,0.5v3.4h-1v-3.3c0-0.9-0.4-1.5-1.2-1.5c-0.6,0-1.1,0.5-1.2,1c-0.1,0.1-0.1,0.3-0.1,0.5
				v3.3h-1V447.6z"/>
			<path class="st3" d="M69.6,450.6c0.3,0.2,0.8,0.4,1.3,0.4c0.7,0,1.1-0.4,1.1-0.8c0-0.5-0.3-0.7-1-1c-1-0.4-1.5-0.9-1.5-1.6
				c0-0.9,0.7-1.6,1.9-1.6c0.6,0,1,0.2,1.4,0.3l-0.3,0.7c-0.2-0.1-0.6-0.3-1.1-0.3c-0.6,0-0.9,0.3-0.9,0.8c0,0.5,0.3,0.7,1,0.9
				c1,0.4,1.4,0.8,1.4,1.7c0,1-0.8,1.7-2.1,1.7c-0.6,0-1.2-0.1-1.6-0.4L69.6,450.6z"/>
			<path class="st3" d="M74.2,447.6c0-0.6,0-1,0-1.5h0.9l0.1,0.9h0c0.3-0.5,0.9-1,1.8-1c0.8,0,1.9,0.5,1.9,2.3v3.3h-1v-3.2
				c0-0.9-0.3-1.6-1.3-1.6c-0.7,0-1.2,0.5-1.3,1c0,0.1-0.1,0.3-0.1,0.5v3.3h-1V447.6z"/>
			<path class="st3" d="M80.6,447.6c0-0.6,0-1,0-1.5h0.9l0,0.9h0c0.3-0.5,0.8-1,1.7-1c0.8,0,1.3,0.5,1.6,1.1h0
				c0.2-0.3,0.4-0.5,0.6-0.7c0.3-0.3,0.7-0.4,1.2-0.4c0.7,0,1.8,0.5,1.8,2.4v3.2h-1v-3.1c0-1.1-0.4-1.7-1.2-1.7
				c-0.6,0-1,0.4-1.2,0.9c0,0.1-0.1,0.3-0.1,0.5v3.4h-1v-3.3c0-0.9-0.4-1.5-1.2-1.5c-0.6,0-1.1,0.5-1.2,1c-0.1,0.1-0.1,0.3-0.1,0.5
				v3.3h-1V447.6z"/>
		</g>
		<path id="XMLID_12_" class="st3" d="M150,448.6H94.9c-0.2,0-0.3-0.1-0.3-0.3l0,0c0-0.2,0.1-0.3,0.3-0.3H150c0.2,0,0.3,0.1,0.3,0.3
			l0,0C150.3,448.5,150.2,448.6,150,448.6z"/>
	</g>
</g>
</svg>
