<?xml version="1.0" encoding="utf-8"?>
<!-- Generator: Adobe Illustrator 19.0.0, SVG Export Plug-In . SVG Version: 6.00 Build 0)  -->
<svg version="1.1" id="Capa_1" xmlns="http://www.w3.org/2000/svg" xmlns:xlink="http://www.w3.org/1999/xlink" x="0px" y="0px"
	 viewBox="-147 380.9 300 80" style="enable-background:new -147 380.9 300 80;" xml:space="preserve">
<style type="text/css">
	.st0{fill:#004E73;}
	.st1{fill:#A3BCCB;}
</style>
<g id="Pico_Bolívar">
	<path id="XMLID_37_" class="st0" d="M153,429.2c-3.4-2.6-6.8-5.3-10.3-7.9c-0.2-0.2-0.5-0.3-0.8-0.3c-6-1-12.1-2-18.1-3.2
		c-3.5-0.7-7.1-1.4-10.5-2.4c-0.9-0.3-1.8-0.5-2.5-1.2c-0.9-1-1.9-2-2.8-3.1c-1.4-1.5-2.7-3.1-4.1-4.7c0,0.2-0.1,0.2-0.1,0.3
		c-0.4,2.1-0.8,4.2-0.9,6.3c0,0.7-0.3,0.8-0.9,0.8c-1.4-0.1-2.8-0.4-4.2-0.7c-5-1.2-9.9-2.8-14.8-4.5c-4.2-1.4-8.5-2.7-12.5-4.6
		c-2.9-1.3-5.8-2.3-8.9-3.2c-0.3-0.1-0.6-0.1-0.9,0c-1.3,0.4-2.7,0.8-4,1.2c-0.4,0.1-0.8,0.1-1.2-0.1c-1.5-0.7-3-1.3-4.5-2.1
		c-0.4-0.2-0.6-0.2-0.9,0.2c-1.1,1.6-2.3,3.1-3.4,4.6c-0.3,0.4-0.5,0.5-1,0.4c-3.2-0.8-6.4-1.6-9.5-2.6c-1.6-0.5-3.1-1-4.6-1.9
		c-0.3-0.2-0.7-0.4-0.7-0.7c0-0.9-0.7-1.2-1.3-1.6c-2.9-1.3-6-1.9-9-2.7c-1.4-0.3-2.8-0.4-4.1-1c-1.5-0.7-2.9-1.4-4.3-2.1
		c-0.2-0.1-0.4-0.3-0.6-0.4c-1.6-1.8-3.1-3.7-4.7-5.5c-0.4-0.4-0.6-0.9-1.1-1.2c0.1,1.1,0.2,2.1,0.2,3.1c0,1.6,0.3,3.2,0.1,4.8
		c-0.2,1.5-0.5,3.1-0.8,4.6c0,0.2,0,0.4-0.2,0.4c-0.2,0-0.3-0.2-0.4-0.3c-1-1.2-2-2.4-3-3.6c-0.5-0.6-0.9-1.3-1.6-1.7
		c-1.2-0.7-2.5-1.4-3.7-2.1c-0.3-0.1-0.5-0.2-0.8,0c-1.6,1-3.3,1.9-4.9,2.8c-2.4,1.4-4.8,2.9-7.5,3.7c-1.4,0.4-2.7,0.9-4,1.6
		c-4.1,1.9-8.1,3.8-12.1,5.8c-0.3,0.1-0.6,0.2-0.9,0.1c-1.6-0.3-3.1-0.7-4.7-1c-0.8-0.1-1.7-0.6-2.6-0.3c-1.2,0.4-2.3,0.7-3.5,1.1
		c-6.5,2-13,4-19.6,5.8c-4.6,1.3-9.2,2-14.1,1.4c-3.5-0.5-7.1-0.1-10.5,0.9c-3.8,1.1-7.4,2.6-11,4.3c-0.5,0.2-0.7,0.2-1.1-0.2
		c-0.6-0.8-1.4-1.5-2-2.3c-0.4-0.6-0.9-0.7-1.6-0.5c-3.4,1-6.8,1.8-10.3,2.4c-1.5,0.3-3.1,0.2-4.6,0.8c-2,0.7-3.9,1.6-5.8,2.6
		c-7.5,3.9-14.7,8.3-21.8,12.8c0,0.3,0,0.6,0,0.9c0,1.2,0,2.5,0,3.7c0,0.9,0,0.9,0.9,0.9c99.4,0,198.7,0,298.1,0c0.1,0,0.3,0,0.4,0
		c0.5,0.1,0.6-0.1,0.6-0.6C153,434.5,153,431.9,153,429.2z"/>
	<g id="XMLID_1_">
		<path id="XMLID_38_" class="st1" d="M17.3,396.7c-1.7-0.2-3.4-0.4-5.1-0.5c-0.3,0-0.5-0.1-0.7-0.4c-0.5-0.9-1-1.7-1.5-2.6
			c-0.8-1.3-1.6-2.7-2.4-4.1c-0.1,0.1-0.1,0.1-0.1,0.2c0,2.8,0,5.7,0,8.5c0,0.3,0.1,0.5,0.3,0.7c0.9,1,1.8,1.9,2.7,2.9
			c1.5,1.6,3,3.3,4.6,4.9c0.2-0.1,0.2-0.3,0.2-0.4c0.9-2.8,1.7-5.6,2.6-8.4C18,396.8,17.8,396.7,17.3,396.7z"/>
		<path id="XMLID_45_" class="st1" d="M11.3,405.7c0-0.3-0.1-0.5-0.4-0.6c-0.7-0.5-1.4-1-2.2-1.5c-1.3-0.9-2.8-1.7-4-2.8
			c-2.1-1.8-4-3.7-6-5.6c-0.8-0.8-1.6-1.5-2.6-2.4c0.5,3.1,1.1,6.1,1.6,9c0.1,0.3,0.3,0.4,0.5,0.5c1.4,0.6,2.7,1.4,4.1,1.9
			c1.7,0.6,2.7,1.7,3.4,3.3c1.2,2.8,2.5,5.5,4.1,8.1c0.2,0.3,0.3,0.7,0.6,0.6c0.3-0.1,0.2-0.5,0.2-0.8C11,412.2,11.2,409,11.3,405.7
			z"/>
		<path id="XMLID_46_" class="st1" d="M-11.5,398.4c-0.2,0.2-0.5,0.4-0.8,0.5c-3.8,1.4-7.7,2.9-11.5,4.3c-0.4,0.2-0.7,0.4-0.8,0.8
			c-1,2.7-1.9,5.4-2.9,8.1c-0.6,1.8-1.3,3.6-1.9,5.4c0,0,0.1,0,0.1,0.1c0.1-0.1,0.2-0.2,0.3-0.3c3.5-3.4,6.9-6.8,10.4-10.2
			c0.3-0.3,0.7-0.6,1.2-0.7c3.7-0.9,7.4-1.9,11-2.9c0.5-0.1,0.6-0.3,0.6-0.8c0.1-2.8,0.1-5.7,0.2-8.5c0-0.7,0-1.3,0-2.1
			C-7.6,394.3-9.6,396.4-11.5,398.4z"/>
		<path id="XMLID_47_" class="st1" d="M-40.6,405.4c-3.3,1.4-6.6,2.9-9.8,4.3c0,0.3,0.3,0.1,0.4,0.3c2.4,0.1,4.7,0.3,7.1,0.4
			c3.5,0.2,6.9,0.3,10.4,0.5c0.3,0,0.7,0,1.2,0c-3-1.9-5.8-3.6-8.6-5.4C-40.2,405.3-40.4,405.3-40.6,405.4z"/>
	</g>
	<g id="titulo_4_">
		<path id="XMLID_82_" class="st0" d="M-86.9,450.6h-59.8c-0.2,0-0.3-0.1-0.3-0.3v0c0-0.2,0.1-0.3,0.3-0.3h59.8
			c0.2,0,0.3,0.1,0.3,0.3v0C-86.6,450.5-86.7,450.6-86.9,450.6z"/>
		<g id="XMLID_83_">
			<path class="st0" d="M-79.8,446c0.5-0.1,1.1-0.1,1.9-0.1c1,0,1.7,0.2,2.2,0.6c0.4,0.4,0.7,0.9,0.7,1.6c0,0.7-0.2,1.3-0.6,1.7
				c-0.5,0.6-1.4,0.8-2.4,0.8c-0.3,0-0.6,0-0.8-0.1v3.1h-1V446z M-78.8,449.7c0.2,0.1,0.5,0.1,0.8,0.1c1.2,0,1.9-0.6,1.9-1.7
				c0-1-0.7-1.5-1.8-1.5c-0.4,0-0.8,0-0.9,0.1V449.7z"/>
			<path class="st0" d="M-72.8,446.5c0,0.3-0.2,0.6-0.6,0.6c-0.4,0-0.6-0.3-0.6-0.6c0-0.4,0.3-0.6,0.6-0.6
				C-73,445.9-72.8,446.2-72.8,446.5z M-73.9,453.6v-5.6h1v5.6H-73.9z"/>
			<path class="st0" d="M-67.3,453.4c-0.3,0.1-0.8,0.3-1.6,0.3c-1.7,0-2.8-1.1-2.8-2.8c0-1.7,1.2-2.9,3-2.9c0.6,0,1.1,0.1,1.4,0.3
				l-0.2,0.8c-0.2-0.1-0.6-0.3-1.2-0.3c-1.3,0-2,0.9-2,2.1c0,1.3,0.8,2.1,1.9,2.1c0.6,0,1-0.1,1.2-0.3L-67.3,453.4z"/>
			<path class="st0" d="M-61.1,450.8c0,2.1-1.4,2.9-2.8,2.9c-1.5,0-2.7-1.1-2.7-2.9c0-1.9,1.2-2.9,2.8-2.9
				C-62.2,448-61.1,449.1-61.1,450.8z M-65.5,450.9c0,1.2,0.7,2.1,1.7,2.1c1,0,1.7-0.9,1.7-2.2c0-0.9-0.5-2.1-1.7-2.1
				S-65.5,449.8-65.5,450.9z"/>
			<path class="st0" d="M-57.4,446c0.4-0.1,1.1-0.2,1.8-0.2c1,0,1.6,0.2,2.1,0.6c0.4,0.3,0.6,0.8,0.6,1.4c0,0.7-0.5,1.4-1.3,1.7v0
				c0.7,0.2,1.6,0.8,1.6,1.9c0,0.7-0.3,1.2-0.7,1.5c-0.5,0.5-1.4,0.7-2.7,0.7c-0.7,0-1.2,0-1.5-0.1V446z M-56.4,449.2h0.9
				c1.1,0,1.7-0.6,1.7-1.3c0-0.9-0.7-1.3-1.7-1.3c-0.5,0-0.7,0-0.9,0.1V449.2z M-56.4,452.9c0.2,0,0.5,0,0.8,0c1,0,2-0.4,2-1.5
				c0-1.1-0.9-1.5-2-1.5h-0.8V452.9z"/>
			<path class="st0" d="M-46.1,450.8c0,2.1-1.4,2.9-2.8,2.9c-1.5,0-2.7-1.1-2.7-2.9c0-1.9,1.2-2.9,2.8-2.9
				C-47.2,448-46.1,449.1-46.1,450.8z M-50.5,450.9c0,1.2,0.7,2.1,1.7,2.1c1,0,1.7-0.9,1.7-2.2c0-0.9-0.5-2.1-1.7-2.1
				S-50.5,449.8-50.5,450.9z"/>
			<path class="st0" d="M-44.9,445.5h1v8.1h-1V445.5z"/>
			<path class="st0" d="M-40.1,445.7l-1.4,1.6h-0.7l1-1.6H-40.1z M-42.2,453.6v-5.6h1v5.6H-42.2z"/>
			<path class="st0" d="M-39.1,448.1l1.1,3.1c0.2,0.5,0.3,1,0.4,1.4h0c0.1-0.5,0.3-0.9,0.5-1.4l1.1-3.1h1.1l-2.2,5.6h-1l-2.1-5.6
				H-39.1z"/>
			<path class="st0" d="M-30.9,453.6l-0.1-0.7h0c-0.3,0.4-0.9,0.8-1.7,0.8c-1.1,0-1.7-0.8-1.7-1.6c0-1.3,1.2-2.1,3.3-2.1V450
				c0-0.5-0.1-1.3-1.3-1.3c-0.5,0-1.1,0.2-1.4,0.4l-0.2-0.7c0.5-0.3,1.1-0.5,1.8-0.5c1.7,0,2.1,1.2,2.1,2.3v2.1c0,0.5,0,1,0.1,1.3
				H-30.9z M-31.1,450.8c-1.1,0-2.4,0.2-2.4,1.3c0,0.7,0.4,1,1,1c0.7,0,1.2-0.5,1.3-0.9c0-0.1,0.1-0.2,0.1-0.3V450.8z"/>
			<path class="st0" d="M-28.5,449.8c0-0.7,0-1.2,0-1.7h0.9l0,1.1h0c0.3-0.7,0.9-1.2,1.5-1.2c0.1,0,0.2,0,0.3,0v1
				c-0.1,0-0.2,0-0.3,0c-0.7,0-1.2,0.5-1.4,1.3c0,0.1,0,0.3,0,0.5v3h-1V449.8z"/>
			<path class="st0" d="M-20,450.2v0.7h-2.8v-0.7H-20z"/>
			<path class="st0" d="M-9.8,450.3c-0.1-1.1-0.1-2.4-0.1-3.3h0c-0.3,0.9-0.6,1.9-1,2.9l-1.4,3.8H-13l-1.3-3.7
				c-0.4-1.1-0.7-2.1-0.9-3h0c0,1-0.1,2.3-0.1,3.4l-0.2,3.3h-1l0.5-7.7h1.3l1.3,3.7c0.3,1,0.6,1.8,0.8,2.6h0
				c0.2-0.8,0.5-1.6,0.8-2.6l1.4-3.7h1.3l0.5,7.7h-1L-9.8,450.3z"/>
			<path class="st0" d="M-6.5,451.1c0,1.4,0.9,1.9,1.9,1.9c0.7,0,1.2-0.1,1.5-0.3l0.2,0.7c-0.4,0.2-1,0.3-1.8,0.3
				c-1.7,0-2.7-1.1-2.7-2.8c0-1.7,1-3,2.6-3c1.8,0,2.3,1.6,2.3,2.6c0,0.2,0,0.4,0,0.5H-6.5z M-3.5,450.3c0-0.6-0.3-1.6-1.4-1.6
				c-1,0-1.5,0.9-1.5,1.6H-3.5z M-3.3,445.7l-1.4,1.6h-0.7l1-1.6H-3.3z"/>
			<path class="st0" d="M-1.3,449.8c0-0.7,0-1.2,0-1.7h0.9l0,1.1h0c0.3-0.7,0.9-1.2,1.5-1.2c0.1,0,0.2,0,0.3,0v1c-0.1,0-0.2,0-0.3,0
				c-0.7,0-1.2,0.5-1.4,1.3c0,0.1,0,0.3,0,0.5v3h-1V449.8z"/>
			<path class="st0" d="M3.6,446.5c0,0.3-0.2,0.6-0.6,0.6c-0.4,0-0.6-0.3-0.6-0.6c0-0.4,0.3-0.6,0.6-0.6
				C3.4,445.9,3.6,446.2,3.6,446.5z M2.5,453.6v-5.6h1v5.6H2.5z"/>
			<path class="st0" d="M10,445.5v6.7c0,0.5,0,1.1,0,1.4H9.1l0-1h0c-0.3,0.6-1,1.1-1.9,1.1c-1.3,0-2.4-1.1-2.4-2.8
				c0-1.8,1.1-3,2.5-3c0.8,0,1.4,0.4,1.7,0.8h0v-3.3H10z M9,450.4c0-0.1,0-0.3,0-0.4c-0.1-0.6-0.7-1.2-1.5-1.2c-1,0-1.7,0.9-1.7,2.1
				c0,1.1,0.6,2.1,1.6,2.1c0.7,0,1.3-0.4,1.5-1.2c0-0.1,0-0.3,0-0.4V450.4z"/>
			<path class="st0" d="M14.7,453.6l-0.1-0.7h0c-0.3,0.4-0.9,0.8-1.7,0.8c-1.1,0-1.7-0.8-1.7-1.6c0-1.3,1.2-2.1,3.3-2.1V450
				c0-0.5-0.1-1.3-1.3-1.3c-0.5,0-1.1,0.2-1.4,0.4l-0.2-0.7c0.5-0.3,1.1-0.5,1.8-0.5c1.7,0,2.1,1.2,2.1,2.3v2.1c0,0.5,0,1,0.1,1.3
				H14.7z M14.6,450.8c-1.1,0-2.4,0.2-2.4,1.3c0,0.7,0.4,1,1,1c0.7,0,1.2-0.5,1.3-0.9c0-0.1,0.1-0.2,0.1-0.3V450.8z"/>
			<path class="st0" d="M21.9,450.2v0.7h-2.8v-0.7H21.9z"/>
			<path class="st0" d="M28.4,453.6v-2h-3.5V451l3.3-4.8h1.1v4.6h1v0.8h-1v2H28.4z M28.4,450.8v-2.5c0-0.4,0-0.8,0-1.2h0
				c-0.2,0.4-0.4,0.8-0.6,1.1l-1.8,2.5v0H28.4z"/>
			<path class="st0" d="M31.2,453.1c0-0.4,0.3-0.7,0.7-0.7s0.7,0.3,0.7,0.7c0,0.4-0.3,0.7-0.7,0.7C31.5,453.8,31.2,453.5,31.2,453.1
				z"/>
			<path class="st0" d="M38.3,446.2v0.7l-3.2,6.8h-1l3.2-6.6v0h-3.6v-0.8H38.3z"/>
			<path class="st0" d="M43.6,446.9c-0.2,0-0.5,0-0.8,0c-1.6,0.3-2.4,1.4-2.6,2.7h0c0.4-0.5,1-0.9,1.8-0.9c1.3,0,2.2,1,2.2,2.4
				c0,1.4-0.9,2.6-2.5,2.6c-1.6,0-2.6-1.2-2.6-3.2c0-1.5,0.5-2.6,1.3-3.4c0.6-0.6,1.4-1,2.4-1.1c0.3,0,0.6-0.1,0.7-0.1V446.9z
				 M43.4,451.2c0-1.1-0.6-1.7-1.5-1.7c-0.6,0-1.2,0.4-1.4,0.9c-0.1,0.1-0.1,0.3-0.1,0.4c0,1.2,0.6,2.1,1.6,2.1
				C42.8,453,43.4,452.3,43.4,451.2z"/>
			<path class="st0" d="M49.7,447h-2.8l-0.3,1.9c0.2,0,0.3,0,0.6,0c0.6,0,1.1,0.1,1.6,0.4c0.6,0.3,1.1,1,1.1,1.9
				c0,1.5-1.2,2.5-2.8,2.5c-0.8,0-1.5-0.2-1.9-0.5l0.3-0.8c0.3,0.2,0.9,0.4,1.6,0.4c1,0,1.8-0.6,1.8-1.6c0-1-0.7-1.7-2.1-1.7
				c-0.4,0-0.8,0-1,0.1l0.5-3.6h3.6V447z"/>
			<path class="st0" d="M53.9,449.6c0-0.6,0-1,0-1.5h0.9l0,0.9h0c0.3-0.5,0.8-1,1.7-1c0.8,0,1.3,0.5,1.6,1.1h0
				c0.2-0.3,0.4-0.6,0.6-0.7c0.3-0.3,0.7-0.4,1.2-0.4c0.7,0,1.8,0.5,1.8,2.4v3.3h-1v-3.1c0-1.1-0.4-1.7-1.2-1.7
				c-0.6,0-1,0.4-1.2,0.9c0,0.1-0.1,0.3-0.1,0.5v3.4h-1v-3.3c0-0.9-0.4-1.5-1.2-1.5c-0.6,0-1.1,0.5-1.3,1c-0.1,0.1-0.1,0.3-0.1,0.5
				v3.4h-1V449.6z"/>
			<path class="st0" d="M63.3,452.6c0.3,0.2,0.8,0.4,1.3,0.4c0.7,0,1.1-0.4,1.1-0.8c0-0.5-0.3-0.7-1-1c-1-0.4-1.5-0.9-1.5-1.6
				c0-0.9,0.7-1.6,1.9-1.6c0.6,0,1.1,0.2,1.4,0.3l-0.3,0.7c-0.2-0.1-0.6-0.3-1.1-0.3c-0.6,0-0.9,0.3-0.9,0.8c0,0.5,0.3,0.7,1.1,0.9
				c1,0.4,1.5,0.8,1.5,1.7c0,1-0.8,1.7-2.1,1.7c-0.6,0-1.2-0.1-1.6-0.4L63.3,452.6z"/>
			<path class="st0" d="M68,449.6c0-0.6,0-1,0-1.5h0.9l0.1,0.9h0c0.3-0.5,0.9-1,1.8-1c0.8,0,2,0.5,2,2.4v3.3h-1v-3.2
				c0-0.9-0.3-1.6-1.3-1.6c-0.7,0-1.2,0.5-1.4,1c0,0.1-0.1,0.3-0.1,0.5v3.3h-1V449.6z"/>
			<path class="st0" d="M74.4,449.6c0-0.6,0-1,0-1.5h0.9l0,0.9h0c0.3-0.5,0.8-1,1.7-1c0.8,0,1.3,0.5,1.6,1.1h0
				c0.2-0.3,0.4-0.6,0.6-0.7c0.3-0.3,0.7-0.4,1.2-0.4c0.7,0,1.8,0.5,1.8,2.4v3.3h-1v-3.1c0-1.1-0.4-1.7-1.2-1.7
				c-0.6,0-1,0.4-1.2,0.9c0,0.1-0.1,0.3-0.1,0.5v3.4h-1v-3.3c0-0.9-0.4-1.5-1.2-1.5c-0.6,0-1.1,0.5-1.3,1c-0.1,0.1-0.1,0.3-0.1,0.5
				v3.4h-1V449.6z"/>
		</g>
		<path id="XMLID_86_" class="st0" d="M152.7,450.4H92.9c-0.2,0-0.3-0.1-0.3-0.3v0c0-0.2,0.1-0.3,0.3-0.3h59.8
			c0.2,0,0.3,0.1,0.3,0.3v0C153,450.3,152.9,450.4,152.7,450.4z"/>
	</g>
</g>
</svg>
