<?xml version="1.0" encoding="utf-8"?>
<!-- Generator: Adobe Illustrator 19.0.0, SVG Export Plug-In . SVG Version: 6.00 Build 0)  -->
<svg version="1.1" id="Capa_1" xmlns="http://www.w3.org/2000/svg" xmlns:xlink="http://www.w3.org/1999/xlink" x="0px" y="0px"
	 viewBox="0 0 300 80" style="enable-background:new 0 0 300 80;" xml:space="preserve">
<style type="text/css">
	.st0{fill:#8F603A;}
	.st1{fill:#768338;}
	.st2{fill:#BC9980;}
</style>
<g id="Roraima">
	<g id="XMLID_253_">
		<path id="XMLID_101_" class="st0" d="M191.1,10.6c-5.3,0.1-10.6,0.2-15.9,0.3c-5.8,0.1-11.6,0.2-17.4,0.3
			c-3.8,0.1-7.5,0.1-11.3,0.2c0,0.2,0.2,0.3,0.3,0.4c-0.1,0-0.2-0.1-0.3-0.2c-0.3-0.1-0.5-0.1-0.8-0.1c-2.3,0-4.6,0.1-6.9,0.1
			c-0.9,0-1.9-0.1-2.8,0c-2.7,0-5.4,0-8.1,0.1c-5.3,0.1-10.6,0.2-15.9,0.3 M209.2,10.4 M58.7,12.8c-0.3,0-0.5,0.1-0.7,0.2
			c-1.1,0.7-2.3,1.5-3.4,2.2c-0.4,0.3-0.6,0.2-0.8-0.2c-0.5-0.9-1.1-1.7-1.6-2.6c-0.2-0.3-0.4-0.5-0.8-0.4c-2,0.2-4,0.5-6,0.7
			c-0.3,0-0.4,0.2-0.4,0.4c-0.9,3-1.8,6-2.8,9.1c-1.1,3.6-2.2,7.2-3.3,10.8c-0.1,0.4-0.3,0.5-0.7,0.5c-1.3,0-2.6,0-3.9,0
			C34.4,34,34.8,34,35,34c1.5,0.3,3,0.6,4.5,0.9c5.2,1.2,10.4,2.5,15.5,4c2.7,0.8,5.4,1.5,8,2.5c4.4,1.6,9,2.4,13.7,2.6
			c2.8,0.1,5.6,0.2,8.4,0.2c1.9,0,3.8,0.1,5.7,0c2.6-0.2,5.3-0.1,7.9-0.4c1.8-0.2,3.7-0.2,5.5-0.4c1.6-0.2,3.2-0.3,4.7-0.4
			c2.6-0.2,5.1-0.5,7.7-0.6c1.6-0.1,3.3-0.4,4.9-0.6c4.2-0.3,8.3-0.9,12.4-1.3c4.1-0.5,8.3-1,12.4-1.5c2.5-0.3,4.9-0.5,7.4-0.9
			c3.9-0.6,7.9-1,11.9-1.5c1.8-0.3,3.5-0.4,5.3-0.6c2.9-0.3,5.8-0.7,8.8-1.1c5-0.6,10-1,15-1.5c2.7-0.2,5.4-0.4,8.1-0.4
			c5.2,0,10.4-0.1,15.6,0.1c1.7,0.1,3.3,0.1,5,0.2c1.1,0,2.3,0,3.4,0.1c2.5,0.2,4.9,0.4,7.4,0.4c0.5,0,1.1,0,1.6,0.1
			c2,0.3,4.1,0.3,6.1,0.4c2.2,0.1,4.3,0.3,6.5,0.5c2.1,0.1,4.1,0.4,6.2,0.5c1.9,0.1,3.9,0.4,5.8,0.5c1.7,0.1,3.5,0.3,5.2,0.4
			c0.4,0,0.7-0.1,1.1,0c0.1,0,0.1,0,0.2,0c0.7,0.1,1.4,0.1,2-0.2c1.3-0.8,2.6-1.7,3.9-2.5c0.2-0.2,0.7-0.3,0.4-0.7
			c-0.5-0.6-1.2-0.7-2-0.8c-1-0.1-2.1-0.3-3.1-0.4c-0.4-0.1-0.6-0.2-0.7-0.7c-1.3-7.2-2.7-14.3-4-21.5c-0.3,0-0.5,0-0.8,0
			c-0.4,0-0.8,0-1.2,0c-0.4,0-0.7,0-1.1,0c-0.7,0-1.4,0-2.1,0c-6.6,0.1-13.3,0.3-19.9,0.4c-7.5,0.1-14.9,0.2-22.4,0.3 M147.1,11.8
			c0.1,0,0.3-0.1,0.4-0.1C147.4,11.7,147.2,11.8,147.1,11.8z"/>
		<path id="XMLID_100_" class="st1" d="M0,51.2c0.2,0.5,0.6,0.3,0.9,0.3c99,0,198.1,0,297.1,0c0.3,0,0.7,0,1,0c0.7,0,1-0.4,0.9-1.1
			c-0.1-0.4,0-0.9,0-1.3c0-0.3-0.1-0.5-0.3-0.7c-3.2-3.4-6.5-6.7-9.7-10.1c-0.3-0.3-0.5-0.4-0.9-0.3c-2.6,0.2-5.2,0.4-7.8,0.6
			c-0.5,0-0.9-0.1-1.3-0.4c-2.3-1.7-4.6-3.5-6.9-5.2c0,0.1,0,0.3-0.1,0.4c-0.8,0.5-1.6,1-2.3,1.5c-0.6,0.4-1.3,0.7-1.8,1.3
			c-0.7,0.4-1.4,0.4-2.1,0.1v0c-0.3-0.2-0.7,0-1.1-0.1c-1.4,0-2.8-0.2-4.2-0.3c-2.1-0.1-4.2-0.4-6.3-0.6c-1.1-0.1-2.1,0-3.2-0.2
			c-2.7-0.3-5.4-0.4-8.1-0.7c-0.8-0.1-1.7-0.1-2.5-0.1c-2.4-0.1-4.8-0.4-7.2-0.5c-1-0.1-2,0-3.1-0.1c-2.5-0.2-5.1-0.3-7.6-0.4
			c-2.5-0.1-5-0.2-7.5-0.3c-6.5-0.1-13-0.1-19.5,0.1c-0.1,0-0.2,0-0.3,0c-2.3,0.3-4.7,0.5-7,0.7c-1.1,0.1-2.2,0.2-3.3,0.3
			c-1.5,0.1-2.9,0.3-4.3,0.5c-1.3,0.2-2.6,0.2-3.9,0.4c-1.4,0.2-2.7,0.4-4.1,0.5c-1.4,0.1-2.8,0.3-4.2,0.5c-1.3,0.2-2.6,0.3-3.8,0.5
			c-1.6,0.2-3.2,0.4-4.7,0.6c-1.3,0.2-2.6,0.3-3.8,0.5c-1.6,0.2-3.2,0.4-4.7,0.6c-1.3,0.2-2.6,0.3-4,0.5c-1.6,0.2-3.1,0.5-4.7,0.6
			c-1.3,0.1-2.5,0.3-3.8,0.5c-1.6,0.2-3.2,0.4-4.7,0.6c-1.5,0.2-2.9,0.3-4.4,0.5c-1.1,0.1-2.1,0.3-3.2,0.3c-1.4,0.1-2.8,0.4-4.2,0.5
			c-1.1,0-2.2,0.2-3.3,0.3c-1.4,0.1-2.8,0.4-4.2,0.4c-1.4,0.1-2.7,0.2-4.1,0.3c-2.7,0.3-5.4,0.5-8.1,0.7c-2.1,0.2-4.2,0.4-6.4,0.4
			c-2.4,0.1-4.8,0.3-7.3,0.3c-5.1,0-10.2,0.1-15.2-0.3c-1.4-0.1-2.8-0.3-4.2-0.5c-2.2-0.4-4.5-0.9-6.6-1.7c-2.1-0.7-4.2-1.3-6.4-2
			c-0.7-0.2-1.5-0.4-2.2-0.6c-1.3-0.4-2.6-0.9-3.9-1.1c-1.2-0.3-2.4-0.6-3.5-0.9c-1.6-0.5-3.2-0.9-4.8-1.2c-2.8-0.7-5.6-1.4-8.5-1.8
			c-0.1,0-0.2-0.1-0.2-0.2c-3.5,0-7,0-10.4,0c-0.2,0-0.5,0.1-0.7,0.2c-1.2,0.5-2.3,1.1-3.5,1.6c-3.6,1.7-7.2,3.4-10.9,5.1
			c-2.3,1.1-4.6,2.2-6.9,3.3c-0.3,0.1-0.6,0.3-0.7,0.7c-0.4,1.4-0.8,2.8-1.3,4.2"/>
		<path id="XMLID_326_" class="st2" d="M82,15.9c0.6,3.5,1.3,7,1.9,10.5c0.5,2.6,1,5.2,1.5,7.8c0.4,2.4,0.9,4.8,1.3,7.1
			c0.1,0.4,0.1,0.5-0.4,0.4c-2.2-0.4-4.4-0.9-6.7-1.3c-0.4-0.1-0.6-0.2-0.6-0.8c0.3-1.8,0.4-3.5,0.6-5.3c0.2-1.8,0.4-3.5,0.6-5.3
			c0.2-1.8,0.4-3.6,0.6-5.4c0.2-1.9,0.4-3.7,0.6-5.5c0.1-0.6,0.1-1.1,0.2-1.7C81.8,16.4,81.8,16.1,82,15.9z"/>
		<path id="XMLID_325_" class="st2" d="M63.8,37.5c-0.6-2.2-1.2-4.3-1.8-6.4c-0.9-3.3-1.8-6.6-2.8-9.9c-0.2-0.6-0.1-0.9,0.5-1.2
			c1.7-0.7,3.4-1.5,5.2-2.3c0.4-0.2,0.4,0,0.4,0.3c-0.2,2.6-0.4,5.3-0.6,7.9c-0.1,1.6-0.2,3.1-0.3,4.7c-0.2,2.2-0.3,4.4-0.5,6.6
			C63.8,37.3,63.8,37.4,63.8,37.5z"/>
	</g>
	<g id="titulo_2_">
		<g id="XMLID_99_">
			<path class="st0" d="M61.5,64.7H1.1c-0.2,0-0.3-0.1-0.3-0.3l0,0c0-0.2,0.1-0.3,0.3-0.3h60.4c0.2,0,0.3,0.1,0.3,0.3l0,0
				C61.9,64.5,61.7,64.7,61.5,64.7z"/>
		</g>
		<g id="XMLID_91_">
			<path id="XMLID_107_" class="st0" d="M76.7,60.1c0.5-0.1,1.2-0.2,1.9-0.2c1.1,0,1.8,0.2,2.2,0.6c0.4,0.3,0.6,0.9,0.6,1.5
				c0,1-0.6,1.7-1.5,2v0c0.6,0.2,1,0.8,1.1,1.6c0.3,1.1,0.4,1.8,0.6,2.1h-1c-0.1-0.2-0.3-0.9-0.5-1.9c-0.2-1.1-0.6-1.5-1.6-1.5h-0.9
				v3.4h-1V60.1z M77.7,63.6h1c1.1,0,1.7-0.6,1.7-1.5c0-1-0.7-1.4-1.8-1.4c-0.5,0-0.8,0-1,0.1V63.6z"/>
			<path id="XMLID_110_" class="st0" d="M87.9,64.9c0,2.1-1.4,3-2.8,3c-1.5,0-2.7-1.1-2.7-2.9c0-1.9,1.2-3,2.8-3
				C86.8,62,87.9,63.2,87.9,64.9z M83.5,64.9c0,1.2,0.7,2.1,1.7,2.1c1,0,1.7-0.9,1.7-2.2c0-0.9-0.5-2.1-1.7-2.1
				C84,62.8,83.5,63.9,83.5,64.9z"/>
			<path id="XMLID_113_" class="st0" d="M89.2,63.9c0-0.7,0-1.2,0-1.7H90l0,1.1h0c0.3-0.7,0.9-1.2,1.5-1.2c0.1,0,0.2,0,0.3,0v1
				c-0.1,0-0.2,0-0.3,0c-0.7,0-1.2,0.5-1.4,1.3c0,0.1,0,0.3,0,0.5v3h-1V63.9z"/>
			<path id="XMLID_115_" class="st0" d="M96,67.7L95.9,67h0c-0.3,0.4-0.9,0.8-1.7,0.8c-1.1,0-1.7-0.8-1.7-1.6c0-1.3,1.2-2.1,3.3-2.1
				v-0.1c0-0.5-0.1-1.3-1.3-1.3c-0.5,0-1.1,0.2-1.4,0.4l-0.2-0.7c0.5-0.3,1.1-0.5,1.8-0.5c1.7,0,2.1,1.2,2.1,2.3v2.1
				c0,0.5,0,1,0.1,1.3H96z M95.8,64.9c-1.1,0-2.4,0.2-2.4,1.3c0,0.7,0.4,1,1,1c0.7,0,1.2-0.5,1.3-0.9c0-0.1,0.1-0.2,0.1-0.3V64.9z"
				/>
			<path id="XMLID_118_" class="st0" d="M99.6,60.6c0,0.3-0.2,0.6-0.6,0.6c-0.4,0-0.6-0.3-0.6-0.6c0-0.4,0.3-0.6,0.6-0.6
				C99.3,60,99.6,60.2,99.6,60.6z M98.4,67.7v-5.6h1v5.6H98.4z"/>
			<path id="XMLID_121_" class="st0" d="M101.1,63.7c0-0.6,0-1,0-1.5h0.9l0,0.9h0c0.3-0.5,0.8-1,1.7-1c0.8,0,1.3,0.5,1.6,1.1h0
				c0.2-0.3,0.4-0.6,0.6-0.7c0.3-0.3,0.7-0.4,1.2-0.4c0.7,0,1.8,0.5,1.8,2.4v3.3h-1v-3.2c0-1.1-0.4-1.7-1.2-1.7
				c-0.6,0-1,0.4-1.2,0.9c0,0.1-0.1,0.3-0.1,0.5v3.4h-1v-3.3c0-0.9-0.4-1.5-1.2-1.5c-0.6,0-1.1,0.5-1.3,1c-0.1,0.1-0.1,0.3-0.1,0.5
				v3.4h-1V63.7z"/>
			<path id="XMLID_123_" class="st0" d="M113.8,67.7l-0.1-0.7h0c-0.3,0.4-0.9,0.8-1.7,0.8c-1.1,0-1.7-0.8-1.7-1.6
				c0-1.3,1.2-2.1,3.3-2.1v-0.1c0-0.5-0.1-1.3-1.3-1.3c-0.5,0-1.1,0.2-1.4,0.4l-0.2-0.7c0.5-0.3,1.1-0.5,1.8-0.5
				c1.7,0,2.1,1.2,2.1,2.3v2.1c0,0.5,0,1,0.1,1.3H113.8z M113.7,64.9c-1.1,0-2.4,0.2-2.4,1.3c0,0.7,0.4,1,1,1c0.7,0,1.2-0.5,1.3-0.9
				c0-0.1,0.1-0.2,0.1-0.3V64.9z"/>
			<path id="XMLID_126_" class="st0" d="M121,64.2V65h-2.8v-0.7H121z"/>
			<path id="XMLID_128_" class="st0" d="M124.7,60.1c0.4-0.1,1.1-0.2,1.8-0.2c1,0,1.6,0.2,2.1,0.6c0.4,0.3,0.6,0.8,0.6,1.4
				c0,0.7-0.5,1.4-1.3,1.7v0c0.7,0.2,1.6,0.8,1.6,1.9c0,0.7-0.3,1.2-0.7,1.6c-0.5,0.5-1.4,0.7-2.7,0.7c-0.7,0-1.2,0-1.6-0.1V60.1z
				 M125.7,63.2h0.9c1.1,0,1.7-0.6,1.7-1.3c0-0.9-0.7-1.3-1.7-1.3c-0.5,0-0.7,0-0.9,0.1V63.2z M125.7,67c0.2,0,0.5,0,0.8,0
				c1,0,2-0.4,2-1.5c0-1.1-0.9-1.5-2-1.5h-0.8V67z"/>
			<path id="XMLID_132_" class="st0" d="M136,64.9c0,2.1-1.4,3-2.8,3c-1.5,0-2.7-1.1-2.7-2.9c0-1.9,1.2-3,2.8-3
				C134.9,62,136,63.2,136,64.9z M131.6,64.9c0,1.2,0.7,2.1,1.7,2.1c1,0,1.7-0.9,1.7-2.2c0-0.9-0.5-2.1-1.7-2.1
				C132.1,62.8,131.6,63.9,131.6,64.9z"/>
			<path id="XMLID_209_" class="st0" d="M137.3,59.6h1v8.2h-1V59.6z"/>
			<path id="XMLID_211_" class="st0" d="M142,59.7l-1.4,1.6h-0.7l1-1.6H142z M140,67.7v-5.6h1v5.6H140z"/>
			<path id="XMLID_214_" class="st0" d="M143.1,62.2l1.1,3.1c0.2,0.5,0.3,1,0.4,1.4h0c0.1-0.5,0.3-0.9,0.5-1.4l1.1-3.1h1.1l-2.2,5.6
				h-1l-2.1-5.6H143.1z"/>
			<path id="XMLID_216_" class="st0" d="M151.2,67.7l-0.1-0.7h0c-0.3,0.4-0.9,0.8-1.7,0.8c-1.1,0-1.7-0.8-1.7-1.6
				c0-1.3,1.2-2.1,3.3-2.1v-0.1c0-0.5-0.1-1.3-1.3-1.3c-0.5,0-1.1,0.2-1.4,0.4l-0.2-0.7c0.5-0.3,1.1-0.5,1.8-0.5
				c1.7,0,2.1,1.2,2.1,2.3v2.1c0,0.5,0,1,0.1,1.3H151.2z M151.1,64.9c-1.1,0-2.4,0.2-2.4,1.3c0,0.7,0.4,1,1,1c0.7,0,1.2-0.5,1.3-0.9
				c0-0.1,0.1-0.2,0.1-0.3V64.9z"/>
			<path id="XMLID_219_" class="st0" d="M153.7,63.9c0-0.7,0-1.2,0-1.7h0.9l0,1.1h0c0.3-0.7,0.9-1.2,1.5-1.2c0.1,0,0.2,0,0.3,0v1
				c-0.1,0-0.2,0-0.3,0c-0.7,0-1.2,0.5-1.4,1.3c0,0.1,0,0.3,0,0.5v3h-1V63.9z"/>
			<path id="XMLID_221_" class="st0" d="M162.2,64.2V65h-2.8v-0.7H162.2z"/>
			<path id="XMLID_223_" class="st0" d="M165.5,67.7v-0.6l0.8-0.8c1.9-1.8,2.8-2.8,2.8-3.9c0-0.8-0.4-1.5-1.5-1.5
				c-0.7,0-1.2,0.3-1.6,0.6l-0.3-0.7c0.5-0.4,1.3-0.8,2.1-0.8c1.6,0,2.3,1.1,2.3,2.2c0,1.4-1,2.5-2.6,4l-0.6,0.6v0h3.4v0.8H165.5z"
				/>
			<path id="XMLID_225_" class="st0" d="M171.5,67.1c0-0.4,0.3-0.7,0.7-0.7c0.4,0,0.7,0.3,0.7,0.7c0,0.4-0.3,0.7-0.7,0.7
				C171.8,67.8,171.5,67.5,171.5,67.1z"/>
			<path id="XMLID_227_" class="st0" d="M173.7,65.8c0-0.9,0.6-1.6,1.5-2l0,0c-0.8-0.4-1.2-1-1.2-1.7c0-1.2,1-2,2.3-2
				c1.5,0,2.2,0.9,2.2,1.8c0,0.6-0.3,1.3-1.2,1.7v0c0.9,0.4,1.5,1,1.5,1.9c0,1.3-1.1,2.2-2.5,2.2C174.7,67.8,173.7,66.9,173.7,65.8z
				 M177.8,65.8c0-0.9-0.6-1.3-1.6-1.6c-0.9,0.3-1.3,0.8-1.3,1.5c0,0.8,0.5,1.4,1.5,1.4C177.2,67.1,177.8,66.5,177.8,65.8z M175,62
				c0,0.7,0.6,1.2,1.4,1.4c0.6-0.2,1.1-0.7,1.1-1.4c0-0.6-0.4-1.2-1.3-1.2C175.4,60.8,175,61.4,175,62z"/>
			<path id="XMLID_231_" class="st0" d="M181.9,61.2L181.9,61.2l-1.3,0.7l-0.2-0.8l1.6-0.9h0.9v7.5h-1V61.2z"/>
			<path id="XMLID_233_" class="st0" d="M190.6,63.9c0,2.5-0.9,3.9-2.6,3.9c-1.5,0-2.5-1.4-2.5-3.8c0-2.5,1.1-3.9,2.6-3.9
				C189.7,60.1,190.6,61.5,190.6,63.9z M186.5,64c0,1.9,0.6,3,1.5,3c1,0,1.5-1.2,1.5-3.1c0-1.8-0.5-3-1.5-3
				C187.2,60.9,186.5,62,186.5,64z"/>
			<path id="XMLID_236_" class="st0" d="M194.3,63.7c0-0.6,0-1,0-1.5h0.9l0,0.9h0c0.3-0.5,0.8-1,1.7-1c0.8,0,1.3,0.5,1.6,1.1h0
				c0.2-0.3,0.4-0.6,0.6-0.7c0.3-0.3,0.7-0.4,1.2-0.4c0.7,0,1.8,0.5,1.8,2.4v3.3h-1v-3.2c0-1.1-0.4-1.7-1.2-1.7
				c-0.6,0-1,0.4-1.2,0.9c0,0.1-0.1,0.3-0.1,0.5v3.4h-1v-3.3c0-0.9-0.4-1.5-1.2-1.5c-0.6,0-1.1,0.5-1.3,1c-0.1,0.1-0.1,0.3-0.1,0.5
				v3.4h-1V63.7z"/>
			<path id="XMLID_238_" class="st0" d="M203.7,66.7c0.3,0.2,0.8,0.4,1.3,0.4c0.7,0,1.1-0.4,1.1-0.8c0-0.5-0.3-0.7-1-1
				c-1-0.4-1.5-0.9-1.5-1.6c0-0.9,0.7-1.6,1.9-1.6c0.6,0,1.1,0.2,1.4,0.3l-0.3,0.7c-0.2-0.1-0.6-0.3-1.1-0.3c-0.6,0-0.9,0.3-0.9,0.8
				c0,0.5,0.3,0.7,1.1,0.9c1,0.4,1.5,0.9,1.5,1.7c0,1-0.8,1.7-2.1,1.7c-0.6,0-1.2-0.1-1.6-0.4L203.7,66.7z"/>
			<path id="XMLID_240_" class="st0" d="M208.4,63.7c0-0.6,0-1,0-1.5h0.9l0.1,0.9h0c0.3-0.5,0.9-1,1.8-1c0.8,0,2,0.5,2,2.4v3.3h-1
				v-3.2c0-0.9-0.3-1.6-1.3-1.6c-0.7,0-1.2,0.5-1.4,1c0,0.1-0.1,0.3-0.1,0.5v3.3h-1V63.7z"/>
			<path id="XMLID_242_" class="st0" d="M214.8,63.7c0-0.6,0-1,0-1.5h0.9l0,0.9h0c0.3-0.5,0.8-1,1.7-1c0.8,0,1.3,0.5,1.6,1.1h0
				c0.2-0.3,0.4-0.6,0.6-0.7c0.3-0.3,0.7-0.4,1.2-0.4c0.7,0,1.8,0.5,1.8,2.4v3.3h-1v-3.2c0-1.1-0.4-1.7-1.2-1.7
				c-0.6,0-1,0.4-1.2,0.9c0,0.1-0.1,0.3-0.1,0.5v3.4h-1v-3.3c0-0.9-0.4-1.5-1.2-1.5c-0.6,0-1.1,0.5-1.3,1c-0.1,0.1-0.1,0.3-0.1,0.5
				v3.4h-1V63.7z"/>
		</g>
		<g id="XMLID_90_">
			<path class="st0" d="M298.2,64.7h-60.4c-0.2,0-0.3-0.1-0.3-0.3l0,0c0-0.2,0.1-0.3,0.3-0.3h60.4c0.2,0,0.3,0.1,0.3,0.3l0,0
				C298.6,64.5,298.4,64.7,298.2,64.7z"/>
		</g>
	</g>
</g>
</svg>
