<?xml version="1.0" encoding="utf-8"?>
<!-- Generator: Adobe Illustrator 19.0.0, SVG Export Plug-In . SVG Version: 6.00 Build 0)  -->
<svg version="1.1" id="Capa_1" xmlns="http://www.w3.org/2000/svg" xmlns:xlink="http://www.w3.org/1999/xlink" x="0px" y="0px"
	 viewBox="-147 380.9 300 80" style="enable-background:new -147 380.9 300 80;" xml:space="preserve">
<style type="text/css">
	.st0{fill:#397EA0;}
	.st1{fill:#2B617F;}
	.st2{enable-background:new    ;}
</style>
<g id="Sierra_de_Perijá">
	<g id="XMLID_1357_">
		<path id="XMLID_474_" class="st0" d="M152.7,406.5L152.7,406.5L152.7,406.5c-0.2,0-0.4,0-0.7,0.1l0,0c-1.1,0.1-2.1,0.2-3.2,0.4
			c-0.7,0.1-1.2,0-1.6-0.6c-1-1.4-2.2-2.6-3.4-3.8c-1.4-1.4-3-1.8-5-1.2c-2.8,0.8-5.5,1.9-8.4,2.4c-0.1,0-0.2,0-0.3,0.1l0,0
			c-0.3,0-0.7,0-1,0.1l0,0l0,0c-4.3,0-8.7,0-13,0l0,0l0,0c-1-0.1-1.8-0.4-2.7-0.9l0,0l0,0c-0.1-0.1-0.2-0.2-0.4-0.2l0,0
			c-0.1-0.2-0.3-0.3-0.4-0.4c-0.4-0.4-0.8-0.9-1.2-1.3c-0.2-0.2-0.3-0.5-0.5-0.7l0,0l0,0c-0.1-0.1-0.2-0.3-0.3-0.4
			c-1-1.6-2.1-3.1-3.3-4.5c-1-1.2-2.3-1.9-3.9-2.2l0,0l0,0l0,0c-1.9-0.6-3.8-0.7-5.8-0.8c-1.2-0.1-2.4-0.1-3.6,0l0,0
			c-0.7,0-1.4,0-2.1,0.1c-2,0.1-4.1,0.2-6.1,0.6l0,0l0,0c-1.9,0.1-3.8,0.3-5.7,0.4c-1.4,0.1-2.9,0.2-4.3-0.1
			c-0.4-0.1-0.9-0.2-1.3-0.2l0,0c-1.3-0.2-2.7-0.5-4-0.7c-1.9-0.3-3.8-0.7-5.8-0.9c-0.6-0.1-1.2-0.3-1.9-0.3l0,0l0,0
			c-0.3-0.1-0.5-0.1-0.8-0.1c-0.1-0.2-0.3-0.1-0.4-0.1l0,0l0,0c-0.3-0.1-0.5-0.2-0.8-0.1c-1.1-0.3-2.2-0.4-3.4-0.6
			c-0.9-0.1-1.8-0.5-2.6-0.4c-2.3,0.3-4.5,0.6-6.7,1.1c-0.1,0-0.1,0-0.2,0l0,0c-2.2,0.3-4.5,0.7-6.7,1.1l0,0c-0.5,0.1-1,0.1-1.4,0.2
			c-0.1,0-0.2,0-0.3,0c-1.4-0.8-2.7-1.6-4.1-2.3c-0.1-0.1-0.3-0.2-0.4-0.2l0,0l0,0c-0.6-0.4-1.3-0.7-2-1c-0.7-0.4-1.4-0.7-2.2-0.9
			c-0.3-0.2-0.7-0.2-1.1-0.3c-0.4,0-0.7,0-1.1,0c-0.9,0.2-1.8,0.3-2.6,0.7l0,0c-0.4,0.1-0.8,0.2-1.1,0.4c-1.9,0.8-3.7,1.8-5.3,2.9
			c-0.2,0.1-0.5,0.2-0.7,0.2c-2.1-0.1-4.2-0.1-6.2-0.1c-3.3-0.1-6.5-0.1-9.8-0.2l0,0l0,0l0,0c-0.4-0.2-0.8-0.1-1.2,0l0,0l0,0
			c-1.4-0.1-2.8-0.1-4.2-0.1l0,0c-1.8-0.2-3.6-0.1-5.4-0.1l0,0c-1.2-0.1-2.4-0.1-3.6-0.1l0,0l0,0c-1.4-0.1-2.9-0.1-4.3-0.2
			c-6.5-0.2-13.1-0.3-19.6-0.4c-0.5,0-1-0.1-1.5-0.4c-0.9-0.5-1.9-1-3-1.2l0,0c-1.6-0.5-3.2-0.4-4.8-0.1c-1,0-2,0.2-3,0.4
			c-0.3,0.1-0.7,0.1-1,0.4c-2.5,1.6-5,3.2-7.5,4.8l0,0l0,0c-0.8,0.4-1.6,0.9-2.3,1.5c-0.7,0.3-1.4,0.8-2,1.3l0,0
			c-0.7,0.4-1.4,0.9-2.1,1.3c-1.1,0.7-2.3,1.4-3.3,2.2l-0.1,0.1l0,0c-0.9,0.4-1.7,1-2.5,1.6c-0.4,0.3-0.8,0.4-1.3,0.2
			c-1.5-0.4-3-0.7-4.4-1c-0.4-0.1-0.7-0.1-1.1,0.1c-3.8,2.3-7.6,4.6-11.4,6.9c-0.5,0.3-1,0.5-1.6,0.5c-2-0.2-3.9-0.3-5.9-0.4
			c-0.5-0.1-0.9-0.2-1.4-0.2l0,0l0,0c-0.2-0.1-0.3-0.1-0.5-0.1c-3-0.2-5.7,0.8-8.1,2.4c-0.7,0.5-1.4,1-2.3,1.2
			c-2.8,0.4-5.6,0.7-8.5,0.5c-2.7-0.2-5.4-0.2-8.1,0.2c-2.3,0.3-4.5,0.7-6.8,1.2l0,0c-0.6,0.1-1.3,0.2-1.9,0.5
			c-0.4-0.1-0.8,0.1-1.2,0.2c-3,0.7-6.1,1.4-9.1,2.3c-0.4,0.1-0.8,0.1-1.1,0.3l0,0c-1.2,0.3-2.3,0.6-3.5,1l0,0l0,0
			c-0.2,0.2-0.1,0.5-0.1,0.8c0,4.8,0,9.5,0,14.3c0,0.6,0,0.9,0.1,1.1c0,0.1,0.1,0.2,0.2,0.2c0.2,0.1,0.6,0.1,1.1,0.1
			c98.9,0,197.8,0,296.7,0c0.3,0,0.6,0,0.9,0c0.6,0.1,0.8-0.2,0.8-0.8c0-8.8,0-17.7,0-26.5C152.8,407,152.9,406.7,152.7,406.5z
			 M-13.6,391.7c-0.2,0-0.3,0-0.5,0h0.1C-13.9,391.7-13.7,391.7-13.6,391.7c0.1,0,0.1-0.1,0.1-0.1l0,0
			C-13.5,391.7-13.5,391.7-13.6,391.7z M-13.5,391.6L-13.5,391.6L-13.5,391.6z M62.7,391.7L62.7,391.7L62.7,391.7L62.7,391.7z
			 M61.4,391.7C61.3,391.7,61.3,391.7,61.4,391.7C61.3,391.7,61.3,391.7,61.4,391.7z M98.1,392.6L98.1,392.6L98.1,392.6z M-94,408.7
			L-94,408.7L-94,408.7C-94,408.6-94,408.7-94,408.7z"/>
		<g id="XMLID_19_">
			<path id="XMLID_42_" class="st1" d="M-62.6,416.2c-1.2-1.2-2.6-2.2-3.9-3.4c-0.2-0.1-0.3,0-0.4,0c-1.4,0.8-2.9,1.5-4.3,2.3
				c-0.1,0.2-0.4,0.1-0.5,0.3c-0.5,0.3-1.1,0.5-1.6,0.8c-0.1,0.1-0.3,0.2-0.4,0.3c-1.6,0.7-3.1,1.6-4.7,2.4c-1.5,0.8-3,1.6-4.6,2.3
				c0,0.2-0.3,0.2-0.2,0.4c0.5,0.1,0.9-0.1,1.3-0.2c2-0.4,3.9-0.7,5.9-1.1c2.3-0.5,4.7-1,7-1.4c0.2-0.2,0.5-0.2,0.8-0.2
				c1.3,0.1,2.6,0.5,3.9,0.5c0.3,0,0.5,0.1,0.6,0.3c2.1,0.4,4.2,0.7,6.5,1.1c-1.8-1.5-3.4-2.8-5-4.2
				C-62.3,416.4-62.5,416.3-62.6,416.2z"/>
			<path id="XMLID_20_" class="st1" d="M34,409.1c-0.2-0.3-0.3-0.6-0.5-0.8c-1.6-2.2-3.3-4.4-4.9-6.6c-1.2-1.7-2.4-3.3-3.7-5
				c-0.3-0.4-0.6-0.6-1.1-0.2c-0.4,0.3-0.8,0.5-1.2,0.8c-0.1,0.1-0.3,0.1-0.4,0.3c-1.2,0.6-2.3,1.3-3.4,1.9
				c-3.9,2.2-7.8,4.5-11.8,6.7c-0.7,0.4-1.4,0.8-2.3,0.8c-0.9,0.1-1.8,0.2-2.6,0.5c-0.2,0.1-0.4,0.1-0.5,0.4
				c-0.2,0.6-0.4,1.2-0.6,1.8c-0.7,2.4-1.5,4.7-2.3,7c-0.1,0.3-0.2,0.7-0.2,1c-0.1,0.4-0.1,0.8-0.4,1.1l0,0c-0.1,0.4-0.3,0.7,0,1.1
				c0.2,0,0.3-0.1,0.3-0.3c1.2-1.8,2.4-3.7,3.6-5.5c0.2-0.3,0.4-0.5,0.7-0.6c2.1-0.6,4.3-1.1,6.4-1.8c2.7-0.9,5.4-1.5,8.1-2.4
				c1.2-0.4,2.5-0.8,3.7-1.1c0.7-0.5,1.4-0.6,2.2-0.6c0.4,0,0.8,0.1,1,0.4c2.1,0.7,4.3,1.4,6.4,2.1c0.7,0.2,1.4,0.4,2.2,0.6
				c0.3,0.1,0.6,0.1,1,0.1c0.6,0,0.8-0.3,0.5-0.8C34.2,409.5,34.1,409.3,34,409.1z"/>
			<path id="XMLID_41_" class="st1" d="M101.6,423.2c0-0.1-0.1-0.2-0.1-0.3c-0.2-0.3-0.5-0.7-0.7-1.1l0,0c-0.1-0.1-0.2-0.3-0.3-0.4
				c0-0.1,0-0.1,0-0.2c-1.1-1.9-2.2-3.8-3.4-5.7c-1.1-1.8-2.2-3.6-3.2-5.4c-1-1.7-2-3.4-3-5c-0.1-0.1-0.1-0.3-0.3-0.4
				c-0.3-0.5-0.6-1.1-0.9-1.6c-0.1-0.2-0.2-0.3-0.5,0c-1.8,1.9-3.6,3.8-5.3,5.7c-1.3,1.4-2.6,2.7-3.8,4.1c-0.1,0.1-0.1,0.3-0.3,0.4
				c-0.4,0.2-0.6,0.4-0.8,0.8c-0.1,0.1-0.3,0.2-0.4,0.3c-0.2,0-0.3,0.1-0.5,0.2c-2.8,2.1-5.7,4.2-8.5,6.3c-0.5,0.4-1,0.6-1.4,1.1
				c-0.4,0.4-0.8,0.8-1.3,0.9c0,0.5,0.2,0.7,0.7,0.5c0.4-0.2,0.8-0.4,1.3-0.5c0.4,0,0.7-0.2,1.1-0.3c1.7-0.7,3.3-1.5,5-2.2
				c4.2-1.8,8.4-3.6,12.5-5.4c0.4-0.2,0.7-0.2,1.1,0.1c1.5,1,3,2.1,4.5,3.1c2.4,1.6,4.9,3.2,7.3,4.8c0.3,0.1,0.6,0.3,0.8,0.5
				C101.6,423.5,101.7,423.4,101.6,423.2z"/>
		</g>
		<g id="titulo_1_">
			<g id="XMLID_40_" class="st2">
				<path class="st0" d="M-113.5,450.7c-0.4,0.2-1.1,0.4-2.1,0.4c-2.2,0-3.9-1.4-3.9-4c0-2.5,1.7-4.1,4.1-4.1c1,0,1.6,0.2,1.9,0.4
					l-0.2,0.8c-0.4-0.2-0.9-0.3-1.6-0.3c-1.8,0-3.1,1.2-3.1,3.2c0,1.9,1.1,3.2,3,3.2c0.6,0,1.2-0.1,1.7-0.3L-113.5,450.7z"/>
				<path class="st0" d="M-111.8,448.3c0,1.4,0.9,2,1.9,2c0.7,0,1.2-0.1,1.6-0.3l0.2,0.7c-0.4,0.2-1,0.4-1.9,0.4
					c-1.7,0-2.8-1.1-2.8-2.8s1-3,2.6-3c1.8,0,2.3,1.6,2.3,2.7c0,0.2,0,0.4,0,0.5H-111.8z M-108.8,447.6c0-0.7-0.3-1.7-1.4-1.7
					c-1,0-1.5,1-1.6,1.7H-108.8z"/>
				<path class="st0" d="M-106.5,447.1c0-0.7,0-1.2,0-1.8h0.9l0,1.1h0c0.3-0.8,0.9-1.2,1.6-1.2c0.1,0,0.2,0,0.3,0v1
					c-0.1,0-0.2,0-0.4,0c-0.7,0-1.2,0.5-1.4,1.3c0,0.1,0,0.3,0,0.5v3h-1V447.1z"/>
				<path class="st0" d="M-102.7,447.1c0-0.7,0-1.2,0-1.8h0.9l0,1.1h0c0.3-0.8,0.9-1.2,1.6-1.2c0.1,0,0.2,0,0.3,0v1
					c-0.1,0-0.2,0-0.4,0c-0.7,0-1.2,0.5-1.4,1.3c0,0.1,0,0.3,0,0.5v3h-1V447.1z"/>
				<path class="st0" d="M-93.9,448.1c0,2.1-1.4,3-2.8,3c-1.5,0-2.7-1.1-2.7-2.9c0-1.9,1.2-3,2.8-3C-95,445.2-93.9,446.3-93.9,448.1
					z M-98.4,448.1c0,1.2,0.7,2.2,1.7,2.2c1,0,1.7-0.9,1.7-2.2c0-1-0.5-2.2-1.7-2.2S-98.4,447.1-98.4,448.1z"/>
				<path class="st0" d="M-90.1,443.2c0.5-0.1,1.1-0.2,1.9-0.2c1,0,1.7,0.2,2.2,0.7c0.4,0.4,0.7,0.9,0.7,1.6c0,0.7-0.2,1.3-0.6,1.7
					c-0.5,0.6-1.4,0.9-2.4,0.9c-0.3,0-0.6,0-0.8-0.1v3.2h-1V443.2z M-89,447c0.2,0.1,0.5,0.1,0.8,0.1c1.2,0,2-0.6,2-1.7
					c0-1-0.7-1.5-1.9-1.5c-0.4,0-0.8,0-1,0.1V447z"/>
				<path class="st0" d="M-82.9,443.7c0,0.4-0.2,0.6-0.7,0.6c-0.4,0-0.6-0.3-0.6-0.6c0-0.4,0.3-0.6,0.6-0.6
					C-83.2,443.1-82.9,443.4-82.9,443.7z M-84.1,450.9v-5.6h1v5.6H-84.1z"/>
				<path class="st0" d="M-81.3,446.8c0-0.6,0-1.1,0-1.5h0.9l0.1,0.9h0c0.3-0.5,0.9-1.1,1.9-1.1c0.8,0,2,0.5,2,2.4v3.4h-1v-3.3
					c0-0.9-0.3-1.7-1.3-1.7c-0.7,0-1.2,0.5-1.4,1.1c0,0.1-0.1,0.3-0.1,0.5v3.4h-1V446.8z"/>
				<path class="st0" d="M-73.7,443.7v1.6h1.5v0.8h-1.5v3c0,0.7,0.2,1.1,0.8,1.1c0.3,0,0.5,0,0.6-0.1l0,0.8
					c-0.2,0.1-0.5,0.1-0.9,0.1c-0.5,0-0.9-0.2-1.1-0.4c-0.3-0.3-0.4-0.8-0.4-1.5v-3.1h-0.9v-0.8h0.9v-1.4L-73.7,443.7z"/>
				<path class="st0" d="M-67.9,450.9l-0.1-0.7h0c-0.3,0.4-0.9,0.8-1.7,0.8c-1.1,0-1.7-0.8-1.7-1.6c0-1.4,1.2-2.1,3.4-2.1v-0.1
					c0-0.5-0.1-1.3-1.3-1.3c-0.5,0-1.1,0.2-1.5,0.4l-0.2-0.7c0.5-0.3,1.1-0.5,1.9-0.5c1.7,0,2.1,1.2,2.1,2.3v2.1c0,0.5,0,1,0.1,1.4
					H-67.9z M-68.1,448.1c-1.1,0-2.4,0.2-2.4,1.3c0,0.7,0.4,1,1,1c0.7,0,1.2-0.5,1.4-0.9c0-0.1,0.1-0.2,0.1-0.3V448.1z"/>
				<path class="st0" d="M-60.5,442.7v6.8c0,0.5,0,1.1,0,1.5h-0.9l0-1h0c-0.3,0.6-1,1.1-1.9,1.1c-1.4,0-2.4-1.2-2.4-2.9
					c0-1.9,1.2-3,2.5-3c0.9,0,1.4,0.4,1.7,0.9h0v-3.4H-60.5z M-61.6,447.6c0-0.1,0-0.3,0-0.4c-0.2-0.7-0.7-1.2-1.5-1.2
					c-1.1,0-1.7,0.9-1.7,2.2c0,1.1,0.6,2.1,1.7,2.1c0.7,0,1.3-0.5,1.5-1.2c0-0.1,0-0.3,0-0.4V447.6z"/>
				<path class="st0" d="M-53.7,448.1c0,2.1-1.4,3-2.8,3c-1.5,0-2.7-1.1-2.7-2.9c0-1.9,1.2-3,2.8-3
					C-54.8,445.2-53.7,446.3-53.7,448.1z M-58.2,448.1c0,1.2,0.7,2.2,1.7,2.2c1,0,1.7-0.9,1.7-2.2c0-1-0.5-2.2-1.7-2.2
					S-58.2,447.1-58.2,448.1z"/>
				<path class="st0" d="M-47.7,442.8c-0.9,1.1-1.5,2.7-1.5,4.8c0,2.1,0.6,3.6,1.5,4.7h-0.8c-0.7-1-1.5-2.5-1.5-4.7
					c0-2.3,0.8-3.8,1.5-4.8H-47.7z"/>
				<path class="st0" d="M-46.7,449.7c0.5,0.3,1.1,0.5,1.8,0.5c1,0,1.6-0.5,1.6-1.3c0-0.7-0.4-1.2-1.5-1.6c-1.3-0.5-2.1-1.1-2.1-2.2
					c0-1.2,1-2.1,2.5-2.1c0.8,0,1.4,0.2,1.7,0.4l-0.3,0.8c-0.3-0.1-0.8-0.4-1.5-0.4c-1.1,0-1.5,0.6-1.5,1.2c0,0.7,0.5,1.1,1.6,1.5
					c1.3,0.5,2,1.2,2,2.3c0,1.2-0.9,2.3-2.8,2.3c-0.8,0-1.6-0.2-2-0.5L-46.7,449.7z"/>
				<path class="st0" d="M-39.7,443.7c0,0.4-0.2,0.6-0.7,0.6c-0.4,0-0.6-0.3-0.6-0.6c0-0.4,0.3-0.6,0.6-0.6
					C-40,443.1-39.7,443.4-39.7,443.7z M-40.9,450.9v-5.6h1v5.6H-40.9z"/>
				<path class="st0" d="M-37.6,448.3c0,1.4,0.9,2,1.9,2c0.7,0,1.2-0.1,1.6-0.3l0.2,0.7c-0.4,0.2-1,0.4-1.9,0.4
					c-1.7,0-2.8-1.1-2.8-2.8s1-3,2.6-3c1.8,0,2.3,1.6,2.3,2.7c0,0.2,0,0.4,0,0.5H-37.6z M-34.6,447.6c0-0.7-0.3-1.7-1.4-1.7
					c-1,0-1.5,1-1.6,1.7H-34.6z"/>
				<path class="st0" d="M-32.3,447.1c0-0.7,0-1.2,0-1.8h0.9l0,1.1h0c0.3-0.8,0.9-1.2,1.6-1.2c0.1,0,0.2,0,0.3,0v1
					c-0.1,0-0.2,0-0.4,0c-0.7,0-1.2,0.5-1.4,1.3c0,0.1,0,0.3,0,0.5v3h-1V447.1z"/>
				<path class="st0" d="M-28.4,447.1c0-0.7,0-1.2,0-1.8h0.9l0,1.1h0c0.3-0.8,0.9-1.2,1.6-1.2c0.1,0,0.2,0,0.3,0v1
					c-0.1,0-0.2,0-0.4,0c-0.7,0-1.2,0.5-1.4,1.3c0,0.1,0,0.3,0,0.5v3h-1V447.1z"/>
				<path class="st0" d="M-21.5,450.9l-0.1-0.7h0c-0.3,0.4-0.9,0.8-1.7,0.8c-1.1,0-1.7-0.8-1.7-1.6c0-1.4,1.2-2.1,3.4-2.1v-0.1
					c0-0.5-0.1-1.3-1.3-1.3c-0.5,0-1.1,0.2-1.5,0.4l-0.2-0.7c0.5-0.3,1.1-0.5,1.9-0.5c1.7,0,2.1,1.2,2.1,2.3v2.1c0,0.5,0,1,0.1,1.4
					H-21.5z M-21.7,448.1c-1.1,0-2.4,0.2-2.4,1.3c0,0.7,0.4,1,1,1c0.7,0,1.2-0.5,1.4-0.9c0-0.1,0.1-0.2,0.1-0.3V448.1z"/>
				<path class="st0" d="M-11.7,442.7v6.8c0,0.5,0,1.1,0,1.5h-0.9l0-1h0c-0.3,0.6-1,1.1-1.9,1.1c-1.4,0-2.4-1.2-2.4-2.9
					c0-1.9,1.2-3,2.5-3c0.9,0,1.4,0.4,1.7,0.9h0v-3.4H-11.7z M-12.7,447.6c0-0.1,0-0.3,0-0.4c-0.2-0.7-0.7-1.2-1.5-1.2
					c-1.1,0-1.7,0.9-1.7,2.2c0,1.1,0.6,2.1,1.7,2.1c0.7,0,1.3-0.5,1.5-1.2c0-0.1,0-0.3,0-0.4V447.6z"/>
				<path class="st0" d="M-9.4,448.3c0,1.4,0.9,2,1.9,2c0.7,0,1.2-0.1,1.6-0.3l0.2,0.7c-0.4,0.2-1,0.4-1.9,0.4
					c-1.7,0-2.8-1.1-2.8-2.8s1-3,2.6-3c1.8,0,2.3,1.6,2.3,2.7c0,0.2,0,0.4,0,0.5H-9.4z M-6.4,447.6c0-0.7-0.3-1.7-1.4-1.7
					c-1,0-1.5,1-1.6,1.7H-6.4z"/>
				<path class="st0" d="M-1.6,443.2c0.5-0.1,1.1-0.2,1.9-0.2c1,0,1.7,0.2,2.2,0.7c0.4,0.4,0.7,0.9,0.7,1.6c0,0.7-0.2,1.3-0.6,1.7
					c-0.5,0.6-1.4,0.9-2.4,0.9c-0.3,0-0.6,0-0.8-0.1v3.2h-1V443.2z M-0.6,447c0.2,0.1,0.5,0.1,0.8,0.1c1.2,0,2-0.6,2-1.7
					c0-1-0.7-1.5-1.9-1.5c-0.4,0-0.8,0-1,0.1V447z"/>
				<path class="st0" d="M4.8,448.3c0,1.4,0.9,2,1.9,2c0.7,0,1.2-0.1,1.6-0.3l0.2,0.7c-0.4,0.2-1,0.4-1.9,0.4
					c-1.7,0-2.8-1.1-2.8-2.8s1-3,2.6-3c1.8,0,2.3,1.6,2.3,2.7c0,0.2,0,0.4,0,0.5H4.8z M7.8,447.6c0-0.7-0.3-1.7-1.4-1.7
					c-1,0-1.5,1-1.6,1.7H7.8z"/>
				<path class="st0" d="M10.1,447.1c0-0.7,0-1.2,0-1.8H11l0,1.1h0c0.3-0.8,0.9-1.2,1.6-1.2c0.1,0,0.2,0,0.3,0v1c-0.1,0-0.2,0-0.4,0
					c-0.7,0-1.2,0.5-1.4,1.3c0,0.1,0,0.3,0,0.5v3h-1V447.1z"/>
				<path class="st0" d="M15.1,443.7c0,0.4-0.2,0.6-0.7,0.6c-0.4,0-0.6-0.3-0.6-0.6c0-0.4,0.3-0.6,0.6-0.6
					C14.9,443.1,15.1,443.4,15.1,443.7z M14,450.9v-5.6h1v5.6H14z"/>
				<path class="st0" d="M15.3,452.6c0.5,0,0.9-0.2,1.1-0.4c0.3-0.3,0.4-0.8,0.4-2.1v-4.7h1v5.1c0,1.1-0.2,1.8-0.7,2.3
					c-0.5,0.5-1.2,0.6-1.8,0.6L15.3,452.6z M18,443.7c0,0.3-0.2,0.6-0.6,0.6c-0.4,0-0.6-0.3-0.6-0.6c0-0.4,0.3-0.6,0.7-0.6
					C17.7,443.1,18,443.4,18,443.7z"/>
				<path class="st0" d="M22.7,450.9l-0.1-0.7h0c-0.3,0.4-0.9,0.8-1.7,0.8c-1.1,0-1.7-0.8-1.7-1.6c0-1.4,1.2-2.1,3.4-2.1v-0.1
					c0-0.5-0.1-1.3-1.3-1.3c-0.5,0-1.1,0.2-1.5,0.4l-0.2-0.7c0.5-0.3,1.1-0.5,1.9-0.5c1.7,0,2.1,1.2,2.1,2.3v2.1c0,0.5,0,1,0.1,1.4
					H22.7z M22.5,448.1c-1.1,0-2.4,0.2-2.4,1.3c0,0.7,0.4,1,1,1c0.7,0,1.2-0.5,1.4-0.9c0-0.1,0.1-0.2,0.1-0.3V448.1z M23,442.9
					l-1.4,1.7h-0.7l1-1.7H23z"/>
				<path class="st0" d="M24.5,452.4c0.8-1.2,1.5-2.7,1.5-4.8c0-2.1-0.6-3.6-1.5-4.7h0.8c0.7,1,1.5,2.5,1.5,4.8
					c0,2.3-0.8,3.8-1.5,4.8H24.5z"/>
				<path class="st0" d="M33.3,447.4v0.8h-2.9v-0.8H33.3z"/>
				<path class="st0" d="M36.5,450.4l4.4-6.4v0h-4v-0.9h5.3v0.6l-4.3,6.4v0h4.4v0.9h-5.7V450.4z"/>
				<path class="st0" d="M48.1,449.4c0,0.6,0,1.1,0,1.5h-0.9l-0.1-0.9h0c-0.3,0.5-0.9,1-1.9,1c-0.9,0-2-0.5-2-2.5v-3.3h1v3.1
					c0,1.1,0.3,1.8,1.3,1.8c0.7,0,1.2-0.5,1.4-0.9c0.1-0.2,0.1-0.3,0.1-0.5v-3.5h1V449.4z"/>
				<path class="st0" d="M49.8,442.7h1v8.3h-1V442.7z"/>
				<path class="st0" d="M53.7,443.7c0,0.4-0.2,0.6-0.7,0.6c-0.4,0-0.6-0.3-0.6-0.6c0-0.4,0.3-0.6,0.6-0.6
					C53.5,443.1,53.7,443.4,53.7,443.7z M52.6,450.9v-5.6h1v5.6H52.6z"/>
				<path class="st0" d="M58.4,450.9l-0.1-0.7h0c-0.3,0.4-0.9,0.8-1.7,0.8c-1.1,0-1.7-0.8-1.7-1.6c0-1.4,1.2-2.1,3.4-2.1v-0.1
					c0-0.5-0.1-1.3-1.3-1.3c-0.5,0-1.1,0.2-1.5,0.4l-0.2-0.7c0.5-0.3,1.1-0.5,1.9-0.5c1.7,0,2.1,1.2,2.1,2.3v2.1c0,0.5,0,1,0.1,1.4
					H58.4z M58.3,448.1c-1.1,0-2.4,0.2-2.4,1.3c0,0.7,0.4,1,1,1c0.7,0,1.2-0.5,1.4-0.9c0-0.1,0.1-0.2,0.1-0.3V448.1z"/>
				<path class="st0" d="M65.8,447.4v0.8h-2.9v-0.8H65.8z"/>
				<path class="st0" d="M69.4,449.8c0.3,0.2,1,0.5,1.7,0.5c1.3,0,1.7-0.8,1.7-1.5c0-1.1-1-1.5-2-1.5h-0.6v-0.8h0.6
					c0.7,0,1.7-0.4,1.7-1.3c0-0.6-0.4-1.1-1.3-1.1c-0.6,0-1.2,0.3-1.5,0.5l-0.3-0.7c0.4-0.3,1.2-0.6,2-0.6c1.5,0,2.2,0.9,2.2,1.8
					c0,0.8-0.5,1.4-1.4,1.8v0c0.9,0.2,1.7,0.9,1.7,2c0,1.2-0.9,2.3-2.8,2.3c-0.9,0-1.6-0.3-2-0.5L69.4,449.8z"/>
				<path class="st0" d="M79.5,444.1c-0.2,0-0.5,0-0.8,0c-1.6,0.3-2.5,1.4-2.6,2.7h0c0.4-0.5,1-0.9,1.8-0.9c1.3,0,2.3,1,2.3,2.5
					c0,1.4-0.9,2.7-2.5,2.7c-1.6,0-2.7-1.3-2.7-3.2c0-1.5,0.5-2.7,1.3-3.4c0.6-0.6,1.5-1,2.4-1.1c0.3,0,0.6-0.1,0.7-0.1V444.1z
					 M79.2,448.5c0-1.1-0.6-1.7-1.6-1.7c-0.6,0-1.2,0.4-1.5,0.9c-0.1,0.1-0.1,0.3-0.1,0.5c0,1.2,0.6,2.2,1.7,2.2
					C78.6,450.3,79.2,449.5,79.2,448.5z"/>
				<path class="st0" d="M85.4,444.1c-0.2,0-0.5,0-0.8,0c-1.6,0.3-2.5,1.4-2.6,2.7h0c0.4-0.5,1-0.9,1.8-0.9c1.3,0,2.3,1,2.3,2.5
					c0,1.4-0.9,2.7-2.5,2.7c-1.6,0-2.7-1.3-2.7-3.2c0-1.5,0.5-2.7,1.3-3.4c0.6-0.6,1.5-1,2.4-1.1c0.3,0,0.6-0.1,0.7-0.1V444.1z
					 M85.2,448.5c0-1.1-0.6-1.7-1.6-1.7c-0.6,0-1.2,0.4-1.5,0.9c-0.1,0.1-0.1,0.3-0.1,0.5c0,1.2,0.6,2.2,1.7,2.2
					C84.6,450.3,85.2,449.5,85.2,448.5z"/>
				<path class="st0" d="M92.1,447.1c0,2.6-1,4-2.6,4c-1.5,0-2.5-1.4-2.5-3.9c0-2.5,1.1-3.9,2.6-3.9
					C91.2,443.2,92.1,444.7,92.1,447.1z M88,447.2c0,2,0.6,3.1,1.5,3.1c1.1,0,1.6-1.2,1.6-3.2c0-1.9-0.5-3.1-1.5-3.1
					C88.7,444,88,445.1,88,447.2z"/>
				<path class="st0" d="M95.9,446.8c0-0.6,0-1.1,0-1.5h0.9l0,0.9h0c0.3-0.5,0.8-1,1.8-1c0.8,0,1.4,0.5,1.6,1.1h0
					c0.2-0.3,0.4-0.6,0.6-0.7c0.3-0.3,0.7-0.4,1.2-0.4c0.7,0,1.9,0.5,1.9,2.5v3.3h-1v-3.2c0-1.1-0.4-1.7-1.2-1.7
					c-0.6,0-1,0.4-1.2,0.9c0,0.1-0.1,0.3-0.1,0.5v3.5h-1v-3.4c0-0.9-0.4-1.6-1.2-1.6c-0.6,0-1.1,0.5-1.3,1c-0.1,0.2-0.1,0.3-0.1,0.5
					v3.4h-1V446.8z"/>
				<path class="st0" d="M105.5,449.9c0.3,0.2,0.8,0.4,1.4,0.4c0.7,0,1.1-0.4,1.1-0.8c0-0.5-0.3-0.8-1.1-1c-1-0.4-1.5-0.9-1.5-1.6
					c0-0.9,0.7-1.7,1.9-1.7c0.6,0,1.1,0.2,1.4,0.4l-0.3,0.7c-0.2-0.1-0.6-0.3-1.2-0.3c-0.6,0-0.9,0.4-0.9,0.8c0,0.5,0.3,0.7,1.1,1
					c1,0.4,1.5,0.9,1.5,1.7c0,1-0.8,1.7-2.1,1.7c-0.6,0-1.2-0.2-1.6-0.4L105.5,449.9z"/>
				<path class="st0" d="M110.3,446.8c0-0.6,0-1.1,0-1.5h0.9l0.1,0.9h0c0.3-0.5,0.9-1.1,1.9-1.1c0.8,0,2,0.5,2,2.4v3.4h-1v-3.3
					c0-0.9-0.3-1.7-1.3-1.7c-0.7,0-1.2,0.5-1.4,1.1c0,0.1-0.1,0.3-0.1,0.5v3.4h-1V446.8z"/>
				<path class="st0" d="M116.7,446.8c0-0.6,0-1.1,0-1.5h0.9l0,0.9h0c0.3-0.5,0.8-1,1.8-1c0.8,0,1.4,0.5,1.6,1.1h0
					c0.2-0.3,0.4-0.6,0.6-0.7c0.3-0.3,0.7-0.4,1.2-0.4c0.7,0,1.9,0.5,1.9,2.5v3.3h-1v-3.2c0-1.1-0.4-1.7-1.2-1.7
					c-0.6,0-1,0.4-1.2,0.9c0,0.1-0.1,0.3-0.1,0.5v3.5h-1v-3.4c0-0.9-0.4-1.6-1.2-1.6c-0.6,0-1.1,0.5-1.3,1c-0.1,0.2-0.1,0.3-0.1,0.5
					v3.4h-1V446.8z"/>
			</g>
			<path id="XMLID_44_" class="st0" d="M-125.4,447.8h-21.2c-0.2,0-0.3-0.1-0.3-0.3l0,0c0-0.2,0.1-0.3,0.3-0.3h21.2
				c0.2,0,0.3,0.1,0.3,0.3l0,0C-125.1,447.7-125.3,447.8-125.4,447.8z"/>
			<path id="XMLID_11_" class="st0" d="M152.5,447.8h-21.2c-0.2,0-0.3-0.1-0.3-0.3l0,0c0-0.2,0.1-0.3,0.3-0.3h21.2
				c0.2,0,0.3,0.1,0.3,0.3l0,0C152.8,447.7,152.7,447.8,152.5,447.8z"/>
		</g>
	</g>
</g>
</svg>
