<?xml version="1.0" encoding="utf-8"?>
<!-- Generator: Adobe Illustrator 19.0.0, SVG Export Plug-In . SVG Version: 6.00 Build 0)  -->
<svg version="1.1" id="Cadenalito" xmlns="http://www.w3.org/2000/svg" xmlns:xlink="http://www.w3.org/1999/xlink" x="0px" y="0px"
	 viewBox="-147 270.9 300 300" style="enable-background:new -147 270.9 300 300;" xml:space="preserve">
<style type="text/css">
	.st0{fill:#603C1A;}
	.st1{fill:#381E12;}
	.st2{fill:#4B835E;}
	.st3{opacity:0.5;fill:#4B835E;}
	.st4{fill:#F1CA90;}
	.st5{fill:#CD4B50;}
	.st6{fill:#53594E;}
	.st7{fill:#2E363D;}
	.st8{fill:#192632;}
	.st9{fill:#FFFFFF;}
	.st10{fill:#DFE2E3;}
	.st11{fill:#6E6E6E;}
	.st12{fill:#C2323C;}
</style>
<g>
	<g>
		<g>
			<path class="st0" d="M146.1,527.8c0,1.6-0.3,3.2-0.9,4.8c-0.5,1.1-1.1,2.2-2,3.3c0,0-44.9-10.6-55.7-10.6s-22.6-0.7-32.9-1.8
				c-10.3-1.2-32.2-3.2-39-2.4c-6.8,0.8-27.1,4.5-36.4,7.1c-9.3,2.6-24.6,5.7-24.6,5.7s-1.1-0.5-2-1.9c-0.6-1-1.1-2.5-1-4.5
				c0,0,28.5-6.8,35.5-9.1c7-2.4,23.9-3.3,25.1-3.3c1.3,0,31-0.8,38.6-0.4s25,2.8,34.6,1.7C94.9,515.2,135.5,527.9,146.1,527.8z"/>
			<path class="st1" d="M145.1,532.6c-0.5,1.1-1.1,2.2-2,3.3c0,0-44.9-10.6-55.7-10.6s-22.6-0.7-32.9-1.8c-10.3-1.2-32.2-3.2-39-2.4
				c-6.8,0.8-27.1,4.5-36.4,7.1c-9.3,2.6-24.6,5.7-24.6,5.7s-1.1-0.5-2-1.9c9.3-2.5,32.7-8.6,41.8-10.7C6,518.6,10.3,518.7,25,518
				c14.7-0.7,24.7,1.3,37.9,2.6c13.3,1.3,24.3,1,30.6,1.2C98.8,521.9,134.5,530.1,145.1,532.6z"/>
		</g>
		<g>
			<path class="st0" d="M120.6,528.7c0,0,0.7-1.3,2.1-1.6c1.3-0.3,3.2,0.1,5.7,2.8l6.9,29.4l-2.3-0.1l-1.9-0.1L120.6,528.7z"/>
			<path class="st1" d="M122.7,527.1c1.3-0.3,3.2,0.1,5.7,2.8l6.9,29.4l-2.3-0.1L122.7,527.1z"/>
			<g>
				<path class="st2" d="M114.8,550.1c0,0-0.6-0.3-2.2,0c0,0,7.6-10.9,15.9-5.1c0,0-2.6,9.3-8.6,12.3l0.1-2c0,0-3.6,5.1-12.3,4.8
					C107.8,560.2,111.1,551.3,114.8,550.1z"/>
				<path class="st3" d="M114.8,550.1c0,0-0.6-0.3-2.2,0c0,0,7.6-10.9,15.9-5.1l-20.7,15.2C107.8,560.2,111.1,551.3,114.8,550.1z"/>
			</g>
			<g>
				<path class="st2" d="M144.3,543.6c0,0,0.6-0.3,2.2-0.2c0,0-8.3-10.4-16.2-4.1c0,0,3.2,9.1,9.3,11.8l-0.3-2c0,0,3.9,4.9,12.6,4.1
					C152,553.2,148,544.6,144.3,543.6z"/>
				<path class="st3" d="M144.3,543.6c0,0,0.6-0.3,2.2-0.2c0,0-8.3-10.4-16.2-4.1l21.6,13.9C152,553.2,148,544.6,144.3,543.6z"/>
			</g>
		</g>
		<g>
			<path class="st1" d="M-27.9,524.4l-11-17.8l-1.8,2l8.7,16.5C-32,525.1-29.4,526.8-27.9,524.4z"/>
			<g>
				<path class="st2" d="M-42.2,520.3c0,0,0.1,0.4-0.3,1.4c0,0,8-3.1,5.6-9.2c0,0-6.2,0.2-9,3.5l1.3,0.2c0,0-3.8,1.5-4.9,6.9
					C-49.6,523.1-43.5,522.4-42.2,520.3z"/>
				<path class="st3" d="M-42.2,520.3c0,0,0.1,0.4-0.3,1.4c0,0,8-3.1,5.6-9.2l-12.7,10.6C-49.6,523.1-43.5,522.4-42.2,520.3z"/>
			</g>
		</g>
	</g>
	<g>
		<path class="st4" d="M94.6,516.7c-2.4-0.7-4.8-1.3-7.2-1.7c1.7-0.4,3.4-0.7,5.2-0.9c1.3-0.1,1.3-2,0-2c-3.5-0.1-7.2,0.1-10.7,0.6
			c-2.2,0.3-4.8,0.5-7,1.3c-6.2-4.9-13-9.3-19.6-13.7c-8-5.4-15.9-11.1-24.3-16c-1.5-0.9-3.4-0.3-4.3,1.1c-0.9,1.6-0.2,3.3,1.1,4.3
			c7.7,5.9,16.1,10.8,24.4,15.8c5.7,3.5,11.5,7.1,17.5,10.2c-0.6,0.2-1.2,0.3-1.8,0.5c-2.3,0.7-4.8,1.4-6.8,2.8
			c-1,0.7-0.6,2.3,0.6,2.4c2.5,0.1,5-0.5,7.4-0.8c2.3-0.2,4.5-0.5,6.8-0.9c0.2,0,0.3,0.1,0.5,0.1c2.9,0.1,6-0.4,8.9-0.6
			c2.9-0.2,5.9-0.4,8.9-0.4C95.5,518.7,95.7,517,94.6,516.7z"/>
		<path class="st4" d="M46,516c-2.4-0.7-4.8-1.3-7.2-1.7c1.7-0.4,3.4-0.7,5.2-0.9c1.3-0.1,1.3-2,0-2c-3.5-0.1-7.2,0.1-10.7,0.6
			c-2,0.3-4.3,0.5-6.4,1.1c-4.4-5.2-8.5-10.6-13-15.8c-4.9-5.6-9.7-11.4-15.1-16.5c-3-2.9-7,1.4-4.5,4.5c4.7,5.8,10,11.1,15.2,16.4
			c4.3,4.4,8.9,8.6,13.3,12.9c-1.2,0.3-2.3,0.6-3.4,1c-2.3,0.7-4.8,1.4-6.8,2.8c-1,0.7-0.6,2.3,0.6,2.4c2.5,0.1,5-0.5,7.4-0.8
			c2.3-0.2,4.5-0.5,6.8-0.9c0.2,0,0.3,0.1,0.5,0.1c2.9,0.1,6-0.4,8.9-0.6c2.9-0.2,5.9-0.4,8.9-0.4C46.9,518,47.1,516.3,46,516z"/>
		<path class="st5" d="M-22.7,473.1c-6.9-13.3-13.9-26.7-20.8-40c-1-1.9-2-3.8-3-5.7c-0.1-0.3-0.4-0.3-0.6-0.3
			c-0.1,0-0.2,0.1-0.4,0.2c-7.2,7-10.6,16.2-13.7,25.6c-1.6,4.9-3.2,9.8-5.5,14.3c-2.6,5-6,9-10.1,12.8
			c-19.9,18.8-40.6,37-60.6,55.7c-2.5,2.3-5.6,4.6-7.6,7.4c-1,1.4-1.8,3.7,0,4.9c1.9,1.2,4.8,0.1,6.5-0.7c1-0.4,1.9-0.9,2.8-1.5
			c-3.2,3.7-6.2,8.3-2.6,9.9c2,0.9,4.7-0.3,6.5-1.2c1.7-0.8,3.2-1.8,4.6-2.9c-0.5,0.8-0.9,1.6-1.3,2.5c-0.6,1.3-1.3,3-0.7,4.4
			c1.3,3,5.6,0.6,7.3-0.4c1.5-0.9,2.7-2.2,4-3.4c2.1-2.1,4.2-4.2,6.3-6.3c3.7-3.7,7.4-7.4,11-11.1c14.9-14.9,29.9-29.8,46.6-42.8
			c9.7-7.6,20-14.5,30.8-20.5C-22.7,473.8-22.6,473.4-22.7,473.1z"/>
		<path class="st6" d="M91.7,388.4c0.2-2.3,2.5-4.9,3.8-6.7c1.6-2.2,3.4-4.2,5.2-6.3c2.3-2.7,4.3-5.5,5.5-8.9
			c1.3-3.7,1.5-7.8,1.6-11.7c0.1-3.4-0.1-6.9-0.8-10.3c-1.3-6.2-5-11.3-9.5-15.6c-3.3-3.2-6.8-6-10.4-8.8c-2.8-2.3-5.1-5.7-7.5-8.5
			c-4.1-4.9-8.1-9.8-12.3-14.6c-3.3-3.9-6.5-7.9-10.2-11.4c-1.3-1.2-2.6-2.3-4-3.5c-1.9-1.7-4.2-4-6.6-5c-2.6-1-3,2.5-2.8,4.3
			c0.3,2.2,1.2,4.1,1.9,6.1c0.3,1,0.6,1.9,0.9,2.8c-1.6-0.9-3.3-1.7-4.9-2.3c-1.5-0.6-2.8-0.5-3.2,1.2c-0.5,2-0.2,4.7,0.4,6.6
			c0.7,2.2,1.7,4,2,6.2c-1.7-1.9-4.5-3.4-6.8-2.7c-2.9,0.9-1.1,4.6-0.2,6.4c0.8,1.6,1.6,3.3,2.5,4.9c1.2,2.1,3,4.1,2.5,6.7
			c-0.4,2.3-3.1,4.1-4.7,5.7c-1.3,1.3-2.6,2.7-3.7,4.2c-2.1,2.6-3.8,5.5-5.5,8.3c-2.7,4.6-5.4,9-8.7,13.2c-3.3,4.1-6.8,8.3-10.6,12"
			/>
		<path class="st5" d="M5.7,360.7c-4.1,4-8.7,7.4-13.2,10.8c-15,11.5-27.7,25.4-37.3,41.7c-9.5,16.2-15.8,34.2-18.3,52.8
			c-0.6,4.7-1,9.4-1.2,14.1c-0.1,4.2,0.2,8.1,4.4,10.1c1.8,0.9,3.9,1.3,5.9,1.8c2.9,0.7,5.9,1.3,8.8,1.8c5.5,1,11,1.7,16.5,2.2
			c19.2,1.7,39.3,0.7,58-4.1c15.9-4.1,30.4-12,41.5-24.2c6.5-7.1,12.1-15.3,15.8-24.3c3.5-8.3,5.2-17.2,5.8-26.2
			c0.3-4.7,0.2-9.4,0.1-14.1c-0.1-2.3-0.2-4.7-0.3-7c-0.1-2.6-0.7-5.3-0.5-7.9"/>
		<path class="st7" d="M107.2,347c-0.4-2.6-0.8-5.4-1.8-7.8c-0.3-0.7-0.7-1.3-1.4-1.5c-1.1-0.2-2.6,0.1-3.7,0.2
			c-1.6,0.1-3.2,0.2-4.8,0.4c-3.6,0.4-8.7,1.1-11.3,4c-2.4,2.7-0.8,6.4,0.8,9.1c2.8,4.6,5.2,9.4,5.7,14.9c0.4,3.9-0.2,7.8,0.2,11.7
			c0.1,1.3,0.2,6.4,2,6.7c1,0.2,1.8-1.8,2.2-2.4c2-2.7,4.1-5.2,6.2-7.7c3.1-3.8,5.5-8.1,6.6-12.9C109,356.8,107.9,351.9,107.2,347z"
			/>
		<g>
			<path class="st8" d="M85.1,339.5c-2.1-0.3-5,0-6,2.3c-1,2.4,0.8,5.4,3.1,6.2c2.7,1,5.4-0.4,6.5-2.9C90,342.1,87.9,340,85.1,339.5
				z"/>
			<path class="st9" d="M81.8,341.4c-0.5-0.3-1.3-0.2-1.6,0.6c-0.2,0.5,0,1,0.4,1.3c0.4,0.3,1,0.2,1.4-0.1c0.3-0.2,0.4-0.5,0.4-0.9
				C82.4,342,82.3,341.6,81.8,341.4z"/>
		</g>
		<g>
			<path class="st10" d="M127.8,358.4c-5.2-7.3-12.6-11.3-20.7-14.6c-0.1,0-0.1-0.1-0.2-0.1c-0.1,0-0.2-0.1-0.3,0
				c-1.1-0.1-2.1,0.9-2.9,1.5c-1.7,1.3-3.2,2.9-4.5,4.6c-2.7,3.5-4.3,9.8-2.5,14c0.9,2.1,2.7,1.8,4.6,1.8c2.7,0,5.3-0.2,8-0.6
				c6.4-0.9,12.5-3,18.3-5.8C127.8,359,127.9,358.6,127.8,358.4z"/>
			<g>
				<path class="st11" d="M126.8,358.7c-4.6-0.5-9.1-0.8-13.6-1.6c-5-0.9-9.9-2-14.8-3c-0.8-0.2-1.2,1.1-0.4,1.3
					c5.2,1.1,10.4,2.2,15.7,3c4.3,0.7,8.8,1.1,13.1,0.4C126.9,358.9,126.9,358.7,126.8,358.7L126.8,358.7z"/>
			</g>
		</g>
		<path class="st7" d="M77.4,387.7c-5-9.4-15.4-14.7-25.9-15.1c-5.6-0.2-10.7,1.2-16,3.1c-5.8,2.1-11.4,4.6-16.9,7.3
			c-23.6,12-45.1,29.2-62.2,49.4c-4.6,5.4-8.9,11.1-12.7,17c-3.4,5.2-8.4,12.2-5.4,18.6c0.2,0.4,0.7,0.3,0.9,0.1
			c2.3-1.9,4.6-3.7,6.9-5.6c-1.7,2.2-3.3,4.6-4.6,7.1c-1.8,3.4-4.3,7.9-3.3,11.9c1.1,4.6,5.9,2.9,9.1,1.6c3-1.2,5.9-2.8,8.5-4.7
			c-0.5,0.6-0.9,1.2-1.4,1.7c-1.3,1.6-3.2,3.4-3.9,5.4c-1.1,3,1.5,4.6,4.1,4.7c3.9,0.2,8.2-1.1,11.9-2.3c2.7-0.9,5.3-2.1,7.7-3.5
			c-1.1,1.5-1.9,3.1-2.5,4.8c-0.1,0.3,0.1,0.6,0.4,0.7c5,1.5,9.9-1.9,14.2-4c5.2-2.6,10.5-5.2,15.7-7.8
			c10.7-5.3,21.3-10.8,31.8-16.4c9.5-5.1,19-10.6,26.7-18.2c7-6.9,12.6-15.2,16.3-24.3C81,409.3,82.4,397.6,77.4,387.7z"/>
		<path class="st12" d="M75.9,387.4c-5-9.4-15.4-14.7-25.9-15.1c-5.6-0.2-10.7,1.2-16,3.1c-5.8,2.1-11.4,4.6-16.9,7.3
			c-23.6,12-45.1,29.2-62.2,49.4c-4.6,5.4-8.9,11.1-12.7,17c-3.4,5.2-8.4,12.2-5.4,18.6c0.2,0.4,0.7,0.3,0.9,0.1
			c2.3-1.9,4.6-3.7,6.9-5.6c-1.7,2.2-3.3,4.6-4.6,7.1c-1.8,3.4-4.3,7.9-3.3,11.9c1.1,4.6,5.9,2.9,9.1,1.6c3-1.2,5.9-2.8,8.5-4.7
			c-0.5,0.6-0.9,1.2-1.4,1.7c-1.3,1.6-3.2,3.4-3.9,5.4c-1.1,3,1.5,4.6,4.1,4.7c3.9,0.2,8.2-1.1,11.9-2.3c2.7-0.9,5.3-2.1,7.7-3.5
			c-1.1,1.5-1.9,3.1-2.5,4.8c-0.1,0.3,0.1,0.6,0.4,0.7c5,1.5,9.9-1.9,14.2-4c5.2-2.6,10.5-5.2,15.7-7.8
			c10.7-5.3,21.3-10.8,31.8-16.4c9.5-5.1,19-10.6,26.7-18.2c7-6.9,12.6-15.2,16.3-24.3C79.4,409.1,80.9,397.4,75.9,387.4z"/>
		<g>
			<path class="st7" d="M-137.3,543.5c10.6-8.3,20.6-17.5,30.6-26.6c9.9-9,19.7-18.2,29.3-27.4c5.5-5.3,11-10.6,16.4-16
				c0.6-0.6-0.4-1.6-1-1c-19,19-38.6,37.4-58.7,55.3c-5.7,5.1-11.5,10.1-17,15.3C-137.9,543.4-137.6,543.8-137.3,543.5L-137.3,543.5
				z"/>
		</g>
		<g>
			<path class="st7" d="M-137,553.2c11.6-8.8,22.3-19.1,33-28.9c10.9-10.1,21.7-20.3,32.4-30.6c6.1-5.9,12.1-11.9,18.1-17.9
				c0.5-0.5-0.3-1.3-0.8-0.8c-20.9,21-42.4,41.2-64.4,61.1c-6.2,5.6-12.6,11-18.5,16.9C-137.4,553.1-137.2,553.4-137,553.2
				L-137,553.2z"/>
		</g>
		<g>
			<path class="st7" d="M-124.9,551.3c10.8-8.2,20.6-17.7,30.5-26.9c10.1-9.4,19.9-19.1,29.5-29c5.5-5.6,11-11.3,16.3-17.1
				c0.5-0.6-0.3-1.5-0.9-0.9c-18.8,20-38.3,39.2-58.5,57.8c-5.7,5.2-11.6,10.3-17.1,15.7C-125.2,551.1-125,551.4-124.9,551.3
				L-124.9,551.3z"/>
		</g>
		<g>
			<path class="st7" d="M48.4,291c1.7,1.6,3.2,3.6,4.8,5.3c1.8,2,3.6,4.1,5.3,6.2c3.3,3.9,6.3,8,9.6,11.9c0.5,0.6,1.5-0.2,1-0.8
				c-3-4-6.2-7.9-9.5-11.8c-1.7-2-3.4-3.9-5.2-5.8C52.5,294.2,50.5,292.6,48.4,291C48.4,290.9,48.4,291,48.4,291L48.4,291z"/>
		</g>
		<g>
			<path class="st7" d="M48.7,283.1c9.1,10.2,18.1,20.4,26,31.5c0.5,0.7,1.6,0.1,1.1-0.7c-3.6-5.7-8.1-11-12.5-16
				c-4.5-5.3-9.2-10.4-14.2-15.3C48.9,282.4,48.4,282.8,48.7,283.1L48.7,283.1z"/>
		</g>
		<g>
			<path class="st7" d="M41.4,292.8c6.2,7.2,11.9,14.7,17.7,22.2c0.4,0.5,1.4-0.2,1-0.7c-2.9-3.7-5.7-7.5-8.7-11.2
				c-3-3.7-6-7.5-9.6-10.6C41.5,292.2,41.2,292.5,41.4,292.8L41.4,292.8z"/>
		</g>
		<g>
			<path class="st7" d="M41.4,303.3c4.2,4.3,7.9,8.8,11.7,13.5c0.4,0.5,1.3-0.2,0.9-0.7c-3.4-4.9-7.6-9.4-12.1-13.3
				C41.6,302.5,41.1,303,41.4,303.3L41.4,303.3z"/>
		</g>
		<g>
			<path class="st7" d="M34.6,303c4.9,4.9,8.9,10.5,12.8,16.2c0.4,0.6,1.5,0.1,1.1-0.6c-3.7-5.8-8.2-11.5-13.4-16.1
				C34.8,302.3,34.3,302.7,34.6,303L34.6,303z"/>
		</g>
		<g>
			<path class="st7" d="M78.6,329.9c0.5,0.5,1.1,1,1.6,1.5c0.5,0.6,0.9,1.2,1.4,1.7c0.8,0.9,2.4-0.3,1.7-1.3c-1-1.3-2.5-2.5-4.1-3
				C78.6,328.8,78.2,329.5,78.6,329.9L78.6,329.9z"/>
		</g>
		<g>
			<path class="st7" d="M84.7,329.9c1,1.1,1.7,2.3,2.3,3.6c0.5,1,2.3,0.3,1.8-0.8c-0.7-1.6-2-2.8-3.6-3.5
				C84.8,329,84.3,329.5,84.7,329.9L84.7,329.9z"/>
		</g>
		<g>
			<path class="st7" d="M86,326.1c1.2,0.6,2.2,1.4,3,2.5c0.8,1.2,2.5-0.1,1.6-1.2c-1.1-1.3-2.7-2-4.3-2.2
				C85.8,325.1,85.6,325.9,86,326.1L86,326.1z"/>
		</g>
		<g>
			<path class="st7" d="M95.5,332.9c0.3,0.5,0.6,1,0.8,1.6c0.2,0.6,0.9,0.9,1.4,0.5c0.5-0.4,0.4-1.1-0.1-1.5
				c-0.5-0.3-0.9-0.8-1.3-1.2C95.9,331.8,95.2,332.4,95.5,332.9L95.5,332.9z"/>
		</g>
		<g>
			<path class="st7" d="M74.5,354.4c0.4,1.8,0.3,3.4-0.5,5.1c-0.6,1.2,1.2,2.2,1.8,1c1-2,1.1-4.6-0.2-6.6
				C75.2,353.4,74.4,353.8,74.5,354.4L74.5,354.4z"/>
		</g>
		<g>
			<path class="st7" d="M79.3,358.6c-0.4,1.3-0.7,2.6-1.4,3.8c-0.7,1.2,1.3,2.1,1.8,0.8c0.6-1.4,0.8-3.1,0.4-4.6
				C80.1,358.2,79.5,358.2,79.3,358.6L79.3,358.6z"/>
		</g>
		<g>
			<path class="st7" d="M78.6,351.3c0.1,0.4,0.1,0.7,0.2,1.1c0.1,0.4,0.1,0.7,0.2,1.1c0.1,0.5,0.7,0.7,1.2,0.6
				c0.5-0.2,0.6-0.8,0.4-1.2c-0.2-0.3-0.4-0.6-0.5-0.9c-0.2-0.3-0.3-0.6-0.5-1C79.2,350.4,78.5,350.7,78.6,351.3L78.6,351.3z"/>
		</g>
		<g>
			<path class="st7" d="M44.2,329.2c-0.7,2-1.8,3.7-2.7,5.6c-0.6,1.1,1,2,1.6,1c1.1-1.9,1.7-4.1,2.1-6.3
				C45.4,328.8,44.5,328.6,44.2,329.2L44.2,329.2z"/>
		</g>
		<g>
			<path class="st7" d="M46.5,333.9c-0.4,1.2-1.1,2.1-2,3.1c-0.7,0.9,0.6,2.2,1.3,1.3c0.9-1.2,1.5-2.7,1.7-4.2
				C47.7,333.5,46.8,333.2,46.5,333.9L46.5,333.9z"/>
		</g>
		<g>
			<path class="st7" d="M31.7,339.4c-1.1,1.9-1.8,3.9-2.1,6c-0.1,1.2,1.9,1.3,1.9,0c0-1.9,0.3-3.8,1-5.5
				C32.7,339.4,32,338.9,31.7,339.4L31.7,339.4z"/>
		</g>
		<g>
			<path class="st7" d="M34.3,344.3c-0.4,1.5-0.7,3-0.7,4.6c-0.1,1.4,2.2,1.2,1.9-0.3c-0.3-1.4-0.3-2.8-0.2-4.2
				C35.3,343.8,34.4,343.8,34.3,344.3L34.3,344.3z"/>
		</g>
		<g>
			<path class="st7" d="M62.3,326.5c0.6,0.7,0.9,1.7,0.9,2.6c0,1.3,2.1,1,1.8-0.2c-0.3-1.2-1-2.2-1.9-3.1
				C62.6,325.2,61.9,325.9,62.3,326.5L62.3,326.5z"/>
		</g>
		<g>
			<path class="st7" d="M58.8,343.1c-0.2,1.4-0.7,2.5-1.4,3.7c-0.5,1,1,1.8,1.5,0.9c0.7-1.4,0.9-3,0.8-4.6
				C59.6,342.5,58.9,342.5,58.8,343.1L58.8,343.1z"/>
		</g>
		<g>
			<path class="st7" d="M60.8,349.3c-0.3,0.4-0.5,0.9-0.8,1.3c-0.3,0.4-0.7,0.7-1.1,1.1c-0.9,0.8,0.5,2.2,1.3,1.3
				c0.8-0.9,1.4-2.1,1.5-3.2C61.9,349.2,61.1,348.7,60.8,349.3L60.8,349.3z"/>
		</g>
		<g>
			<path class="st12" d="M80.6,386.3c0.6,1.1,0.8,2.2,0.8,3.4c-0.1,1.2,1.9,1,1.7-0.2c-0.3-1.3-0.9-2.6-1.8-3.6
				C80.9,385.5,80.4,385.9,80.6,386.3L80.6,386.3z"/>
		</g>
		<g>
			<path class="st12" d="M84.2,387.3c0.9,1.3,1.1,2.8,0.8,4.4c-0.2,1.2,1.6,1.7,1.8,0.5c0.3-2.1-0.3-4.1-1.7-5.7
				C84.7,386,83.8,386.7,84.2,387.3L84.2,387.3z"/>
		</g>
		<g>
			<path class="st7" d="M59.9,364.5c-0.5,1.7-1.4,3-2.4,4.5c-0.6,0.8,0.7,1.8,1.4,1.1c1.2-1.5,1.9-3.3,2.3-5.2
				C61.3,364.1,60.1,363.7,59.9,364.5L59.9,364.5z"/>
		</g>
		<g>
			<path class="st7" d="M63.1,367.5c-0.3,1.2-0.9,2.3-1.9,3c-1,0.7,0.2,2.2,1,1.3c1.1-1.2,1.7-2.6,1.7-4.2
				C63.8,367.1,63.2,367,63.1,367.5L63.1,367.5z"/>
		</g>
		<g>
			<path class="st7" d="M41.1,359.4c-0.4,2.2-1.4,3.8-3.1,5.2c-0.9,0.7,0.4,2,1.3,1.3c1.8-1.5,2.9-4,2.9-6.3
				C42.2,358.9,41.3,358.7,41.1,359.4L41.1,359.4z"/>
		</g>
		<g>
			<path class="st7" d="M42.2,364.1c-0.5,1.5-1.5,2.8-2.9,3.6c-1,0.6,0.1,2.1,1,1.3c1.4-1.2,2.3-2.9,2.7-4.7
				C43.1,363.8,42.4,363.6,42.2,364.1L42.2,364.1z"/>
		</g>
		<g>
			<path class="st7" d="M34,361.8c-0.7,1.1-1.6,2-2.8,2.7c-1,0.6,0.1,2.1,1,1.3c1.1-1,2.1-2.1,2.7-3.4
				C35.3,361.7,34.4,361.2,34,361.8L34,361.8z"/>
		</g>
		<g>
			<path class="st12" d="M14.8,366.4c-1.9,0.9-3.8,2.1-5.4,3.6c-0.8,0.8,0.4,2.1,1.3,1.3c1.5-1.4,3-2.8,4.7-3.9
				C15.9,366.9,15.4,366,14.8,366.4L14.8,366.4z"/>
		</g>
		<g>
			<path class="st12" d="M15.1,371.4c-2.1,0.5-3.8,2.2-4.3,4.2c-0.3,1.1,1.5,1.6,1.7,0.5c0.3-1.7,1.3-3.1,3-3.9
				C15.9,372,15.6,371.3,15.1,371.4L15.1,371.4z"/>
		</g>
		<g>
			<path class="st12" d="M20.3,374.3c-0.3,0.5-0.7,0.9-1.1,1.3c-0.3,0.3-0.3,0.8,0.1,1.1c0.3,0.2,0.9,0.2,1.1-0.2
				c0.3-0.6,0.5-1.1,0.9-1.7c0.1-0.3,0.1-0.6-0.2-0.7C20.7,373.9,20.5,374.1,20.3,374.3L20.3,374.3z"/>
		</g>
		<g>
			<path class="st12" d="M-10.5,382.5C-10.5,382.5-10.4,382.5-10.5,382.5c0.2,0.2,0.3,0.3,0.5,0.3c0.4-0.1,0.6-0.5,0.4-0.9
				c-0.3-0.6-1.1-0.2-1.5,0c-1.6,0.8-3.1,2.2-4,3.8c-0.5,1,0.9,1.8,1.5,0.9c0.5-0.8,0.9-1.6,1.6-2.3c0.3-0.3,0.6-0.6,0.9-0.9
				c0.2-0.2,0.8-0.9,1.1-0.9c-0.1-0.1-0.2-0.2-0.3-0.3c0-0.1,0-0.2,0.1-0.3c0.2,0,0.3,0,0.5,0.1c0,0,0,0-0.1-0.1
				C-10.1,381.6-10.8,382.1-10.5,382.5L-10.5,382.5z"/>
		</g>
		<g>
			<path class="st12" d="M-10.8,387.3c-1.7,0.9-3.1,2.5-3.4,4.4c-0.2,1.1,1.5,1.6,1.7,0.5c0.3-1.6,0.9-3,2.2-4
				C-9.7,387.8-10.1,387-10.8,387.3L-10.8,387.3z"/>
		</g>
		<g>
			<path class="st12" d="M-4.7,386.1c-1,0.7-1.9,1.6-2.6,2.6c-0.6,1,1.1,1.8,1.5,0.6c0.3-1,0.9-1.8,1.6-2.6
				C-3.9,386.4-4.3,385.9-4.7,386.1L-4.7,386.1z"/>
		</g>
		<g>
			<path class="st12" d="M-30.5,401.9c-1.3,1.4-2.4,3.3-2.9,5.2c-0.3,1.2,1.4,1.6,1.8,0.5c0.6-1.8,1.1-3.4,1.9-5
				C-29.4,402.1-30,401.4-30.5,401.9L-30.5,401.9z"/>
		</g>
		<g>
			<path class="st12" d="M-28.4,405.8c-1.2,0.6-2,2-1.9,3.4c0.2,1.3,2.1,1.1,1.8-0.2c-0.2-0.9,0-1.7,0.7-2.3
				C-27.4,406.2-27.9,405.5-28.4,405.8L-28.4,405.8z"/>
		</g>
		<g>
			<path class="st12" d="M-43.6,417.9c-0.8,1.3-1.3,2.7-1.4,4.3c-0.1,1.3,2.1,1.3,2,0c-0.1-1.2,0.1-2.5,0.7-3.5
				C-41.9,417.8-43.1,417.1-43.6,417.9L-43.6,417.9z"/>
		</g>
		<g>
			<path class="st12" d="M82,410.2c0.1,2-0.2,3.6-0.7,5.5c-0.3,1.2,1.5,1.7,1.8,0.5c0.6-1.9,0.5-4.3-0.1-6.2
				C82.8,409.5,81.9,409.6,82,410.2L82,410.2z"/>
		</g>
		<g>
			<path class="st12" d="M85.8,414.9c-0.1,1.5-0.6,2.6-1.5,3.8c-0.7,0.9,0.5,2.1,1.2,1.2c1.1-1.4,1.6-3.4,1.1-5.1
				C86.5,414.3,85.9,414.4,85.8,414.9L85.8,414.9z"/>
		</g>
		<g>
			<path class="st12" d="M88,410.8c0.2,0.7,0.3,1.5,0.2,2.3c-0.2,1.4,2,1.3,1.6,0c-0.2-0.9-0.5-1.8-1-2.6
				C88.6,410,87.9,410.3,88,410.8L88,410.8z"/>
		</g>
		<g>
			<path class="st12" d="M69.3,442.1c-0.2,1.4-0.4,2.8-0.9,4.1c-0.5,1.2,1.4,1.8,1.6,0.7c0.2-1.5,0.5-3.2,0.1-4.7
				C69.9,441.7,69.3,441.7,69.3,442.1L69.3,442.1z"/>
		</g>
		<g>
			<path class="st12" d="M73.9,445.2c-0.3,1.9-1,3.6-2.2,5.1c-0.7,0.9,1,1.9,1.6,0.9c1.1-1.8,1.6-3.8,1.6-5.9
				C74.9,444.7,74,444.6,73.9,445.2L73.9,445.2z"/>
		</g>
		<g>
			<path class="st12" d="M78,442.2c0.3,0.7,0.4,1.3,0.2,2.1c-0.3,1.1,1.5,1.6,1.7,0.5c0.2-1.1-0.2-2.4-1-3.2
				C78.4,441.1,77.7,441.6,78,442.2L78,442.2z"/>
		</g>
		<g>
			<path class="st12" d="M50.1,458c-1.1,1.4-2.2,2.6-3.6,3.6c-1,0.7,0.1,2.2,1.1,1.4c1.4-1.2,2.7-2.8,3.4-4.5
				C51.1,458,50.4,457.6,50.1,458L50.1,458z"/>
		</g>
		<g>
			<path class="st12" d="M50.6,462.4c-1.5,1.7-3,3.4-4.8,4.7c-1.1,0.8,0.2,2.5,1.2,1.5c1.7-1.7,3.2-3.6,4.3-5.8
				C51.4,462.5,50.9,462.1,50.6,462.4L50.6,462.4z"/>
		</g>
		<g>
			<path class="st12" d="M62.1,466c-0.7,1.6-1.4,3-2.3,4.4c-0.6,0.9,0.8,1.7,1.4,0.8c1-1.4,1.7-3.4,1.8-5.1
				C63,465.5,62.3,465.5,62.1,466L62.1,466z"/>
		</g>
		<g>
			<path class="st12" d="M66.8,465c0,0.1-0.3,0.4-0.4,0.5c-0.1,0.2-0.2,0.3-0.2,0.5c-0.2,0.3-0.4,0.7-0.6,1c-0.2,0.3-0.1,0.9,0.3,1
				c0.4,0.2,0.8,0.1,1-0.3c0.3-0.4,0.5-0.9,0.6-1.4c0-0.2,0.1-0.5,0-0.7c0-0.1,0-0.2-0.1-0.3c0-0.1-0.2-0.2-0.2-0.3
				C67.2,464.8,66.9,464.7,66.8,465L66.8,465z"/>
		</g>
		<g>
			<path class="st12" d="M24.8,472.4c-0.7,1-1.5,1.9-2.4,2.7c-0.9,0.8-2,1.3-2.9,2.1c-0.8,0.6-0.1,1.8,0.8,1.4
				c2.3-1.1,4.2-3.5,5.4-5.7C25.9,472.3,25.1,471.8,24.8,472.4L24.8,472.4z"/>
		</g>
		<g>
			<path class="st12" d="M24.5,478.5c-2.3,1.8-4.8,2.8-7.4,3.8c-1.1,0.4-0.6,2.1,0.5,1.7c2.9-1,5.5-2.8,7.8-4.8
				C25.9,478.8,25.1,478,24.5,478.5L24.5,478.5z"/>
		</g>
		<g>
			<path class="st12" d="M29.4,478.4c-0.9,1.2-1.8,2.3-3.1,3.1c-0.9,0.6,0.1,2,0.9,1.2c1.2-1.1,2.3-2.5,2.8-4
				C30.1,478.3,29.6,478.1,29.4,478.4L29.4,478.4z"/>
		</g>
		<g>
			<path class="st12" d="M43.5,479.7c-0.6,1-1.6,1.9-2.7,2.4c-1.1,0.4-0.3,2,0.6,1.4c1.2-0.9,2.2-1.9,2.8-3.3
				C44.5,479.6,43.8,479.2,43.5,479.7L43.5,479.7z"/>
		</g>
		<g>
			<path class="st12" d="M-4.8,485.8c-1.4,1.6-3.2,2.7-5.3,3.2c-1,0.3-0.6,1.9,0.4,1.6c2.3-0.8,4.2-2.2,5.6-4.2
				C-3.8,485.9-4.5,485.4-4.8,485.8L-4.8,485.8z"/>
		</g>
		<g>
			<path class="st12" d="M-0.4,486.4c-0.9,1.2-2.1,2.3-3.4,3.1c-1,0.6,0.1,2.1,1,1.3c1.2-1.2,2.3-2.5,3.2-4
				C0.7,486.4-0.1,486-0.4,486.4L-0.4,486.4z"/>
		</g>
		<g>
			<path class="st12" d="M12,489.6c-0.7,0.8-1.6,1.4-2.6,1.9c-0.9,0.4-0.1,1.9,0.8,1.3c1-0.7,1.9-1.6,2.6-2.6
				C13.2,489.7,12.4,489.2,12,489.6L12,489.6z"/>
		</g>
		<g>
			<path class="st12" d="M76.5,426.7c0.4,1.3,0.5,2.5,0.1,3.8c-0.3,1.1,1.5,1.5,1.6,0.2c0.2-1.5-0.1-3.1-0.9-4.4
				C77.1,425.9,76.3,426.2,76.5,426.7L76.5,426.7z"/>
		</g>
		<g>
			<path class="st7" d="M78.8,372.5c0.5,1.1,0.7,2.2,0.7,3.4c0,1,1.6,1,1.5,0c-0.1-1.4-0.6-2.8-1.5-4
				C79.2,371.4,78.6,372,78.8,372.5L78.8,372.5z"/>
		</g>
		<g>
			<path class="st7" d="M-54.8,462.3c8-5.4,15.6-11.6,23.3-17.5c7.6-5.9,15-12.2,22.1-18.7c0.7-0.7-0.3-1.7-1.1-1.1
				c-7.2,6.4-14.4,12.8-22.1,18.7c-7.6,5.9-15.6,11.4-22.6,18C-55.5,462-55.1,462.5-54.8,462.3L-54.8,462.3z"/>
		</g>
		<g>
			<path class="st7" d="M-25.3,484.7c12.2-5.5,23.8-12.4,35-19.6c11.1-7.1,21.9-14.8,32.2-23c6-4.8,11.9-9.7,17.6-14.9
				c0.7-0.6-0.3-1.5-1-1c-20,17.6-41.4,33.4-64.4,46.8c-6.5,3.8-13.2,7.4-19.8,11.1C-26,484.3-25.7,484.9-25.3,484.7L-25.3,484.7z"
				/>
		</g>
		<g>
			<path class="st7" d="M-43.8,478.2c20.1-11.6,39.4-24.6,57.1-39.6c5.3-4.5,10.5-9.1,15.5-13.9c0.6-0.6-0.3-1.4-0.9-0.9
				c-16.9,15.8-35,30-54.4,42.6c-5.8,3.8-11.7,7.5-17.6,11.2C-44.5,477.8-44.1,478.4-43.8,478.2L-43.8,478.2z"/>
		</g>
		<g>
			<path class="st7" d="M-48.2,487.3c13.2-5.9,25.8-13.1,38.2-20.6c12.4-7.5,24.4-15.5,36.1-24c6.6-4.8,13-9.7,19.3-14.8
				c0.7-0.6-0.3-1.6-1-1C21.6,444.7-2.1,461-27.3,475.2c-7,4-14.1,7.7-21.2,11.6C-48.8,487-48.5,487.4-48.2,487.3L-48.2,487.3z"/>
		</g>
		<g>
			<path class="st7" d="M-58.5,477.7c23.6-16.9,46.7-34.6,69.8-52.1c0.8-0.6,0-1.9-0.8-1.3c-23.3,17.4-46.6,34.8-69.5,52.8
				C-59.3,477.4-58.8,477.9-58.5,477.7L-58.5,477.7z"/>
		</g>
		<g>
			<path class="st7" d="M-60.3,457.6c-0.7-1.1,7.2-7.1,8.2-7.8c3-2.5,6-4.8,9.1-7.1c5.8-4.3,11.8-8.3,17.7-12.4
				c0.8-0.6,0-1.9-0.8-1.3c-6.9,4.7-13.8,9.4-20.3,14.6c-3.2,2.6-6.4,5.2-9.4,8c-1.5,1.4-3.1,2.9-4.5,4.5c-0.5,0.6-0.9,1.1-0.4,1.8
				C-60.5,458.1-60.2,457.8-60.3,457.6L-60.3,457.6z"/>
		</g>
		<g>
			<g>
				<path class="st5" d="M58.3,385.8c0.4,1.9,0.1,3.7-1,5.3c-0.4,0.6,0.6,1.2,1,0.6c1.1-1.8,1.4-4.1,0.6-6.1
					C58.8,385.3,58.3,385.4,58.3,385.8L58.3,385.8z"/>
			</g>
		</g>
		<g>
			<g>
				<path class="st5" d="M62,390.9c-0.7,1.7-1.7,3-3.2,4.2c-0.4,0.3,0.1,1.1,0.6,0.8c1.6-1.2,2.7-2.9,3.1-4.8
					C62.6,390.7,62.1,390.6,62,390.9L62,390.9z"/>
			</g>
		</g>
		<g>
			<g>
				<path class="st5" d="M67,391.9c-0.1,1-0.7,1.8-1.6,2.3c-0.6,0.3,0,1.3,0.5,0.9c1.1-0.7,1.7-1.8,1.8-3.1
					C67.9,391.5,67.1,391.4,67,391.9L67,391.9z"/>
			</g>
		</g>
		<g>
			<g>
				<path class="st5" d="M52.1,409.6c-0.3,2-1.6,3.6-3.5,4.3c-0.6,0.2-0.3,1.2,0.3,1c2.2-0.9,3.6-2.8,3.8-5.2
					C52.8,409.3,52.2,409.2,52.1,409.6L52.1,409.6z"/>
			</g>
		</g>
		<g>
			<g>
				<path class="st5" d="M54.8,414.5c-0.7,1.6-1.9,2.9-3.4,3.8c-0.6,0.4,0,1.3,0.5,0.9c1.6-1.1,2.8-2.6,3.5-4.4
					C55.6,414.4,55,414,54.8,414.5L54.8,414.5z"/>
			</g>
		</g>
		<g>
			<g>
				<path class="st5" d="M57.1,408c-0.1,0.7-0.4,1.3-1.1,1.7c-0.5,0.4,0.1,1.2,0.6,0.7c0.7-0.6,1.1-1.5,1.1-2.4
					C57.7,407.8,57.2,407.7,57.1,408L57.1,408z"/>
			</g>
		</g>
		<g>
			<g>
				<path class="st5" d="M35.1,385.8c-1.9,0.9-3.6,2.1-5,3.7c-0.5,0.5,0.3,1.2,0.7,0.7c1.3-1.5,2.8-2.8,4.6-3.8
					C35.9,386.2,35.5,385.6,35.1,385.8L35.1,385.8z"/>
			</g>
		</g>
		<g>
			<g>
				<path class="st5" d="M35.6,391.6c-1.9,1.1-3.4,2.8-4.2,4.9c-0.3,0.6,0.8,1,1.1,0.3c0.7-1.9,1.8-3.5,3.4-4.7
					C36.2,391.9,35.9,391.5,35.6,391.6L35.6,391.6z"/>
			</g>
		</g>
		<g>
			<g>
				<path class="st5" d="M41.3,386.7c-0.4,0.3-0.9,0.7-1.3,1c-0.5,0.4,0,1.2,0.6,0.7c0.4-0.4,0.8-0.7,1.3-1.1
					C42.2,387,41.7,386.4,41.3,386.7L41.3,386.7z"/>
			</g>
		</g>
		<g>
			<g>
				<path class="st5" d="M46.7,397.4c-0.7,0.6-1.4,1.2-2.1,1.8c-0.5,0.4,0.2,1.2,0.7,0.7c0.7-0.6,1.3-1.3,2-1.9
					C47.6,397.6,47.1,397.1,46.7,397.4L46.7,397.4z"/>
			</g>
		</g>
		<g>
			<g>
				<path class="st5" d="M69.4,407.2c-0.5,1.3-1.1,2.6-1.9,3.7c-0.4,0.6,0.6,1.1,0.9,0.5c0.8-1.3,1.4-2.6,1.9-4
					C70.5,406.9,69.6,406.7,69.4,407.2L69.4,407.2z"/>
			</g>
		</g>
		<g>
			<g>
				<path class="st5" d="M25.8,410.5c-1.5,1.1-2.9,2.3-4,3.8c-0.4,0.5,0.5,1,0.8,0.5c1-1.4,2.1-2.8,3.5-3.9
					C26.4,410.7,26,410.3,25.8,410.5L25.8,410.5z"/>
			</g>
		</g>
		<g>
			<g>
				<path class="st5" d="M26.9,414.7c-0.7,1.1-1.5,2.2-2.3,3.3c-0.4,0.5,0.5,1.1,0.9,0.5c0.7-1.1,1.3-2.3,2-3.4
					C27.8,414.7,27.2,414.3,26.9,414.7L26.9,414.7z"/>
			</g>
		</g>
		<g>
			<g>
				<path class="st5" d="M31.3,413.2c-0.3,0.8-0.7,1.5-1.3,2.1c-0.4,0.4,0.3,1,0.6,0.6c0.6-0.8,1.1-1.6,1.3-2.5
					C32.1,413,31.4,412.8,31.3,413.2L31.3,413.2z"/>
			</g>
		</g>
		<g>
			<g>
				<path class="st5" d="M5.2,398.7c-1.3,0.6-2.3,1.9-2.5,3.3c-0.1,0.6,0.9,0.9,1,0.3c0.3-1.2,0.9-2.2,2-2.8
					C6.1,399.2,5.7,398.4,5.2,398.7L5.2,398.7z"/>
			</g>
		</g>
		<g>
			<g>
				<path class="st5" d="M7.7,402.6c-1.4,1.3-2.5,2.8-3.3,4.4c-0.3,0.6,0.6,1.1,0.9,0.5c0.7-1.7,1.7-3.1,2.9-4.4
					C8.5,402.8,8,402.3,7.7,402.6L7.7,402.6z"/>
			</g>
		</g>
		<g>
			<g>
				<path class="st5" d="M12.8,400.6c-0.1,1.4-0.6,2.6-1.5,3.6c-0.4,0.4,0.3,1.1,0.7,0.7c1-1.2,1.5-2.7,1.5-4.2
					C13.4,400.2,12.9,400.2,12.8,400.6L12.8,400.6z"/>
			</g>
		</g>
		<g>
			<g>
				<path class="st5" d="M21.2,389.1c-0.6,0.6-1.2,1.2-1.9,1.8c-0.4,0.4,0.2,1.1,0.7,0.7c0.6-0.6,1.2-1.2,1.8-1.9
					C22.1,389.3,21.6,388.8,21.2,389.1L21.2,389.1z"/>
			</g>
		</g>
		<g>
			<g>
				<path class="st5" d="M-14.6,409.8c-1.7,1-3,2.7-3.3,4.7c-0.1,0.6,0.9,0.9,1,0.3c0.3-1.8,1.2-3.3,2.7-4.4
					C-13.9,410.1-14.2,409.5-14.6,409.8L-14.6,409.8z"/>
			</g>
		</g>
		<g>
			<g>
				<path class="st5" d="M-11.8,413.6c-1.1,1.3-1.9,2.7-2.4,4.3c-0.2,0.7,0.9,1,1,0.3c0.3-1.5,1-2.9,1.9-4.1
					C-10.9,413.7-11.5,413.3-11.8,413.6L-11.8,413.6z"/>
			</g>
		</g>
		<g>
			<g>
				<path class="st5" d="M4.2,417.4c-0.4,0.3-0.7,0.7-1.1,1c-0.5,0.5,0.3,1.2,0.7,0.7c0.3-0.4,0.7-0.7,1-1.1
					C5.3,417.6,4.7,417,4.2,417.4L4.2,417.4z"/>
			</g>
		</g>
		<g>
			<g>
				<path class="st5" d="M52.2,377c-1.2-0.2-2.4,0.3-3.2,1.2c-0.4,0.5,0.3,1.1,0.7,0.5c0.6-0.8,1.5-1.1,2.5-1.1
					C52.6,377.6,52.6,377.1,52.2,377L52.2,377z"/>
			</g>
		</g>
		<g>
			<g>
				<path class="st5" d="M56.4,377.3c-1.3-0.2-2.4,0.3-3.1,1.4c-0.4,0.6,0.5,1.1,0.9,0.5c0.5-0.7,1.3-1.2,2.1-1.2
					C56.7,378,56.8,377.4,56.4,377.3L56.4,377.3z"/>
			</g>
		</g>
	</g>
</g>
</svg>
