<?xml version="1.0" encoding="utf-8"?>
<!-- Generator: Adobe Illustrator 19.0.0, SVG Export Plug-In . SVG Version: 6.00 Build 0)  -->
<svg version="1.1" id="Cadenalito" xmlns="http://www.w3.org/2000/svg" xmlns:xlink="http://www.w3.org/1999/xlink" x="0px" y="0px"
	 viewBox="-147 270.9 300 300" style="enable-background:new -147 270.9 300 300;" xml:space="preserve">
<style type="text/css">
	.st0{fill:#603C1A;}
	.st1{fill:#381E12;}
	.st2{fill:#4B835E;}
	.st3{opacity:0.5;fill:#4B835E;enable-background:new    ;}
	.st4{fill:#F1CA90;}
	.st5{fill:#CD4B50;}
	.st6{fill:#53594E;}
	.st7{fill:#2E363D;}
	.st8{fill:#192632;}
	.st9{fill:#FFFFFF;}
	.st10{fill:#DFE2E3;}
	.st11{fill:#6E6E6E;}
	.st12{fill:#C2323C;}
</style>
<g>
	<g>
		<g>
			<path class="st0" d="M147.2,511.8c0,1.6-0.3,3.2-0.9,4.8c-0.5,1.1-1.1,2.2-2,3.3c0,0-44.9-10.6-55.7-10.6s-22.6-0.7-32.9-1.8
				c-10.3-1.2-32.2-3.2-39-2.4s-27.1,4.5-36.4,7.1c-9.3,2.6-24.6,5.7-24.6,5.7s-1.1-0.5-2-1.9c-0.6-1-1.1-2.5-1-4.5
				c0,0,28.5-6.8,35.5-9.1c7-2.4,23.9-3.3,25.1-3.3c1.3,0,31-0.8,38.6-0.4s25,2.8,34.6,1.7C96,499.2,136.6,511.9,147.2,511.8z"/>
			<path class="st1" d="M146.2,516.6c-0.5,1.1-1.1,2.2-2,3.3c0,0-44.9-10.6-55.7-10.6s-22.6-0.7-32.9-1.8c-10.3-1.2-32.2-3.2-39-2.4
				s-27.1,4.5-36.4,7.1c-9.3,2.6-24.6,5.7-24.6,5.7s-1.1-0.5-2-1.9c9.3-2.5,32.7-8.6,41.8-10.7c11.7-2.7,16-2.6,30.7-3.3
				s24.7,1.3,37.9,2.6c13.3,1.3,24.3,1,30.6,1.2C99.9,505.9,135.6,514.1,146.2,516.6z"/>
		</g>
		<g>
			<path class="st0" d="M121.7,512.7c0,0,0.7-1.3,2.1-1.6c1.3-0.3,3.2,0.1,5.7,2.8l6.9,29.4l-2.3-0.1l-1.9-0.1L121.7,512.7z"/>
			<path class="st1" d="M123.8,511.1c1.3-0.3,3.2,0.1,5.7,2.8l6.9,29.4l-2.3-0.1L123.8,511.1z"/>
			<g>
				<path class="st2" d="M115.9,534.1c0,0-0.6-0.3-2.2,0c0,0,7.6-10.9,15.9-5.1c0,0-2.6,9.3-8.6,12.3l0.1-2c0,0-3.6,5.1-12.3,4.8
					C108.9,544.2,112.2,535.3,115.9,534.1z"/>
				<path class="st3" d="M115.9,534.1c0,0-0.6-0.3-2.2,0c0,0,7.6-10.9,15.9-5.1l-20.7,15.2C108.9,544.2,112.2,535.3,115.9,534.1z"/>
			</g>
			<g>
				<path class="st2" d="M145.4,527.6c0,0,0.6-0.3,2.2-0.2c0,0-8.3-10.4-16.2-4.1c0,0,3.2,9.1,9.3,11.8l-0.3-2c0,0,3.9,4.9,12.6,4.1
					C153.1,537.2,149.1,528.6,145.4,527.6z"/>
				<path class="st3" d="M145.4,527.6c0,0,0.6-0.3,2.2-0.2c0,0-8.3-10.4-16.2-4.1l21.6,13.9C153.1,537.2,149.1,528.6,145.4,527.6z"
					/>
			</g>
		</g>
		<g>
			<path class="st1" d="M-26.8,508.4l-11-17.8l-1.8,2l8.7,16.5C-30.9,509.1-28.3,510.8-26.8,508.4z"/>
			<g>
				<path class="st2" d="M-41.1,504.3c0,0,0.1,0.4-0.3,1.4c0,0,8-3.1,5.6-9.2c0,0-6.2,0.2-9,3.5l1.3,0.2c0,0-3.8,1.5-4.9,6.9
					C-48.5,507.1-42.4,506.4-41.1,504.3z"/>
				<path class="st3" d="M-41.1,504.3c0,0,0.1,0.4-0.3,1.4c0,0,8-3.1,5.6-9.2l-12.7,10.6C-48.5,507.1-42.4,506.4-41.1,504.3z"/>
			</g>
		</g>
	</g>
	<g>
		<path class="st4" d="M95.7,500.7c-2.4-0.7-4.8-1.3-7.2-1.7c1.7-0.4,3.4-0.7,5.2-0.9c1.3-0.1,1.3-2,0-2c-3.5-0.1-7.2,0.1-10.7,0.6
			c-2.2,0.3-4.8,0.5-7,1.3c-6.2-4.9-13-9.3-19.6-13.7c-8-5.4-15.9-11.1-24.3-16c-1.5-0.9-3.4-0.3-4.3,1.1c-0.9,1.6-0.2,3.3,1.1,4.3
			c7.7,5.9,16.1,10.8,24.4,15.8c5.7,3.5,11.5,7.1,17.5,10.2c-0.6,0.2-1.2,0.3-1.8,0.5c-2.3,0.7-4.8,1.4-6.8,2.8
			c-1,0.7-0.6,2.3,0.6,2.4c2.5,0.1,5-0.5,7.4-0.8c2.3-0.2,4.5-0.5,6.8-0.9c0.2,0,0.3,0.1,0.5,0.1c2.9,0.1,6-0.4,8.9-0.6
			c2.9-0.2,5.9-0.4,8.9-0.4C96.6,502.7,96.8,501,95.7,500.7z"/>
		<path class="st4" d="M47.1,500c-2.4-0.7-4.8-1.3-7.2-1.7c1.7-0.4,3.4-0.7,5.2-0.9c1.3-0.1,1.3-2,0-2c-3.5-0.1-7.2,0.1-10.7,0.6
			c-2,0.3-4.3,0.5-6.4,1.1c-4.4-5.2-8.5-10.6-13-15.8c-4.9-5.6-9.7-11.4-15.1-16.5c-3-2.9-7,1.4-4.5,4.5c4.7,5.8,10,11.1,15.2,16.4
			c4.3,4.4,8.9,8.6,13.3,12.9c-1.2,0.3-2.3,0.6-3.4,1c-2.3,0.7-4.8,1.4-6.8,2.8c-1,0.7-0.6,2.3,0.6,2.4c2.5,0.1,5-0.5,7.4-0.8
			c2.3-0.2,4.5-0.5,6.8-0.9c0.2,0,0.3,0.1,0.5,0.1c2.9,0.1,6-0.4,8.9-0.6c2.9-0.2,5.9-0.4,8.9-0.4C48,502,48.2,500.3,47.1,500z"/>
		<path class="st5" d="M-21.6,457.1c-6.9-13.3-13.9-26.7-20.8-40c-1-1.9-2-3.8-3-5.7c-0.1-0.3-0.4-0.3-0.6-0.3
			c-0.1,0-0.2,0.1-0.4,0.2c-7.2,7-10.6,16.2-13.7,25.6c-1.6,4.9-3.2,9.8-5.5,14.3c-2.6,5-6,9-10.1,12.8
			c-19.9,18.8-40.6,37-60.6,55.7c-2.5,2.3-5.6,4.6-7.6,7.4c-1,1.4-1.8,3.7,0,4.9c1.9,1.2,4.8,0.1,6.5-0.7c1-0.4,1.9-0.9,2.8-1.5
			c-3.2,3.7-6.2,8.3-2.6,9.9c2,0.9,4.7-0.3,6.5-1.2c1.7-0.8,3.2-1.8,4.6-2.9c-0.5,0.8-0.9,1.6-1.3,2.5c-0.6,1.3-1.3,3-0.7,4.4
			c1.3,3,5.6,0.6,7.3-0.4c1.5-0.9,2.7-2.2,4-3.4c2.1-2.1,4.2-4.2,6.3-6.3c3.7-3.7,7.4-7.4,11-11.1c14.9-14.9,29.9-29.8,46.6-42.8
			c9.7-7.6,20-14.5,30.8-20.5C-21.6,457.8-21.5,457.4-21.6,457.1z"/>
		<path class="st6" d="M92.8,372.4c0.2-2.3,2.5-4.9,3.8-6.7c1.6-2.2,3.4-4.2,5.2-6.3c2.3-2.7,4.3-5.5,5.5-8.9
			c1.3-3.7,1.5-7.8,1.6-11.7c0.1-3.4-0.1-6.9-0.8-10.3c-1.3-6.2-5-11.3-9.5-15.6c-3.3-3.2-6.8-6-10.4-8.8c-2.8-2.3-10.7-6.8-22-7.6
			c-24.4-0.1-29.6,8.4-31.2,10c-1.3,1.3-2.4,3.2-3.5,4.7c-2.1,2.6-3.8,5.5-5.5,8.3c-2.7,4.6-5.4,9-8.7,13.2
			c-3.3,4.1-6.8,8.3-10.6,12"/>
		<path class="st5" d="M6.8,344.7c-4.1,4-8.7,7.4-13.2,10.8c-15,11.5-27.7,25.4-37.3,41.7c-9.5,16.2-15.8,34.2-18.3,52.8
			c-0.6,4.7-1,9.4-1.2,14.1c-0.1,4.2,0.2,8.1,4.4,10.1c1.8,0.9,3.9,1.3,5.9,1.8c2.9,0.7,5.9,1.3,8.8,1.8c5.5,1,11,1.7,16.5,2.2
			c19.2,1.7,39.3,0.7,58-4.1c15.9-4.1,30.4-12,41.5-24.2c6.5-7.1,12.1-15.3,15.8-24.3c3.5-8.3,5.2-17.2,5.8-26.2
			c0.3-4.7,0.2-9.4,0.1-14.1c-0.1-2.3-0.2-4.7-0.3-7c-0.1-2.6-0.7-5.3-0.5-7.9"/>
		<path class="st7" d="M108.3,331c-0.4-2.6-0.8-5.4-1.8-7.8c-0.3-0.7-0.7-1.3-1.4-1.5c-1.1-0.2-2.6,0.1-3.7,0.2
			c-1.6,0.1-3.2,0.2-4.8,0.4c-3.6,0.4-8.7,1.1-11.3,4c-2.4,2.7-0.8,6.4,0.8,9.1c2.8,4.6,5.2,9.4,5.7,14.9c0.4,3.9-0.2,7.8,0.2,11.7
			c0.1,1.3,0.2,6.4,2,6.7c1,0.2,1.8-1.8,2.2-2.4c2-2.7,4.1-5.2,6.2-7.7c3.1-3.8,5.5-8.1,6.6-12.9C110.1,340.8,109,335.9,108.3,331z"
			/>
		<g>
			<path class="st8" d="M86.2,323.5c-2.1-0.3-5,0-6,2.3c-1,2.4,0.8,5.4,3.1,6.2c2.7,1,5.4-0.4,6.5-2.9C91.1,326.1,89,324,86.2,323.5
				z"/>
			<path class="st9" d="M82.9,325.4c-0.5-0.3-1.3-0.2-1.6,0.6c-0.2,0.5,0,1,0.4,1.3s1,0.2,1.4-0.1c0.3-0.2,0.4-0.5,0.4-0.9
				C83.5,326,83.4,325.6,82.9,325.4z"/>
		</g>
		<g>
			<path class="st10" d="M128.9,342.4c-5.2-7.3-12.6-11.3-20.7-14.6c-0.1,0-0.1-0.1-0.2-0.1s-0.2-0.1-0.3,0
				c-1.1-0.1-2.1,0.9-2.9,1.5c-1.7,1.3-3.2,2.9-4.5,4.6c-2.7,3.5-4.3,9.8-2.5,14c0.9,2.1,2.7,1.8,4.6,1.8c2.7,0,5.3-0.2,8-0.6
				c6.4-0.9,12.5-3,18.3-5.8C128.9,343,129,342.6,128.9,342.4z"/>
			<g>
				<path class="st11" d="M127.9,342.7c-4.6-0.5-9.1-0.8-13.6-1.6c-5-0.9-9.9-2-14.8-3c-0.8-0.2-1.2,1.1-0.4,1.3
					c5.2,1.1,10.4,2.2,15.7,3C119.1,343.1,123.6,343.5,127.9,342.7C128,342.9,128,342.7,127.9,342.7L127.9,342.7z"/>
			</g>
		</g>
		<path class="st7" d="M78.5,371.7c-5-9.4-15.4-14.7-25.9-15.1c-5.6-0.2-10.7,1.2-16,3.1c-5.8,2.1-11.4,4.6-16.9,7.3
			c-23.6,12-45.1,29.2-62.2,49.4c-4.6,5.4-8.9,11.1-12.7,17c-3.4,5.2-8.4,12.2-5.4,18.6c0.2,0.4,0.7,0.3,0.9,0.1
			c2.3-1.9,4.6-3.7,6.9-5.6c-1.7,2.2-3.3,4.6-4.6,7.1c-1.8,3.4-4.3,7.9-3.3,11.9c1.1,4.6,5.9,2.9,9.1,1.6c3-1.2,5.9-2.8,8.5-4.7
			c-0.5,0.6-0.9,1.2-1.4,1.7c-1.3,1.6-3.2,3.4-3.9,5.4c-1.1,3,1.5,4.6,4.1,4.7c3.9,0.2,8.2-1.1,11.9-2.3c2.7-0.9,5.3-2.1,7.7-3.5
			c-1.1,1.5-1.9,3.1-2.5,4.8c-0.1,0.3,0.1,0.6,0.4,0.7c5,1.5,9.9-1.9,14.2-4c5.2-2.6,10.5-5.2,15.7-7.8
			c10.7-5.3,21.3-10.8,31.8-16.4c9.5-5.1,19-10.6,26.7-18.2c7-6.9,12.6-15.2,16.3-24.3C82.1,393.3,83.5,381.6,78.5,371.7z"/>
		<path class="st12" d="M77,371.4c-5-9.4-15.4-14.7-25.9-15.1c-5.6-0.2-10.7,1.2-16,3.1c-5.8,2.1-11.4,4.6-16.9,7.3
			c-23.6,12-45.1,29.2-62.2,49.4c-4.6,5.4-8.9,11.1-12.7,17c-3.4,5.2-8.4,12.2-5.4,18.6c0.2,0.4,0.7,0.3,0.9,0.1
			c2.3-1.9,4.6-3.7,6.9-5.6c-1.7,2.2-3.3,4.6-4.6,7.1c-1.8,3.4-4.3,7.9-3.3,11.9c1.1,4.6,5.9,2.9,9.1,1.6c3-1.2,5.9-2.8,8.5-4.7
			c-0.5,0.6-0.9,1.2-1.4,1.7c-1.3,1.6-3.2,3.4-3.9,5.4c-1.1,3,1.5,4.6,4.1,4.7c3.9,0.2,8.2-1.1,11.9-2.3c2.7-0.9,5.3-2.1,7.7-3.5
			c-1.1,1.5-1.9,3.1-2.5,4.8c-0.1,0.3,0.1,0.6,0.4,0.7c5,1.5,9.9-1.9,14.2-4c5.2-2.6,10.5-5.2,15.7-7.8
			c10.7-5.3,21.3-10.8,31.8-16.4c9.5-5.1,19-10.6,26.7-18.2c7-6.9,12.6-15.2,16.3-24.3C80.5,393.1,82,381.4,77,371.4z"/>
		<g>
			<path class="st7" d="M-136.2,527.5c10.6-8.3,20.6-17.5,30.6-26.6c9.9-9,19.7-18.2,29.3-27.4c5.5-5.3,11-10.6,16.4-16
				c0.6-0.6-0.4-1.6-1-1c-19,19-38.6,37.4-58.7,55.3c-5.7,5.1-11.5,10.1-17,15.3C-136.8,527.4-136.5,527.8-136.2,527.5L-136.2,527.5
				z"/>
		</g>
		<g>
			<path class="st7" d="M-135.9,537.2c11.6-8.8,22.3-19.1,33-28.9c10.9-10.1,21.7-20.3,32.4-30.6c6.1-5.9,12.1-11.9,18.1-17.9
				c0.5-0.5-0.3-1.3-0.8-0.8c-20.9,21-42.4,41.2-64.4,61.1c-6.2,5.6-12.6,11-18.5,16.9C-136.3,537.1-136.1,537.4-135.9,537.2
				L-135.9,537.2z"/>
		</g>
		<g>
			<path class="st7" d="M-123.8,535.3c10.8-8.2,20.6-17.7,30.5-26.9c10.1-9.4,19.9-19.1,29.5-29c5.5-5.6,11-11.3,16.3-17.1
				c0.5-0.6-0.3-1.5-0.9-0.9c-18.8,20-38.3,39.2-58.5,57.8c-5.7,5.2-11.6,10.3-17.1,15.7C-124.1,535.1-123.9,535.4-123.8,535.3
				L-123.8,535.3z"/>
		</g>
		<g>
			<path class="st7" d="M79.7,313.9c0.5,0.5,1.1,1,1.6,1.5c0.5,0.6,0.9,1.2,1.4,1.7c0.8,0.9,2.4-0.3,1.7-1.3c-1-1.3-2.5-2.5-4.1-3
				C79.7,312.8,79.3,313.5,79.7,313.9L79.7,313.9z"/>
		</g>
		<g>
			<path class="st7" d="M85.8,313.9c1,1.1,1.7,2.3,2.3,3.6c0.5,1,2.3,0.3,1.8-0.8c-0.7-1.6-2-2.8-3.6-3.5
				C85.9,313,85.4,313.5,85.8,313.9L85.8,313.9z"/>
		</g>
		<g>
			<path class="st7" d="M87.1,310.1c1.2,0.6,2.2,1.4,3,2.5c0.8,1.2,2.5-0.1,1.6-1.2c-1.1-1.3-2.7-2-4.3-2.2
				C86.9,309.1,86.7,309.9,87.1,310.1L87.1,310.1z"/>
		</g>
		<g>
			<path class="st7" d="M96.6,316.9c0.3,0.5,0.6,1,0.8,1.6c0.2,0.6,0.9,0.9,1.4,0.5s0.4-1.1-0.1-1.5c-0.5-0.3-0.9-0.8-1.3-1.2
				C97,315.8,96.3,316.4,96.6,316.9L96.6,316.9z"/>
		</g>
		<g>
			<path class="st7" d="M75.6,338.4c0.4,1.8,0.3,3.4-0.5,5.1c-0.6,1.2,1.2,2.2,1.8,1c1-2,1.1-4.6-0.2-6.6
				C76.3,337.4,75.5,337.8,75.6,338.4L75.6,338.4z"/>
		</g>
		<g>
			<path class="st7" d="M80.4,342.6c-0.4,1.3-0.7,2.6-1.4,3.8c-0.7,1.2,1.3,2.1,1.8,0.8c0.6-1.4,0.8-3.1,0.4-4.6
				C81.2,342.2,80.6,342.2,80.4,342.6L80.4,342.6z"/>
		</g>
		<g>
			<path class="st7" d="M79.7,335.3c0.1,0.4,0.1,0.7,0.2,1.1s0.1,0.7,0.2,1.1c0.1,0.5,0.7,0.7,1.2,0.6c0.5-0.2,0.6-0.8,0.4-1.2
				c-0.2-0.3-0.4-0.6-0.5-0.9c-0.2-0.3-0.3-0.6-0.5-1C80.3,334.4,79.6,334.7,79.7,335.3L79.7,335.3z"/>
		</g>
		<g>
			<path class="st7" d="M45.3,313.2c-0.7,2-1.8,3.7-2.7,5.6c-0.6,1.1,1,2,1.6,1c1.1-1.9,1.7-4.1,2.1-6.3
				C46.5,312.8,45.6,312.6,45.3,313.2L45.3,313.2z"/>
		</g>
		<g>
			<path class="st7" d="M47.6,317.9c-0.4,1.2-1.1,2.1-2,3.1c-0.7,0.9,0.6,2.2,1.3,1.3c0.9-1.2,1.5-2.7,1.7-4.2
				C48.8,317.5,47.9,317.2,47.6,317.9L47.6,317.9z"/>
		</g>
		<g>
			<path class="st7" d="M32.8,323.4c-1.1,1.9-1.8,3.9-2.1,6c-0.1,1.2,1.9,1.3,1.9,0c0-1.9,0.3-3.8,1-5.5
				C33.8,323.4,33.1,322.9,32.8,323.4L32.8,323.4z"/>
		</g>
		<g>
			<path class="st7" d="M35.4,328.3c-0.4,1.5-0.7,3-0.7,4.6c-0.1,1.4,2.2,1.2,1.9-0.3c-0.3-1.4-0.3-2.8-0.2-4.2
				C36.4,327.8,35.5,327.8,35.4,328.3L35.4,328.3z"/>
		</g>
		<g>
			<path class="st7" d="M63.4,310.5c0.6,0.7,0.9,1.7,0.9,2.6c0,1.3,2.1,1,1.8-0.2s-1-2.2-1.9-3.1C63.7,309.2,63,309.9,63.4,310.5
				L63.4,310.5z"/>
		</g>
		<g>
			<path class="st7" d="M59.9,327.1c-0.2,1.4-0.7,2.5-1.4,3.7c-0.5,1,1,1.8,1.5,0.9c0.7-1.4,0.9-3,0.8-4.6
				C60.7,326.5,60,326.5,59.9,327.1L59.9,327.1z"/>
		</g>
		<g>
			<path class="st7" d="M61.9,333.3c-0.3,0.4-0.5,0.9-0.8,1.3s-0.7,0.7-1.1,1.1c-0.9,0.8,0.5,2.2,1.3,1.3c0.8-0.9,1.4-2.1,1.5-3.2
				C63,333.2,62.2,332.7,61.9,333.3L61.9,333.3z"/>
		</g>
		<g>
			<path class="st12" d="M81.7,370.3c0.6,1.1,0.8,2.2,0.8,3.4c-0.1,1.2,1.9,1,1.7-0.2c-0.3-1.3-0.9-2.6-1.8-3.6
				C82,369.5,81.5,369.9,81.7,370.3L81.7,370.3z"/>
		</g>
		<g>
			<path class="st12" d="M85.3,371.3c0.9,1.3,1.1,2.8,0.8,4.4c-0.2,1.2,1.6,1.7,1.8,0.5c0.3-2.1-0.3-4.1-1.7-5.7
				C85.8,370,84.9,370.7,85.3,371.3L85.3,371.3z"/>
		</g>
		<g>
			<path class="st7" d="M61,348.5c-0.5,1.7-1.4,3-2.4,4.5c-0.6,0.8,0.7,1.8,1.4,1.1c1.2-1.5,1.9-3.3,2.3-5.2
				C62.4,348.1,61.2,347.7,61,348.5L61,348.5z"/>
		</g>
		<g>
			<path class="st7" d="M64.2,351.5c-0.3,1.2-0.9,2.3-1.9,3s0.2,2.2,1,1.3c1.1-1.2,1.7-2.6,1.7-4.2C64.9,351.1,64.3,351,64.2,351.5
				L64.2,351.5z"/>
		</g>
		<g>
			<path class="st7" d="M42.2,343.4c-0.4,2.2-1.4,3.8-3.1,5.2c-0.9,0.7,0.4,2,1.3,1.3c1.8-1.5,2.9-4,2.9-6.3
				C43.3,342.9,42.4,342.7,42.2,343.4L42.2,343.4z"/>
		</g>
		<g>
			<path class="st7" d="M43.3,348.1c-0.5,1.5-1.5,2.8-2.9,3.6c-1,0.6,0.1,2.1,1,1.3c1.4-1.2,2.3-2.9,2.7-4.7
				C44.2,347.8,43.5,347.6,43.3,348.1L43.3,348.1z"/>
		</g>
		<g>
			<path class="st7" d="M35.1,345.8c-0.7,1.1-1.6,2-2.8,2.7c-1,0.6,0.1,2.1,1,1.3c1.1-1,2.1-2.1,2.7-3.4
				C36.4,345.7,35.5,345.2,35.1,345.8L35.1,345.8z"/>
		</g>
		<g>
			<path class="st12" d="M15.9,350.4c-1.9,0.9-3.8,2.1-5.4,3.6c-0.8,0.8,0.4,2.1,1.3,1.3c1.5-1.4,3-2.8,4.7-3.9
				C17,350.9,16.5,350,15.9,350.4L15.9,350.4z"/>
		</g>
		<g>
			<path class="st12" d="M16.2,355.4c-2.1,0.5-3.8,2.2-4.3,4.2c-0.3,1.1,1.5,1.6,1.7,0.5c0.3-1.7,1.3-3.1,3-3.9
				C17,356,16.7,355.3,16.2,355.4L16.2,355.4z"/>
		</g>
		<g>
			<path class="st12" d="M21.4,358.3c-0.3,0.5-0.7,0.9-1.1,1.3c-0.3,0.3-0.3,0.8,0.1,1.1c0.3,0.2,0.9,0.2,1.1-0.2
				c0.3-0.6,0.5-1.1,0.9-1.7c0.1-0.3,0.1-0.6-0.2-0.7C21.8,357.9,21.6,358.1,21.4,358.3L21.4,358.3z"/>
		</g>
		<g>
			<path class="st12" d="M-9.4,366.5C-9.4,366.5-9.3,366.5-9.4,366.5c0.2,0.2,0.3,0.3,0.5,0.3c0.4-0.1,0.6-0.5,0.4-0.9
				c-0.3-0.6-1.1-0.2-1.5,0c-1.6,0.8-3.1,2.2-4,3.8c-0.5,1,0.9,1.8,1.5,0.9c0.5-0.8,0.9-1.6,1.6-2.3c0.3-0.3,0.6-0.6,0.9-0.9
				c0.2-0.2,0.8-0.9,1.1-0.9c-0.1-0.1-0.2-0.2-0.3-0.3c0-0.1,0-0.2,0.1-0.3c0.2,0,0.3,0,0.5,0.1c0,0,0,0-0.1-0.1
				C-9,365.6-9.7,366.1-9.4,366.5L-9.4,366.5z"/>
		</g>
		<g>
			<path class="st12" d="M-9.7,371.3c-1.7,0.9-3.1,2.5-3.4,4.4c-0.2,1.1,1.5,1.6,1.7,0.5c0.3-1.6,0.9-3,2.2-4
				C-8.6,371.8-9,371-9.7,371.3L-9.7,371.3z"/>
		</g>
		<g>
			<path class="st12" d="M-3.6,370.1c-1,0.7-1.9,1.6-2.6,2.6c-0.6,1,1.1,1.8,1.5,0.6c0.3-1,0.9-1.8,1.6-2.6
				C-2.8,370.4-3.2,369.9-3.6,370.1L-3.6,370.1z"/>
		</g>
		<g>
			<path class="st12" d="M-29.4,385.9c-1.3,1.4-2.4,3.3-2.9,5.2c-0.3,1.2,1.4,1.6,1.8,0.5c0.6-1.8,1.1-3.4,1.9-5
				C-28.3,386.1-28.9,385.4-29.4,385.9L-29.4,385.9z"/>
		</g>
		<g>
			<path class="st12" d="M-27.3,389.8c-1.2,0.6-2,2-1.9,3.4c0.2,1.3,2.1,1.1,1.8-0.2c-0.2-0.9,0-1.7,0.7-2.3
				C-26.3,390.2-26.8,389.5-27.3,389.8L-27.3,389.8z"/>
		</g>
		<g>
			<path class="st12" d="M-42.5,401.9c-0.8,1.3-1.3,2.7-1.4,4.3c-0.1,1.3,2.1,1.3,2,0c-0.1-1.2,0.1-2.5,0.7-3.5
				C-40.8,401.8-42,401.1-42.5,401.9L-42.5,401.9z"/>
		</g>
		<g>
			<path class="st12" d="M83.1,394.2c0.1,2-0.2,3.6-0.7,5.5c-0.3,1.2,1.5,1.7,1.8,0.5c0.6-1.9,0.5-4.3-0.1-6.2
				C83.9,393.5,83,393.6,83.1,394.2L83.1,394.2z"/>
		</g>
		<g>
			<path class="st12" d="M86.9,398.9c-0.1,1.5-0.6,2.6-1.5,3.8c-0.7,0.9,0.5,2.1,1.2,1.2c1.1-1.4,1.6-3.4,1.1-5.1
				C87.6,398.3,87,398.4,86.9,398.9L86.9,398.9z"/>
		</g>
		<g>
			<path class="st12" d="M89.1,394.8c0.2,0.7,0.3,1.5,0.2,2.3c-0.2,1.4,2,1.3,1.6,0c-0.2-0.9-0.5-1.8-1-2.6
				C89.7,394,89,394.3,89.1,394.8L89.1,394.8z"/>
		</g>
		<g>
			<path class="st12" d="M70.4,426.1c-0.2,1.4-0.4,2.8-0.9,4.1c-0.5,1.2,1.4,1.8,1.6,0.7c0.2-1.5,0.5-3.2,0.1-4.7
				C71,425.7,70.4,425.7,70.4,426.1L70.4,426.1z"/>
		</g>
		<g>
			<path class="st12" d="M75,429.2c-0.3,1.9-1,3.6-2.2,5.1c-0.7,0.9,1,1.9,1.6,0.9c1.1-1.8,1.6-3.8,1.6-5.9
				C76,428.7,75.1,428.6,75,429.2L75,429.2z"/>
		</g>
		<g>
			<path class="st12" d="M79.1,426.2c0.3,0.7,0.4,1.3,0.2,2.1c-0.3,1.1,1.5,1.6,1.7,0.5s-0.2-2.4-1-3.2
				C79.5,425.1,78.8,425.6,79.1,426.2L79.1,426.2z"/>
		</g>
		<g>
			<path class="st12" d="M51.2,442c-1.1,1.4-2.2,2.6-3.6,3.6c-1,0.7,0.1,2.2,1.1,1.4c1.4-1.2,2.7-2.8,3.4-4.5
				C52.2,442,51.5,441.6,51.2,442L51.2,442z"/>
		</g>
		<g>
			<path class="st12" d="M51.7,446.4c-1.5,1.7-3,3.4-4.8,4.7c-1.1,0.8,0.2,2.5,1.2,1.5c1.7-1.7,3.2-3.6,4.3-5.8
				C52.5,446.5,52,446.1,51.7,446.4L51.7,446.4z"/>
		</g>
		<g>
			<path class="st12" d="M63.2,450c-0.7,1.6-1.4,3-2.3,4.4c-0.6,0.9,0.8,1.7,1.4,0.8c1-1.4,1.7-3.4,1.8-5.1
				C64.1,449.5,63.4,449.5,63.2,450L63.2,450z"/>
		</g>
		<g>
			<path class="st12" d="M67.9,449c0,0.1-0.3,0.4-0.4,0.5c-0.1,0.2-0.2,0.3-0.2,0.5c-0.2,0.3-0.4,0.7-0.6,1s-0.1,0.9,0.3,1
				c0.4,0.2,0.8,0.1,1-0.3c0.3-0.4,0.5-0.9,0.6-1.4c0-0.2,0.1-0.5,0-0.7c0-0.1,0-0.2-0.1-0.3c0-0.1-0.2-0.2-0.2-0.3
				C68.3,448.8,68,448.7,67.9,449L67.9,449z"/>
		</g>
		<g>
			<path class="st12" d="M25.9,456.4c-0.7,1-1.5,1.9-2.4,2.7c-0.9,0.8-2,1.3-2.9,2.1c-0.8,0.6-0.1,1.8,0.8,1.4
				c2.3-1.1,4.2-3.5,5.4-5.7C27,456.3,26.2,455.8,25.9,456.4L25.9,456.4z"/>
		</g>
		<g>
			<path class="st12" d="M25.6,462.5c-2.3,1.8-4.8,2.8-7.4,3.8c-1.1,0.4-0.6,2.1,0.5,1.7c2.9-1,5.5-2.8,7.8-4.8
				C27,462.8,26.2,462,25.6,462.5L25.6,462.5z"/>
		</g>
		<g>
			<path class="st12" d="M30.5,462.4c-0.9,1.2-1.8,2.3-3.1,3.1c-0.9,0.6,0.1,2,0.9,1.2c1.2-1.1,2.3-2.5,2.8-4
				C31.2,462.3,30.7,462.1,30.5,462.4L30.5,462.4z"/>
		</g>
		<g>
			<path class="st12" d="M44.6,463.7c-0.6,1-1.6,1.9-2.7,2.4c-1.1,0.4-0.3,2,0.6,1.4c1.2-0.9,2.2-1.9,2.8-3.3
				C45.6,463.6,44.9,463.2,44.6,463.7L44.6,463.7z"/>
		</g>
		<g>
			<path class="st12" d="M-3.7,469.8c-1.4,1.6-3.2,2.7-5.3,3.2c-1,0.3-0.6,1.9,0.4,1.6c2.3-0.8,4.2-2.2,5.6-4.2
				C-2.7,469.9-3.4,469.4-3.7,469.8L-3.7,469.8z"/>
		</g>
		<g>
			<path class="st12" d="M0.7,470.4c-0.9,1.2-2.1,2.3-3.4,3.1c-1,0.6,0.1,2.1,1,1.3c1.2-1.2,2.3-2.5,3.2-4
				C1.8,470.4,1,470,0.7,470.4L0.7,470.4z"/>
		</g>
		<g>
			<path class="st12" d="M13.1,473.6c-0.7,0.8-1.6,1.4-2.6,1.9c-0.9,0.4-0.1,1.9,0.8,1.3c1-0.7,1.9-1.6,2.6-2.6
				C14.3,473.7,13.5,473.2,13.1,473.6L13.1,473.6z"/>
		</g>
		<g>
			<path class="st12" d="M77.6,410.7c0.4,1.3,0.5,2.5,0.1,3.8c-0.3,1.1,1.5,1.5,1.6,0.2c0.2-1.5-0.1-3.1-0.9-4.4
				C78.2,409.9,77.4,410.2,77.6,410.7L77.6,410.7z"/>
		</g>
		<g>
			<path class="st7" d="M79.9,356.5c0.5,1.1,0.7,2.2,0.7,3.4c0,1,1.6,1,1.5,0c-0.1-1.4-0.6-2.8-1.5-4
				C80.3,355.4,79.7,356,79.9,356.5L79.9,356.5z"/>
		</g>
		<g>
			<path class="st7" d="M-53.7,446.3c8-5.4,15.6-11.6,23.3-17.5c7.6-5.9,15-12.2,22.1-18.7c0.7-0.7-0.3-1.7-1.1-1.1
				c-7.2,6.4-14.4,12.8-22.1,18.7c-7.6,5.9-15.6,11.4-22.6,18C-54.4,446-54,446.5-53.7,446.3L-53.7,446.3z"/>
		</g>
		<g>
			<path class="st7" d="M-24.2,468.7c12.2-5.5,23.8-12.4,35-19.6c11.1-7.1,21.9-14.8,32.2-23c6-4.8,11.9-9.7,17.6-14.9
				c0.7-0.6-0.3-1.5-1-1c-20,17.6-41.4,33.4-64.4,46.8c-6.5,3.8-13.2,7.4-19.8,11.1C-24.9,468.3-24.6,468.9-24.2,468.7L-24.2,468.7z
				"/>
		</g>
		<g>
			<path class="st7" d="M-42.7,462.2c20.1-11.6,39.4-24.6,57.1-39.6c5.3-4.5,10.5-9.1,15.5-13.9c0.6-0.6-0.3-1.4-0.9-0.9
				c-16.9,15.8-35,30-54.4,42.6c-5.8,3.8-11.7,7.5-17.6,11.2C-43.4,461.8-43,462.4-42.7,462.2L-42.7,462.2z"/>
		</g>
		<g>
			<path class="st7" d="M-47.1,471.3c13.2-5.9,25.8-13.1,38.2-20.6s24.4-15.5,36.1-24c6.6-4.8,13-9.7,19.3-14.8c0.7-0.6-0.3-1.6-1-1
				C22.7,428.7-1,445-26.2,459.2c-7,4-14.1,7.7-21.2,11.6C-47.7,471-47.4,471.4-47.1,471.3L-47.1,471.3z"/>
		</g>
		<g>
			<path class="st7" d="M-57.4,461.7c23.6-16.9,46.7-34.6,69.8-52.1c0.8-0.6,0-1.9-0.8-1.3c-23.3,17.4-46.6,34.8-69.5,52.8
				C-58.2,461.4-57.7,461.9-57.4,461.7L-57.4,461.7z"/>
		</g>
		<g>
			<path class="st7" d="M-59.2,441.6c-0.7-1.1,7.2-7.1,8.2-7.8c3-2.5,6-4.8,9.1-7.1c5.8-4.3,11.8-8.3,17.7-12.4
				c0.8-0.6,0-1.9-0.8-1.3c-6.9,4.7-13.8,9.4-20.3,14.6c-3.2,2.6-6.4,5.2-9.4,8c-1.5,1.4-3.1,2.9-4.5,4.5c-0.5,0.6-0.9,1.1-0.4,1.8
				C-59.4,442.1-59.1,441.8-59.2,441.6L-59.2,441.6z"/>
		</g>
		<g>
			<g>
				<path class="st5" d="M59.4,369.8c0.4,1.9,0.1,3.7-1,5.3c-0.4,0.6,0.6,1.2,1,0.6c1.1-1.8,1.4-4.1,0.6-6.1
					C59.9,369.3,59.4,369.4,59.4,369.8L59.4,369.8z"/>
			</g>
		</g>
		<g>
			<g>
				<path class="st5" d="M63.1,374.9c-0.7,1.7-1.7,3-3.2,4.2c-0.4,0.3,0.1,1.1,0.6,0.8c1.6-1.2,2.7-2.9,3.1-4.8
					C63.7,374.7,63.2,374.6,63.1,374.9L63.1,374.9z"/>
			</g>
		</g>
		<g>
			<g>
				<path class="st5" d="M68.1,375.9c-0.1,1-0.7,1.8-1.6,2.3c-0.6,0.3,0,1.3,0.5,0.9c1.1-0.7,1.7-1.8,1.8-3.1
					C69,375.5,68.2,375.4,68.1,375.9L68.1,375.9z"/>
			</g>
		</g>
		<g>
			<g>
				<path class="st5" d="M53.2,393.6c-0.3,2-1.6,3.6-3.5,4.3c-0.6,0.2-0.3,1.2,0.3,1c2.2-0.9,3.6-2.8,3.8-5.2
					C53.9,393.3,53.3,393.2,53.2,393.6L53.2,393.6z"/>
			</g>
		</g>
		<g>
			<g>
				<path class="st5" d="M55.9,398.5c-0.7,1.6-1.9,2.9-3.4,3.8c-0.6,0.4,0,1.3,0.5,0.9c1.6-1.1,2.8-2.6,3.5-4.4
					C56.7,398.4,56.1,398,55.9,398.5L55.9,398.5z"/>
			</g>
		</g>
		<g>
			<g>
				<path class="st5" d="M58.2,392c-0.1,0.7-0.4,1.3-1.1,1.7c-0.5,0.4,0.1,1.2,0.6,0.7c0.7-0.6,1.1-1.5,1.1-2.4
					C58.8,391.8,58.3,391.7,58.2,392L58.2,392z"/>
			</g>
		</g>
		<g>
			<g>
				<path class="st5" d="M36.2,369.8c-1.9,0.9-3.6,2.1-5,3.7c-0.5,0.5,0.3,1.2,0.7,0.7c1.3-1.5,2.8-2.8,4.6-3.8
					C37,370.2,36.6,369.6,36.2,369.8L36.2,369.8z"/>
			</g>
		</g>
		<g>
			<g>
				<path class="st5" d="M36.7,375.6c-1.9,1.1-3.4,2.8-4.2,4.9c-0.3,0.6,0.8,1,1.1,0.3c0.7-1.9,1.8-3.5,3.4-4.7
					C37.3,375.9,37,375.5,36.7,375.6L36.7,375.6z"/>
			</g>
		</g>
		<g>
			<g>
				<path class="st5" d="M42.4,370.7c-0.4,0.3-0.9,0.7-1.3,1c-0.5,0.4,0,1.2,0.6,0.7c0.4-0.4,0.8-0.7,1.3-1.1
					C43.3,371,42.8,370.4,42.4,370.7L42.4,370.7z"/>
			</g>
		</g>
		<g>
			<g>
				<path class="st5" d="M47.8,381.4c-0.7,0.6-1.4,1.2-2.1,1.8c-0.5,0.4,0.2,1.2,0.7,0.7c0.7-0.6,1.3-1.3,2-1.9
					C48.7,381.6,48.2,381.1,47.8,381.4L47.8,381.4z"/>
			</g>
		</g>
		<g>
			<g>
				<path class="st5" d="M70.5,391.2c-0.5,1.3-1.1,2.6-1.9,3.7c-0.4,0.6,0.6,1.1,0.9,0.5c0.8-1.3,1.4-2.6,1.9-4
					C71.6,390.9,70.7,390.7,70.5,391.2L70.5,391.2z"/>
			</g>
		</g>
		<g>
			<g>
				<path class="st5" d="M26.9,394.5c-1.5,1.1-2.9,2.3-4,3.8c-0.4,0.5,0.5,1,0.8,0.5c1-1.4,2.1-2.8,3.5-3.9
					C27.5,394.7,27.1,394.3,26.9,394.5L26.9,394.5z"/>
			</g>
		</g>
		<g>
			<g>
				<path class="st5" d="M28,398.7c-0.7,1.1-1.5,2.2-2.3,3.3c-0.4,0.5,0.5,1.1,0.9,0.5c0.7-1.1,1.3-2.3,2-3.4
					C28.9,398.7,28.3,398.3,28,398.7L28,398.7z"/>
			</g>
		</g>
		<g>
			<g>
				<path class="st5" d="M32.4,397.2c-0.3,0.8-0.7,1.5-1.3,2.1c-0.4,0.4,0.3,1,0.6,0.6c0.6-0.8,1.1-1.6,1.3-2.5
					C33.2,397,32.5,396.8,32.4,397.2L32.4,397.2z"/>
			</g>
		</g>
		<g>
			<g>
				<path class="st5" d="M6.3,382.7C5,383.3,4,384.6,3.8,386c-0.1,0.6,0.9,0.9,1,0.3c0.3-1.2,0.9-2.2,2-2.8
					C7.2,383.2,6.8,382.4,6.3,382.7L6.3,382.7z"/>
			</g>
		</g>
		<g>
			<g>
				<path class="st5" d="M8.8,386.6c-1.4,1.3-2.5,2.8-3.3,4.4c-0.3,0.6,0.6,1.1,0.9,0.5c0.7-1.7,1.7-3.1,2.9-4.4
					C9.6,386.8,9.1,386.3,8.8,386.6L8.8,386.6z"/>
			</g>
		</g>
		<g>
			<g>
				<path class="st5" d="M13.9,384.6c-0.1,1.4-0.6,2.6-1.5,3.6c-0.4,0.4,0.3,1.1,0.7,0.7c1-1.2,1.5-2.7,1.5-4.2
					C14.5,384.2,14,384.2,13.9,384.6L13.9,384.6z"/>
			</g>
		</g>
		<g>
			<g>
				<path class="st5" d="M22.3,373.1c-0.6,0.6-1.2,1.2-1.9,1.8c-0.4,0.4,0.2,1.1,0.7,0.7c0.6-0.6,1.2-1.2,1.8-1.9
					C23.2,373.3,22.7,372.8,22.3,373.1L22.3,373.1z"/>
			</g>
		</g>
		<g>
			<g>
				<path class="st5" d="M-13.5,393.8c-1.7,1-3,2.7-3.3,4.7c-0.1,0.6,0.9,0.9,1,0.3c0.3-1.8,1.2-3.3,2.7-4.4
					C-12.8,394.1-13.1,393.5-13.5,393.8L-13.5,393.8z"/>
			</g>
		</g>
		<g>
			<g>
				<path class="st5" d="M-10.7,397.6c-1.1,1.3-1.9,2.7-2.4,4.3c-0.2,0.7,0.9,1,1,0.3c0.3-1.5,1-2.9,1.9-4.1
					C-9.8,397.7-10.4,397.3-10.7,397.6L-10.7,397.6z"/>
			</g>
		</g>
		<g>
			<g>
				<path class="st5" d="M5.3,401.4c-0.4,0.3-0.7,0.7-1.1,1c-0.5,0.5,0.3,1.2,0.7,0.7c0.3-0.4,0.7-0.7,1-1.1
					C6.4,401.6,5.8,401,5.3,401.4L5.3,401.4z"/>
			</g>
		</g>
		<g>
			<g>
				<path class="st5" d="M53.3,361c-1.2-0.2-2.4,0.3-3.2,1.2c-0.4,0.5,0.3,1.1,0.7,0.5c0.6-0.8,1.5-1.1,2.5-1.1
					C53.7,361.6,53.7,361.1,53.3,361L53.3,361z"/>
			</g>
		</g>
		<g>
			<g>
				<path class="st5" d="M57.5,361.3c-1.3-0.2-2.4,0.3-3.1,1.4c-0.4,0.6,0.5,1.1,0.9,0.5c0.5-0.7,1.3-1.2,2.1-1.2
					C57.8,362,57.9,361.4,57.5,361.3L57.5,361.3z"/>
			</g>
		</g>
	</g>
</g>
</svg>
