<?xml version="1.0" encoding="utf-8"?>
<!-- Generator: Adobe Illustrator 19.0.0, SVG Export Plug-In . SVG Version: 6.00 Build 0)  -->
<svg version="1.1" id="Capa_1" xmlns="http://www.w3.org/2000/svg" xmlns:xlink="http://www.w3.org/1999/xlink" x="0px" y="0px"
	 viewBox="-147 270.9 300 300" style="enable-background:new -147 270.9 300 300;" xml:space="preserve">
<style type="text/css">
	.st0{fill:#5E3C19;}
	.st1{fill:#371D13;}
	.st2{fill:#4A805B;}
	.st3{opacity:0.5;fill:#4A805B;enable-background:new    ;}
	.st4{fill:#615B85;}
	.st5{fill:#272E43;}
	.st6{fill:#DD9C30;}
	.st7{opacity:0.7;fill:#DD9C30;enable-background:new    ;}
	.st8{fill:#857D9E;}
	.st9{fill:#FFFFFF;}
	.st10{fill:#47526A;}
	.st11{opacity:0.5;fill:#615B85;enable-background:new    ;}
	.st12{fill:#F2F1F1;}
	.st13{fill:#DDDDDD;}
</style>
<g>
	<g>
		<g>
			<path class="st0" d="M103.1,402.6c1.1,1.4,1.9,3.2,2.3,5c0.3,1.3,0.4,2.7,0.3,4.3c0,0-47.7,19.5-57.5,26.6s-21,14.1-31.2,19.8
				c-10.2,5.6-31.3,18.1-36.9,23.3s-21.7,21.8-28.4,30.2c-6.8,8.5-18.7,21.3-18.7,21.3s-1.3,0.3-3-0.4c-1.1-0.6-2.6-1.6-3.9-3.4
				c0,0,21.6-24.7,26.4-31.5s19.5-18.5,20.7-19.4c1.1-0.9,27.7-20.8,34.8-25.4s24.6-13.8,32.5-21C48.4,424.5,93.6,409.5,103.1,402.6
				z"/>
			<path class="st1" d="M105.4,407.5c0.3,1.3,0.4,2.7,0.3,4.3c0,0-47.7,19.5-57.5,26.6s-21,14.1-31.2,19.8
				c-10.2,5.6-31.3,18.1-36.9,23.3s-21.7,21.8-28.4,30.2C-55.1,520.2-67,533-67,533s-1.3,0.3-3-0.4c6.9-8.3,24.1-29.2,31-36.9
				c8.8-9.9,12.8-12.6,25.6-22.8c12.9-10.2,23.3-14.9,36.2-22.3c12.9-7.5,22.7-14.9,28.6-18.8C56.3,428.1,94.1,412.3,105.4,407.5z"
				/>
		</g>
		<g>
			<path class="st1" d="M-53.8,517l26.6,10.1l-2.3,3.2l-29.3-7.9C-58.8,522.5-61.1,518.2-53.8,517z"/>
			<g>
				<path class="st2" d="M-45.3,538.3c0,0-0.6,0.3-1.1,1.7c0,0-4.5-11.6,4.5-15.1c0,0,5.9,6.9,5.2,13.2l-1.4-1.1
					c0,0,2.2,5.5-2.7,12.1C-41,549-46.2,541.7-45.3,538.3z"/>
				<path class="st3" d="M-45.3,538.3c0,0-0.6,0.3-1.1,1.7c0,0-4.5-11.6,4.5-15.1l1,24.1C-41,549-46.2,541.7-45.3,538.3z"/>
			</g>
		</g>
		<g>
			<path class="st0" d="M67.1,422.5l11.1-26.2l-3.9-0.6l-14.5,26.6C59.6,422.3,61.2,426.9,67.1,422.5z"/>
			<g>
				<path class="st2" d="M57.6,401.6c0,0-0.6,0.1-2-0.3c0,0,5.3,11.4,13.9,7.2c0,0-1-9.1-6-12.8l-0.1,1.9c0,0-2.6-5.3-10.6-6.5
					C52.7,391.1,54.4,399.9,57.6,401.6z"/>
				<path class="st3" d="M57.6,401.6c0,0-0.6,0.1-2-0.3c0,0,5.3,11.4,13.9,7.2l-16.8-17.4C52.7,391.1,54.4,399.9,57.6,401.6z"/>
			</g>
		</g>
	</g>
	<g>
		<g>
			<path class="st4" d="M21.7,459.1c-2-0.7-4-1.3-6-1.9c1.3,0,2.6,0,3.9-0.1c0.7,0,0.9-1.1,0.1-1.4c-4.6-1.9-14.2-1.4-18.1-1.1
				c-5.6-1.6-18.5-6.9-20-7.6c-1-0.4-2.2-1-2.7-1.9c-0.7-1-0.7-2.2-0.7-3.4c0-6.9,0.3-13.8,0-20.7c-0.1-4.3-5.6-4.3-5.9,0
				c-0.3,3.9-0.3,19.1,0.1,22.7c0.3,2.2,0.3,3,1.1,4.6c0.9,1.6,12.6,6.6,22.6,9.6h0.1c-2.2,0.9-4.2,2.2-5.6,4.2
				c-0.7,1,0,2.6,1.1,2.3c2.3-0.6,4.6-1.7,7-2.2c2.4-0.4,4.9-0.6,7.5-1c0.1,0,4.7,0.1,6.9,0.4c2.7,0.3,5.5,0.4,8.2,0.7
				C22.9,462.4,23.1,459.7,21.7,459.1z"/>
			<path class="st4" d="M-19.4,427.8c-4.2,1.1-8.3,2.3-12.5,3.4c-0.3,0.1-0.4,0.3-0.4,0.6c0,0.1,0,0.1,0,0.3c0.6,3.4,1,7.9,2.7,11.1
				c1.4,2.6,3.6,2.3,6,1.4c2.3-0.9,3.6-1.7,4-4.5c0.6-3.7,0.9-7.8,1-11.5C-18.6,428.1-19.2,427.8-19.4,427.8z"/>
		</g>
		<path class="st5" d="M-27.5,439c0.3,1.3,2.2,0.6,1.6-0.7c-0.4-0.9-0.6-1.9-0.7-2.7"/>
		<g>
			<path class="st5" d="M-23.3,433.5c-0.6,0.9-0.7,2.2-0.9,3.2c-0.3,1.4,1.6,1.7,1.7,0.3c0.1-1,0.3-2.3,0-3.3
				C-22.7,433.2-23.2,433.2-23.3,433.5L-23.3,433.5z"/>
		</g>
	</g>
	<g>
		<g>
			<path class="st4" d="M44.1,442.4c-2-0.7-4.2-1.4-6.2-1.9c1.3,0,2.7,0,4-0.1c0.7,0,0.9-1.1,0.1-1.4c-4.7-1.9-14.8-1.9-18.2-1.3
				c-1.1-0.7-13.8-7.5-15.9-9.2c-0.3-0.3-0.7-0.6-0.9-0.9c-0.1-0.3-0.1-0.7-0.1-1c-0.4-7.9,0-15.9-0.3-23.9c-0.1-4.5-5.7-4.5-6,0
				c-0.3,4.5-0.4,9.1-0.4,13.5c0,4,0.7,10.9,1.4,13.9c0.6,2.2,14.8,9.3,17.4,10.2c-2.7,1-5.2,2.4-6.9,4.7c-0.9,1.1,0,2.7,1.3,2.4
				c2.4-0.6,4.7-1.7,7.2-2.3c2.6-0.4,7.9-1.1,8-1.1c2.2,0.4,4.5,0.3,6.8,0.6c2.7,0.3,5.6,0.4,8.3,0.7
				C45.4,445.7,45.5,442.9,44.1,442.4z"/>
			<path class="st4" d="M9.4,411c-4.3,0.9-8.6,1.7-12.9,2.6c-0.4,0.1-0.4,0.4-0.4,0.7v0.1c0.7,4.7,1.4,13.8,7.5,12.6
				c2.4-0.4,4.3-1.1,5.2-4c0.9-3.6,1.3-7.6,1.6-11.4C10.3,411.1,9.9,410.8,9.4,411z"/>
		</g>
		<path class="st5" d="M1.8,425.2c0.3,1.4,2.3,0.6,1.7-0.9c-0.4-1-0.6-2-0.7-3"/>
		<path class="st5" d="M6.3,417.9c-0.6,0.9-0.7,2.2-1,3.3c-0.3,1.4,1.6,1.7,1.7,0.3"/>
	</g>
	<g>
		<path class="st6" d="M54.3,276.6c0,0-6.5,1.7-9.2,5.7c-2.7,4-0.3,12.1-0.3,12.1s-6.6,9.1-7.9,14.8c-1.1,5.7,3.9,20.5,3.9,32.6
			s-7.6,28.9-7.6,28.9c-9.5,46.1-50.9,59.6-50.9,59.6l-2.2,2.2c-3.6,3.4-8.9,4.6-13.5,2.7c-0.1,0-0.1,0-0.1,0
			c-2,3.4-6.6,5.5-6.6,5.5c-3.2,9.5-19.8,31.2-19.8,31.2s-1.4,6-3.6,14.4l0,0c-3.7,15.1-9.2,38.1-10.9,48.1
			c-2.7,15.7-8.3,36.5-8.3,36.5v-5l-3.4,5c-5.5-23.6,18.1-111.8,18.1-111.8c-0.7-3.3-0.9-7.2-0.7-11.1c0.4-7.8,2.2-14.9,2.2-14.9
			c-1,0.9-2.4,2.2-4.3,3.7c-7.6,6.9-20.8,18.8-20.8,18.8c1.4-6.9,13.5-24.1,13.5-24.1l-21.4,16.8c2.2-7.9,13.2-17.8,13.2-17.8
			c6.6-21.1,37.9-58.8,37.9-58.8c8.5-21.1,31.3-35.2,31.3-35.2c8.6-3.9,10.2-13.8,10.9-23.7c0.1-2.4,0.3-5,0.6-7.3
			c0.4-5.2,1.9-10.9,4.7-16.2c3.6-6.9,9.5-13.1,18-16.2c15.1-5.7,32.3,1.9,32.3,1.9L54.3,276.6z"/>
		<path class="st7" d="M33.1,370.7c-6.5,31.2-27.6,47.6-40.5,54.7c-6.2,3.4-10.5,4.9-10.5,4.9l-0.6,0.4l-1.7,1.6
			c-1.4,1.4-3,2.4-4.9,3l-1.7-0.7c-3.4,0.7-8.6-1.4-8.6-1.4c-2,3.4-6.6,5.5-6.6,5.5s1.1,0.4,3.2,1c-0.9,0.6-1.6,0.9-1.6,0.9
			c-3.2,9.5-19.8,31.2-19.8,31.2s-1.4,6-3.6,14.4c0.1-1.3,4.5-29.2,4.5-47.8c0,0,6.8,6.3,5.9,13.4l11.8-16.5c0,0,4.7-2.3,7.6-7.8
			c0,0,3.6,5,8,4.5c1.6-0.3,3-1.1,4.2-2.2c0.7-0.6,1.3-1.3,1.7-1.9c0.9-1.1,1.3-2.2,1.3-2.2s0.7-0.3,2-1c0.3-0.1,0.6-0.3,0.9-0.6
			C-6.2,418.9,23.4,400.3,33.1,370.7z"/>
		<path class="st7" d="M20.6,361.7c-6,20.5-32.9,48-52.2,55.2c-17,6.3-27.9,17.5-37.5,31.2c0.4-7.8,2.2-14.9,2.2-14.9
			c-1,0.9-2.4,2.2-4.3,3.7c1.7-5.2,3.3-9.3,3.3-9.3s84.5-48.9,78.6-92.4C10.9,335.1,26.7,341.1,20.6,361.7z"/>
		<path class="st7" d="M28.4,338.4c-1.9-9.1-11.6-10.6-23.1-13.9c-5.2-1.6-9.9-6.3-11.5-11.6c0.1-2.4,0.3-5,0.6-7.3
			c0.4-5.2,1.9-10.9,4.7-16.2c9.5-2.2,23.9,24.9,27.4,30.2C31.4,326.3,28.4,338.4,28.4,338.4z"/>
		<path class="st5" d="M18.2,353.5c-3,27.6-50.3,53-62.4,60.9c-12.1,7.9-22.6,18.7-22.6,18.7c-5.2,4.5-25,22.6-25,22.6
			c1.4-6.9,13.5-24.1,13.5-24.1l-21.4,16.8c2.2-7.9,13.2-17.8,13.2-17.8c6.6-21.1,37.9-58.8,37.9-58.8c8.5-21.1,31.3-35.2,31.3-35.2
			c1.4-0.6,2.6-1.4,3.7-2.3c0,0,14.8-4.3,24.1,0.9c4.2,2.3,7.2,6.3,7.6,13.5l0,0C18.5,350,18.5,351.6,18.2,353.5z"/>
		<path class="st5" d="M54.3,276.6c0,0-6.5,1.7-9.2,5.7c-2.7,4-0.3,12.1-0.3,12.1s-6.6,9.1-7.9,14.8c-1.1,5.7,3.9,20.5,3.9,32.6
			c0,7-2.6,15.5-4.7,21.6c3-15.8-5.2-35.2-5.2-35.2c-0.3,2.3-1.6,4.5-1.6,4.5c-2.3-8.6-15.1-10.2-25.4-17c-10.2-6.8-6.3-22.6-6.2-23
			l0,0c3.4-8.2,9.6-15.8,19.4-19.5c15.1-5.7,32.3,1.9,32.3,1.9L54.3,276.6z"/>
		<g>
			<path class="st8" d="M33.6,287.7c2.9,0,5.2-2.3,5.2-5.2c0-2.9-2.3-5.2-5.2-5.2s-5.2,2.3-5.2,5.2
				C28.4,285.4,30.7,287.7,33.6,287.7z"/>
			<circle class="st9" cx="33.6" cy="282.7" r="4"/>
			<circle class="st5" cx="33.6" cy="282.7" r="2.3"/>
			<ellipse class="st10" cx="32.3" cy="282.7" rx="1" ry="0.7"/>
		</g>
		<path class="st5" d="M-58.1,459c-1.7,11.1-2.2,13.5-2.3,13.9c0,0.1,0,0.1,0,0.1c-1.9,7.5-11.8,47.1-14.2,61.4
			c-2.7,15.7-8.3,36.5-8.3,36.5v-5l-3.4,5c-5.5-23.4,17.8-110.6,18.1-111.8l0,0c0,0,0-4.2,3.9-7.5c3.9-3.4,5.2-13.1,5.2-13.1
			S-56.1,446.2-58.1,459z"/>
		<path class="st8" d="M54.3,276.6c0,0,16.1-1.7,26.4,3.7c0,0-23.4,5.6-35.9,14.1c0,0-2.2-5.9-0.3-10.9
			C46.2,278.8,54.3,276.6,54.3,276.6z"/>
		<path class="st4" d="M80.7,280.4c0,0-23.4,5.6-35.9,14.1c0,0-0.6-1.4-0.9-3.6C44.4,290.4,63.2,278.3,80.7,280.4z"/>
		<path class="st11" d="M16.6,276.3c0,0-16.5,6.5-15.8,24.3c0,0,3.4-11.6,9.5-14.8c0,0-1.6,0-3.4,0.9
			C6.7,286.7,9.7,280.5,16.6,276.3z"/>
		<g>
			<path class="st12" d="M18.5,348.5L18.5,348.5C12.5,361.4-3.8,364-4.2,364l0,0c4.5-4.2,5.2-7.9,5.3-9.2l0,0c0-0.3,0-0.4,0-0.4
				c-0.1,0.1-6,4.9-15.4,10.9c-9.5,6-19.7,2.9-19.7,2.9C-23,367-5.6,350.5-0.8,345c5.6-6,11.5-10.1,11.5-10.1l0,0
				C15,337.3,18.1,341.4,18.5,348.5z"/>
			<path class="st13" d="M-4.2,364L-4.2,364c4.5-4.2,5.2-7.9,5.3-9.2v-0.4c0.1-0.3,2.4-5.5,2.3-9.3C3.4,345.2,7.6,359.2-4.2,364z"/>
		</g>
		<g>
			<path class="st12" d="M-29.5,388.1c-2.7,2.3-8.3,7-15.5,12.8c-9.9,8-27.6,26-28,26.6l0,0c0.3-0.4,4.7-8.6,9.5-15.2
				c4.9-6.8,9.6-18.1,9.6-18.1c-2.9,2.4-8.5,11.4-8.5,11.4c2-9.2,15.7-21.8,15.7-21.8c1.1-1.1,4.3-2,6,0c0.9,1,1.9,1,2.7,0.7
				s1.6-0.1,2.3,0.1c0.3,0.1,0.7,0.4,0.9,0.7c0.3,0.3,0.6,0.7,0.7,1.1c0.6,1,2.4,1,4,0.7C-29.4,387-29.1,387.7-29.5,388.1z"/>
			<path class="st13" d="M-29.5,388.1c-2.7,2.3-8.3,7-15.5,12.8c-9.9,8-27.6,26-28,26.6l0,0c7.2-10.2,34.1-36.5,34.5-36.9
				c-0.3,0.1-8.5,5.6-6.6,2.3c1.4-2.4,6.8-6.3,9.5-8.3c0.3,0.1,0.7,0.4,0.9,0.7c0.3,0.3,0.6,0.7,0.7,1.1c0.6,1,2.4,1,4,0.7
				C-29.4,387-29.1,387.7-29.5,388.1z"/>
		</g>
	</g>
</g>
</svg>
