<?xml version="1.0" encoding="utf-8"?>
<!-- Generator: Adobe Illustrator 19.0.0, SVG Export Plug-In . SVG Version: 6.00 Build 0)  -->
<svg version="1.1" id="Capa_1" xmlns="http://www.w3.org/2000/svg" xmlns:xlink="http://www.w3.org/1999/xlink" x="0px" y="0px"
	 viewBox="-147 270.9 300 300" style="enable-background:new -147 270.9 300 300;" xml:space="preserve">
<style type="text/css">
	.st0{fill:#603C1A;}
	.st1{fill:#381E12;}
	.st2{fill:#4B835E;}
	.st3{opacity:0.5;fill:#4B835E;}
	.st4{fill:#5193AF;}
	.st5{fill:#4E5B67;}
	.st6{fill:#80C8F4;}
	.st7{fill:#38444F;}
	.st8{fill:#FBF1DF;}
	.st9{fill:#7FC9E7;}
	.st10{fill:#2E363D;}
	.st11{fill:#FFFFFF;}
	.st12{fill:#EDE4D3;}
</style>
<g>
	<g>
		<g>
			<path class="st0" d="M-132.5,426.1c-1.3,1.2-2.2,2.7-2.9,4.4c-0.5,1.2-0.7,2.5-0.9,4c0,0,43.9,24.7,52.5,32.5
				c8.7,7.9,18.6,16,27.7,22.7s28.2,21.1,33,26.7c4.8,5.6,18.3,23.3,23.7,32.1c5.5,8.8,15.4,22.4,15.4,22.4s1.3,0.4,3.1-0.1
				c1.2-0.3,2.7-1.1,4.2-2.7c0,0-17.7-26-21.6-33c-3.8-7-16.6-20-17.6-20.9c-1-0.9-24.2-23.3-30.6-28.5c-6.3-5.2-22.1-16.2-28.9-24
				C-82.1,453.8-124.1,433.9-132.5,426.1z"/>
			<path class="st1" d="M-135.4,430.5c-0.5,1.2-0.7,2.5-0.9,4c0,0,43.9,24.7,52.5,32.5c8.7,7.9,18.6,16,27.7,22.7s28.2,21.1,33,26.7
				c4.8,5.6,18.3,23.3,23.7,32.1c5.5,8.8,15.4,22.4,15.4,22.4s1.3,0.4,3.1-0.1c-5.6-8.7-19.7-30.5-25.4-38.8
				c-7.3-10.5-10.7-13.6-22-24.9c-11.2-11.3-20.7-17-32.3-25.7s-20.2-17-25.4-21.5C-90.3,456.2-125,436.4-135.4,430.5z"/>
		</g>
		<g>
			<path class="st0" d="M9.7,549c0,0-0.8,0.9-0.6,2.1c0.2,1.1,1.1,2.3,3.9,3.5l25.1-3.6l-0.8-1.7l-0.7-1.4L9.7,549z"/>
			<path class="st1" d="M9.1,551.1c0.2,1.1,1.1,2.3,3.9,3.5l25.1-3.6l-0.8-1.7L9.1,551.1z"/>
			<g>
				<path class="st2" d="M24.6,538.2c0,0-0.4-0.4-0.7-1.7c0,0-6.1,9,1,13.5c0,0,6.4-4.8,6.9-10.2l-1.5,0.7c0,0,2.9-4.3-0.1-10.7
					C30.2,529.9,24.4,535,24.6,538.2z"/>
				<path class="st3" d="M24.6,538.2c0,0-0.4-0.4-0.7-1.7c0,0-6.1,9,1,13.5l5.4-20.2C30.2,529.9,24.4,535,24.6,538.2z"/>
			</g>
			<g>
				<path class="st2" d="M28.7,562.4c0,0,0,0.6,0.6,1.7c0,0-10.7-3.2-8.2-11c0,0,8.1-0.3,12.1,3.5l-1.6,0.4c0,0,5,1.5,7.1,8.3
					C38.6,565.3,30.7,565,28.7,562.4z"/>
				<path class="st3" d="M28.7,562.4c0,0,0,0.6,0.6,1.7c0,0-10.7-3.2-8.2-11l17.6,12.2C38.6,565.3,30.7,565,28.7,562.4z"/>
			</g>
		</g>
		<g>
			<path class="st1" d="M-88.8,462.7l-23,1.1l0.7-2.8l20.4-2.3C-90.8,458.6-87.6,459.9-88.8,462.7z"/>
			<g>
				<path class="st2" d="M-103,472.1c0,0-0.4,0.2-1,1.1c0,0-2.4-8.8,4.5-10.5c0,0,3.8,5.5,2.7,9.9l-1-1c0,0,1.1,4.1-3,8.5
					C-100.8,480.2-104,474.5-103,472.1z"/>
				<path class="st3" d="M-103,472.1c0,0-0.4,0.2-1,1.1c0,0-2.4-8.8,4.5-10.5l-1.3,17.5C-100.8,480.2-104,474.5-103,472.1z"/>
			</g>
		</g>
	</g>
	<path class="st4" d="M-16.7,333.8c1.2-1.2,2.5-2.4,3.7-3.6c0.1-0.1,0.2-0.3,0.4-0.3c0,0,0,0,0,0c0,0,0,0,0.1,0c0,0,0,0,0.1,0
		c0,0,0,0,0,0c19.7-3.9,38,7.8,52.1,20.4c7.8,6.9,15.3,14.4,21.1,23.2c6.2,9.3,9.2,20,13.7,30c4.9,11.1,12.2,20.8,21.4,28.6
		c0.3,0.3,0.3,0.8,0,1.1c-1.3,1.4-2.8,2.1-4.6,2.3c1.9,1.5,3.8,3.1,5.4,5c1.4,1.6,2.4,3.5,1.6,5.7c-1.4,4.1-5.3,4.6-9.1,4.1
		c2.6,1.9,5.1,4,7.4,6.3c0.3,0.3,0.3,0.6,0.1,0.9c-2.5,4.6-7.8,6.3-12.8,5.6c-6.6-0.9-12.6-5.2-18.1-8.6
		c-12.1-7.4-23.7-15.6-34.3-25C10.7,411.1-6.3,387.9-14,360.9c-2.1-7.4-3.5-15-4.1-22.6C-18.3,335.9-18.4,335.4-16.7,333.8z"/>
	<g>
		<path class="st5" d="M-82.4,477.5c2.5-0.8,5-1.5,7.5-2.1c-1.6,0-3.3-0.1-4.9-0.2c-0.9-0.1-1.1-1.3-0.2-1.6c5.8-2.1,18-2,22.1-1.3
			c1.3-0.8,16.8-8,19.3-9.8c0.4-0.3,0.9-0.7,1-0.9c0.1-0.2,0.2-0.8,0.2-1c0.6-8.5,0-17.1,0.4-25.6c0.2-4.8,7-4.7,7.4,0
			c0.4,4.8,0.6,9.7,0.5,14.5c-0.1,4.4-0.8,11.7-1.7,15c-0.6,2.3-17.9,10-21.1,11c3.3,1,6.3,2.6,8.4,5.1c1,1.2,0.1,2.9-1.5,2.6
			c-3-0.6-5.7-1.9-8.7-2.4c-3.1-0.5-9.6-1.2-9.8-1.3c-2.7,0.4-5.5,0.4-8.1,0.6c-3.4,0.3-6.8,0.5-10.2,0.8
			C-83.9,481.1-84.2,478.1-82.4,477.5z"/>
		<path class="st5" d="M-40.5,443.7c5.2,0.9,10.5,1.8,15.7,2.8c0.4,0.1,0.6,0.4,0.6,0.8c0,0.1,0,0.1,0,0.2c-0.9,5.2-1.7,14.8-9,13.6
			c-3-0.5-5.3-1.2-6.2-4.4c-1.1-3.8-1.6-8.2-2-12.2C-41.5,443.9-40.9,443.7-40.5,443.7z"/>
	</g>
	<g>
		<path class="st5" d="M-64.9,492.8c2.5-0.8,5-1.5,7.5-2.1c-1.6,0-3.3-0.1-4.9-0.2c-0.9-0.1-1.1-1.3-0.2-1.6
			c5.8-2.1,17.8-1.5,22.6-1.3c7-1.7,23.1-7.7,24.9-8.4c1.2-0.5,2.6-1.1,3.5-2.1c1-1.1,0.9-2.5,0.9-3.9c-0.1-7.7-0.4-15.3,0-23
			c0.2-4.8,7.1-4.7,7.4,0c0.3,4.4,0.4,21.3-0.1,25.3c-0.3,2.5-0.3,3.3-1.4,5c-1.1,1.7-15.8,7.3-28.1,10.6c0,0-0.1,0-0.1,0
			c2.7,1,5.2,2.5,7,4.6c1,1.2,0.1,2.9-1.5,2.6c-3-0.6-5.7-1.9-8.7-2.4c-3.1-0.5-6.2-0.6-9.3-1.1c-0.2,0-6,0.2-8.7,0.5
			c-3.4,0.3-6.8,0.5-10.2,0.8C-66.4,496.3-66.7,493.3-64.9,492.8z"/>
		<path class="st5" d="M-13.5,457.9c5.2,1.3,10.5,2.5,15.7,3.8c0.4,0.1,0.6,0.4,0.6,0.7c0,0.1,0,0.2,0,0.3
			c-0.8,3.9-1.2,8.8-3.3,12.2c-1.8,2.9-4.5,2.6-7.5,1.6c-2.8-0.9-4.5-2-5.1-5c-0.8-4.1-1-8.6-1.3-12.9
			C-14.6,458.2-14,457.8-13.5,457.9z"/>
	</g>
	<path class="st6" d="M-95,278.3c8.1-5.4,19-7.2,28.5-7.4c9.5-0.2,18.4,3,26.7,7.4c8.6,4.6,16.6,10.9,22.8,18.5
		c6,7.3,10.7,15.8,14.7,24.3c1,2.1,1.9,4,3.5,5.7c1.7,1.8,3.5,3.4,5.3,5c3.9,3.2,8,5.9,12.2,8.6c7.9,5.1,15.8,10.2,22.5,16.9
		c13.2,13.3,21.9,30.4,27.2,48.2c7.2,24.1,8.3,49.4,9.4,74.4c0,0.4-0.4,0.8-0.8,0.8c-33.4-2.3-66.3-10.3-97-23.6
		c-13.7-6-27.8-12.5-39.2-22.2c-5.5-4.7-10.5-10-14.7-15.9c-4.2-6-6.6-12.3-8.1-19.4c-3.7-17.3-3.1-35.1-7.6-52.3
		c-3.2-6.6-7.6-12.4-11.2-18.8c-3.3-5.9-5.8-12.3-6.6-19C-108.7,297.7-104.7,285.3-95,278.3z"/>
	<g>
		<path class="st5" d="M51.7,455.9c7.1-5.5,14.2-11,21.3-16.6c0.1,0,0.1-0.1,0.2-0.1c0.3-0.2,0.7-0.3,1,0.1
			c12.3,15,25.1,29.6,37.6,44.4c6.2,7.3,12.4,14.7,18.3,22.3c2.8,3.5,5.6,7.1,8.3,10.6c2.1,2.7,4.7,5.5,6.1,8.6c0.9,2.1,0.5,5.2-2,6
			c-2,0.7-4.4-0.5-6.5-1.9c1.5,3.5,2.4,7.8-1.3,9.2c-5,1.9-8.2-2.5-11.4-5.7c1.1,3.6,1,8.4-3.7,7.6c-2.8-0.5-5.2-3.2-7-5.3
			c-2-2.4-3.8-4.9-5.6-7.5c-10.4-15.1-21.6-29.6-33.2-43.9c-7.3-9-14.7-17.9-22.1-26.8C51.4,456.7,51.3,456.2,51.7,455.9z"/>
		<g>
			<path class="st7" d="M132.8,525.6c-2.5-1.3-4.5-5.1-6.2-7.3c-2.4-3.2-4.8-6.4-7.3-9.5c-4.5-5.8-9.2-11.5-14-17
				c-9.8-11.2-20.5-21.4-31.1-31.9c-1-1,0.5-2.4,1.5-1.5c11.5,9.8,21.9,21.2,31.7,32.6c4.8,5.5,9.4,11.2,13.8,17
				c2.3,3,4.5,6,6.7,9.1c1.7,2.4,4.7,5.5,5,8.5C133,525.6,132.8,525.6,132.8,525.6L132.8,525.6z"/>
		</g>
		<g>
			<path class="st7" d="M121.7,529.3c-9.3-12-18-24.4-27.5-36.2c-9.5-11.9-19.6-23.2-30-34.3c-1-1.1,0.6-2.7,1.6-1.6
				c10.7,11,20.8,22.6,30.4,34.6c9.4,11.7,18.8,23.8,26.3,36.9C122.9,529.2,122.1,529.9,121.7,529.3L121.7,529.3z"/>
		</g>
	</g>
	<path class="st8" d="M-88.3,351.2c5.6-1.9,11.2-3.7,17-5c2.4-0.6,5-1.6,7.4-1.2c2.1,0.4,3.6,1.9,4.8,3.6c1.5,2.1,2.5,4.5,3.9,6.6
		c1.8,2.7,3.7,5.3,5.6,7.9c7.9,10.7,16.8,20.6,26,30.2c8.9,9.3,18.2,18.3,27.3,27.4c9.7,9.6,18.9,19.8,29.2,28.8
		c11.8,10.5,24.9,19.6,37.1,29.6c0.5,0.4,0.1,1.4-0.6,1.3c-31.8-3-63.1-11.1-92.3-24.2c-24.6-11-52.6-26.3-59.1-54.9
		c-1.7-7.5-2.5-15.2-3.3-22.8C-86.1,369.8-86.9,359.3-88.3,351.2z"/>
	<path class="st9" d="M-107,306c0.1-0.1,0.3-0.1,0.5,0c5.3,1.3,10.6,0.9,16-0.1c4.3-0.8,8.7-2,13.1-2c7.4,0.1,12.9,4.7,17.3,10.3
		c4.2,5.4,5.6,13.1,5.1,19.8c-0.2,3.2-0.9,6.4-2.5,9.2c-1.9,3.2-5.1,5.7-7.9,8.1c-3.7,3.2-7.6,6.1-10.9,9.7
		c-3.6,3.9-6.5,8.5-8.6,13.4c-0.3,0.8-0.9,0.3-0.9-0.4c-0.4-9-1.3-18.7-4.2-26.9c-2.9-8.2-7.6-13.1-11.3-20
		c-3.4-6.4-5.7-13.3-6.2-20.5C-107.5,306.3-107.3,306.1-107,306z"/>
	<path class="st10" d="M-106.5,292.5c0.1-0.3,0.4-0.6,0.8-0.6c3.5,0.2,6.3,3,9.8,3.4c4.3,0.2,8.5-0.8,12.7-0.5
		c2.7,0.2,5.8,0.2,8.2,1.5c5.4,2.8,7,8.9,3.4,13.9c-1.7,2.4-4,3.4-6.8,3.7c-1.7,0.2-3.1,0.4-4.1,2c-0.8,1.2-1.2,2.6-2.1,3.7
		c-1.8,2.4-4.6,3.7-6.6,5.8c-3.7,3.8-2.4,9-1,13.5c0.3,0.9-0.9,1.3-1.4,0.6C-103.8,326-111.4,309.7-106.5,292.5z"/>
	<g>
		<path class="st5" d="M-132.2,308c6.7-8.6,18.3-13.9,28.4-17c0.3-0.1,0.6,0,0.7,0.2c0,0,0,0,0,0c3.6,3.5,7.4,7.8,9.3,12.4
			c1.8,4.5-1.2,7.9-5.1,9.8c-4.5,2.2-9.1,1.2-13.7,0.2c-6.4-1.5-12.8-2.9-19.3-4.4C-132.5,309.2-132.6,308.5-132.2,308z"/>
		<g>
			<path class="st10" d="M-131,307.9c11.5-4.8,23.6-1.9,35.6-1.7c1,0,1,1.5,0,1.5c-5.7-0.1-11.3-1-16.9-1.2
				c-6.3-0.3-12.5,0.3-18.5,2.1C-131.2,308.7-131.4,308.1-131,307.9L-131,307.9z"/>
		</g>
	</g>
	<path class="st9" d="M-59.4,346.6c0-0.1,0.1-0.1,0.1-0.2c2-3.4,6.6-5.3,10-6.7c4.3-1.8,8.7-3.2,13.1-4.9c6.5-2.5,13-5.1,20-6
		c7.1-0.8,13.8,0.7,20.1,3.7c12.9,6.1,23.8,16.1,32,27.7c8.6,12.1,15,25.5,23.8,37.4c10.4,14.3,22.8,27.1,35,39.8
		c0.3,0.3,0.3,1-0.2,1.2c-2,1-4.1,1.5-6.2,1.4c2.8,1.8,5.5,3.7,8.1,5.7c2.4,1.9,5.7,4.7,4.1,8.1c-2,4.4-8,3.7-13.1,2.3
		c1.7,1.3,3.3,2.8,4.7,4.5c0.4,0.4,0.3,1.2-0.3,1.3c-10.8,2.3-21.3-0.8-31.3-4.6c1.7,1.7,3.2,3.7,4.4,5.9c0.3,0.5-0.1,1.3-0.7,1.2
		c-14.4-1.7-28.2-6.6-40.3-14.4c1.9,2.6,3.9,5.2,5.8,7.7c0.3,0.4,0,1-0.5,1.2c-4.9,1.7-9.9,0.1-14.2-2.5c-5-2.9-9.6-6.7-14.3-10.1
		c-8-5.7-16.1-11.5-23.5-18c-15.8-13.8-28.9-31.4-36.1-51.3c-1.9-5.3-2.8-10.7-2.8-16.3C-61.7,356.2-61.4,350.9-59.4,346.6z"/>
	<g>
		<g>
			<path class="st6" d="M-1.3,326.3c-3.7,2.1-8.4,2.7-12.5,3.8c-4.3,1.1-8.6,2.4-12.8,3.8c-8.3,2.6-16.8,5.3-24.6,8.9
				c-13.9,6.5-28.4,19-29.9,35.3c-0.3,3.2-4.9,3.3-5,0c-0.2-8.6,4.6-16.8,9.9-23.1c5.5-6.6,12.8-11.9,20.5-15.6
				c8.3-4,17.2-6.9,25.9-9.7c4.8-1.6,9.7-3,14.7-4.2c4.2-1,9.1-2.3,13.5-1.3C-0.6,324.4-0.4,325.9-1.3,326.3L-1.3,326.3z"/>
		</g>
	</g>
	<g>
		<path class="st5" d="M-79.6,295c0.1,0,0.1,0,0.2-0.1c0.1,0,0.1,0,0.2,0c3.5-0.5,7,0.6,7.4,4.7c0.3,3.3-2.4,6.3-5.6,6.6
			c-3.1,0.3-6.2-2-6.8-5.1C-84.7,298-82.3,295.8-79.6,295z"/>
		<path class="st11" d="M-77.2,298.3c0.6-0.4,1.7-0.2,2.2,0.8c0.3,0.6,0,1.4-0.5,1.7c-0.6,0.3-1.3,0.3-1.9-0.1
			c-0.4-0.3-0.5-0.6-0.6-1.2C-78,299.2-77.8,298.6-77.2,298.3z"/>
	</g>
	<g>
		<path class="st4" d="M59.2,455.4c-9.3-4.5-18.2-9.7-26.6-15.5c-8.2-5.7-16.6-11.7-23.7-18.7c-1.1-1,0.5-2.5,1.6-1.6
			c7.9,6.5,15.6,13.1,24,19c8.2,5.7,16.7,11,25.3,16C60.3,454.9,59.8,455.7,59.2,455.4L59.2,455.4z"/>
	</g>
	<g>
		<path class="st4" d="M23.6,448c-12.9-9-25.2-19.7-35.5-31.5c-0.9-1,0.5-2.4,1.5-1.5c5.6,5.6,11,11.3,16.9,16.6
			c5.8,5.3,11.8,10.5,17.8,15.6C24.6,447.5,24,448.3,23.6,448L23.6,448z"/>
	</g>
	<g>
		<path class="st4" d="M-19.9,361.7c-4.3,5.3-12.4,6.2-18.3,3.1c-1.4-0.8-0.2-2.9,1.3-2.2c5.5,2.8,11.4,1.6,16.2-2
			C-20,360.2-19.4,361.2-19.9,361.7L-19.9,361.7z"/>
	</g>
	<g>
		<path class="st4" d="M-36.8,358.7c-1.5,3-5.7,3.9-8.8,3.8c-3.5-0.2-7-1.7-9.1-4.6c-0.8-1.1,0.9-2.4,1.9-1.5
			c2.3,2.2,4.7,3.5,7.9,3.7c2.9,0.2,5.1-1,7.8-1.8C-36.9,358.3-36.7,358.5-36.8,358.7L-36.8,358.7z"/>
	</g>
	<g>
		<path class="st4" d="M7.5,338.5c1.6,2.5,0.5,5.6-1.8,7.3c-3,2.3-7.2,1.6-10.5,0.4c-1.3-0.4-0.7-2.5,0.6-2c2.4,0.8,5.2,1.5,7.7,0.5
			c2.4-0.9,4-3.4,3.2-5.9C6.6,338.4,7.3,338.1,7.5,338.5L7.5,338.5z"/>
	</g>
	<g>
		<path class="st4" d="M-2.6,339.6c-1.4,3.4-4.4,5.4-8,5.7c-4.9,0.5-9.3-2.4-12.9-5.2c-0.9-0.7,0.3-2.4,1.3-1.7
			c4.9,3.6,14.7,8.7,18.6,0.8C-3.4,338.7-2.4,339.1-2.6,339.6L-2.6,339.6z"/>
	</g>
	<g>
		<path class="st4" d="M61.4,407.9c-2.6,2.4-7.5,0.9-10.4-0.1c-4.1-1.4-7.7-3.8-10.7-6.9c-0.9-0.9,0.5-2.3,1.4-1.4
			c2.3,2.4,5,4.5,8,5.9c2.7,1.2,8.3,3.7,11,1.7C61.2,406.6,61.8,407.4,61.4,407.9L61.4,407.9z"/>
	</g>
	<g>
		<path class="st4" d="M41.3,398.7c-0.9,3.4-4.2,5.3-7.6,5.8c-4.4,0.6-8.7-1.2-12.6-3.1c-1.7-0.8-0.2-3.2,1.4-2.4
			c6,2.6,13.1,5.3,17.9-0.8C40.7,397.8,41.4,398.2,41.3,398.7L41.3,398.7z"/>
	</g>
	<g>
		<g>
			<path class="st4" d="M84.8,454.1c-23.1-8.3-45.2-21.6-63.4-38.1c-1.1-1,0.5-2.6,1.6-1.6c9.6,7.9,19.3,15.4,29.9,21.9
				c10.3,6.4,21.2,12,32.2,17C85.7,453.4,85.3,454.2,84.8,454.1L84.8,454.1z"/>
		</g>
	</g>
	<g>
		<g>
			<path class="st4" d="M85.7,438.2c-15.7-5.8-30.9-15-44.1-25.2c-1.1-0.8,0.3-2.7,1.4-1.9c6.8,4.9,13.7,9.7,20.9,14.1
				c7.2,4.3,14.7,8.2,22.1,12.2C86.5,437.7,86.2,438.4,85.7,438.2L85.7,438.2z"/>
		</g>
	</g>
	<g>
		<g>
			<path class="st4" d="M-22.9,371.1c2.5,3.8,4.3,8.1,6.7,12c2.4,3.9,5.3,7.5,7.9,11.3c0.7,1.1-0.9,2.3-1.8,1.4
				c-3.1-3.4-5.7-7.5-8-11.6c-2.2-3.9-4.7-8.3-5.7-12.7C-23.9,371-23.2,370.7-22.9,371.1L-22.9,371.1z"/>
		</g>
	</g>
	<g>
		<g>
			<path class="st4" d="M-37.8,372.6c2.1,4.1,3.6,8.5,5.6,12.6c2.1,4.2,4.4,8.2,6.8,12.1c0.8,1.3-1.2,2.4-2,1.2
				c-2.6-4-4.9-8.3-6.9-12.6c-1.8-4.1-3.7-8.5-4.4-12.9C-38.7,372.5-38,372.1-37.8,372.6L-37.8,372.6z"/>
		</g>
	</g>
	<g>
		<g>
			<path class="st4" d="M-33,345.2c0.3,3.3,1.1,6,2.8,8.9c0.7,1.2-1.2,2.3-1.9,1.1c-1.8-2.9-2.6-6.8-1.8-10.2
				C-33.9,344.5-33.1,344.7-33,345.2L-33,345.2z"/>
		</g>
	</g>
	<g>
		<g>
			<path class="st4" d="M-38.3,348.7c0.5,2.2,1.1,4,2.3,6c0.7,1.2-1.1,2.3-1.9,1.1c-1.3-1.9-2-4.6-1.7-6.9
				C-39.5,348.2-38.5,347.9-38.3,348.7L-38.3,348.7z"/>
		</g>
	</g>
	<g>
		<g>
			<path class="st4" d="M-43.6,347.3c0.1,1.1,0.4,2.1,1.2,3c1,1.1-0.9,2.5-1.6,1.2c-0.7-1.3-1.1-2.9-0.6-4.3
				C-44.5,346.6-43.7,346.7-43.6,347.3L-43.6,347.3z"/>
		</g>
	</g>
	<g>
		<g>
			<path class="st4" d="M17.4,371.2c1.5,4,3.5,7.7,6.1,11.1c0.8,1.1-1.1,2.3-1.9,1.1c-2.4-3.7-4.3-7.6-5.5-11.9
				C16,370.8,17.2,370.5,17.4,371.2L17.4,371.2z"/>
		</g>
	</g>
	<g>
		<g>
			<path class="st4" d="M15,380.4c1.8,2.9,3.5,5.9,5.4,8.8c0.8,1.2-1.3,2.4-1.9,1.1c-1.5-3.1-3.1-6.1-4.7-9.2
				C13.4,380.3,14.6,379.6,15,380.4L15,380.4z"/>
		</g>
	</g>
	<g>
		<g>
			<path class="st4" d="M9.4,371.6c-0.3,2.2,0.3,4.3,1.6,6.1c0.8,1.1-1.1,2.3-1.8,1.1c-1.4-2.3-1.8-4.9-1.2-7.6
				C8.1,370.2,9.5,370.6,9.4,371.6L9.4,371.6z"/>
		</g>
	</g>
	<g>
		<path class="st4" d="M0.2,404c-2.9,5.8-12.2,6.6-17.3,4c-1.3-0.6-0.4-2.8,1-2.3c2.7,1,5.4,1.4,8.3,0.8c2.8-0.6,4.8-2.1,7.3-3.4
			C-0.1,403,0.5,403.5,0.2,404L0.2,404z"/>
	</g>
	<g>
		<path class="st4" d="M-17.4,401.5c-3.3,6.6-13.3,7.5-18.9,3.6c-1.3-0.9-0.2-2.9,1.2-2.1c5.8,3.4,11.8,1.7,16.7-2.2
			C-17.8,400.4-17.1,400.9-17.4,401.5L-17.4,401.5z"/>
	</g>
	<g>
		<path class="st4" d="M10.5,396.7c-0.7,4-5.2,6.5-9,5.1c-1.4-0.5-0.8-2.7,0.6-2.2c2.8,1.1,6.1-0.4,7-3.3
			C9.4,395.3,10.7,395.7,10.5,396.7L10.5,396.7z"/>
	</g>
	<g>
		<path class="st4" d="M-10.7,365.7c-1.7,4.3-6.3,7.3-11,6.8c-1.4-0.1-1.4-2.3,0-2.2c4.1,0.1,7.6-1.7,9.8-5.1
			C-11.5,364.6-10.4,365-10.7,365.7L-10.7,365.7z"/>
	</g>
	<g>
		<g>
			<path class="st9" d="M-22.1,369.9c-3.6,4.3-13.4,8.7-17.6,2.7c-0.8-1.1,1-2.5,1.9-1.5c4,4.6,11,0.5,15-2.1
				C-22.2,368.7-21.7,369.5-22.1,369.9L-22.1,369.9z"/>
		</g>
	</g>
	<g>
		<path class="st4" d="M-39.3,369.9c-3.2,6.6-13.5,5.6-14.9-1.8c-0.3-1.6,1.8-2.1,2.4-0.7c2,5.4,8.2,6.5,11.8,1.9
			C-39.7,368.8-39.1,369.4-39.3,369.9L-39.3,369.9z"/>
	</g>
	<g>
		<path class="st4" d="M48.6,384.4c0.3,5.7-6.8,7.4-10.5,4c-1.3-1.1,0.6-3,1.9-1.9c2.9,2.6,6.4,0.8,7.9-2.4
			C48,383.8,48.5,384,48.6,384.4L48.6,384.4z"/>
	</g>
	<g>
		<g>
			<g>
				<path class="st4" d="M-78.6,289.1c-2.1,0-4.2,0.5-5.9,1.8c-1.3,1.1-2.8-1-1.4-1.8c2.3-1.3,4.9-1.7,7.4-1
					C-77.9,288.2-78,289.1-78.6,289.1L-78.6,289.1z"/>
			</g>
			<g>
				<path class="st4" d="M-84.2,285.5c-2.7,1.1-4.8,2.6-7,4.5c-1.3,1.1-3.1-0.7-1.8-1.8c2.3-2.1,5.5-3.4,8.6-3.6
					C-83.9,284.5-83.7,285.3-84.2,285.5L-84.2,285.5z"/>
			</g>
			<g>
				<path class="st4" d="M-93.5,284.4c-0.5,0.5-0.9,1.1-1.2,1.7c-0.3,0.6-0.4,1.3-0.6,1.9c-0.4,1.3-2.6,0.7-2.1-0.6
					c0.6-1.5,1.9-2.9,3.1-3.9C-93.7,283.2-93.1,283.9-93.5,284.4L-93.5,284.4z"/>
			</g>
			<g>
				<path class="st4" d="M-57.9,285.3c-2.6-0.8-5-0.7-7.5,0.4c-1.6,0.7-2.6-1.6-0.9-2.2c2.8-1.1,6.1-1,8.9,0.2
					C-56.5,284.1-56.9,285.7-57.9,285.3L-57.9,285.3z"/>
			</g>
			<g>
				<path class="st4" d="M-63.5,279.9c-3,0.2-5.6,1.7-7.4,4.1c-0.9,1.1-2.7-0.6-1.6-1.6c2.4-2.5,5.6-3.7,9.1-3.7
					C-62.7,278.7-62.7,279.9-63.5,279.9L-63.5,279.9z"/>
			</g>
			<g>
				<path class="st4" d="M-48.6,307.4c-2.2-2.4-4.7-4.2-7.6-5.6c-1.3-0.6-0.1-2.6,1.1-1.9c3,1.7,5.5,4,7.4,6.8
					C-47.4,307.3-48.2,307.9-48.6,307.4L-48.6,307.4z"/>
			</g>
			<g>
				<path class="st4" d="M-53.4,309.1c-2.1-2.3-4.9-3.6-8-3.9c-1.6-0.2-1.3-2.5,0.3-2.2c3.4,0.6,6.3,2.6,8.5,5.3
					C-52.2,308.8-52.9,309.6-53.4,309.1L-53.4,309.1z"/>
			</g>
			<g>
				<path class="st4" d="M-76.2,277c-0.8-0.2-1.6,0.1-2.1,0.8c-0.8,1.3-2.7-0.2-1.6-1.3c1-1,2.7-1.4,4.1-0.9
					C-75,276-75.3,277.3-76.2,277L-76.2,277z"/>
			</g>
			<g>
				<path class="st4" d="M-30,297.4c-2-2.8-4.9-4.6-8.2-5.4c-1.3-0.3-0.7-2.3,0.5-2c3.7,1.1,6.8,3.4,8.9,6.7
					C-28.3,297.5-29.5,298.2-30,297.4L-30,297.4z"/>
			</g>
			<g>
				<path class="st4" d="M-37.6,299.2c-2.3-1.2-4.7-2-7.3-2.5c-1.3-0.3-0.8-2.4,0.6-2c2.6,0.7,5.2,1.9,7.5,3.4
					C-36.2,298.5-36.9,299.6-37.6,299.2L-37.6,299.2z"/>
			</g>
			<g>
				<path class="st4" d="M-44.6,285.9c-0.9-0.6-1.9-0.5-2.8,0.1c-1,0.7-2.1-1.1-1-1.7c1.5-0.7,3.2-0.7,4.5,0.2
					C-43,285.1-43.7,286.4-44.6,285.9L-44.6,285.9z"/>
			</g>
			<g>
				<path class="st4" d="M-59.8,295.9c-1.4-0.2-2.8-0.3-4.2-0.4c-1.4-0.1-1.1-2.2,0.3-1.9c1.4,0.3,2.7,0.6,4.1,0.8
					C-58.8,294.5-59,296-59.8,295.9L-59.8,295.9z"/>
			</g>
			<g>
				<path class="st4" d="M-15.6,314c-0.6-2.2-1.9-3.9-4-4.9c-1-0.5-0.1-2.2,0.9-1.6c2.2,1.4,3.7,3.8,3.7,6.4
					C-15,314.3-15.5,314.3-15.6,314L-15.6,314z"/>
			</g>
			<g>
				<path class="st4" d="M-22.1,318.7c-0.9-2.3-2.3-4.3-4-6.2c-0.8-0.9,0.5-2.3,1.4-1.4c1.9,2,3,4.6,3.6,7.2
					C-20.9,319.1-21.8,319.3-22.1,318.7L-22.1,318.7z"/>
			</g>
			<g>
				<path class="st4" d="M-33.3,315.5c0.1-2.3-0.8-4.2-2.6-5.6c-1-0.8,0.5-2.3,1.4-1.4c1.8,1.9,2.8,4.4,2.5,7
					C-32.1,316.3-33.4,316.3-33.3,315.5L-33.3,315.5z"/>
			</g>
			<g>
				<path class="st4" d="M-43.9,330.4c0.8-2.1,0.5-4.1-0.5-6.1c-0.5-1,1-1.9,1.5-0.9c1.3,2.3,1.2,5.1,0.1,7.5
					C-43,331.5-44.1,331.1-43.9,330.4L-43.9,330.4z"/>
			</g>
			<g>
				<path class="st4" d="M-50.6,331.6c0.8-2.2,1-4.4,0.8-6.8c-0.1-1.1,1.8-1.1,1.8,0c-0.1,2.5-0.7,4.8-1.7,7.1
					C-50,332.5-50.8,332.1-50.6,331.6L-50.6,331.6z"/>
			</g>
			<g>
				<path class="st7" d="M118.9,533.9c-0.5-1.5-1.2-2.6-2.2-3.8c-0.7-0.8,0.5-1.8,1.2-0.9c1,1.3,1.6,2.9,2,4.4
					C120.1,534.3,119.1,534.6,118.9,533.9L118.9,533.9z"/>
			</g>
			<g>
				<path class="st7" d="M114.1,531.2c-1.3-1.1-2.7-2.6-3.5-4.2c-0.6-1.2,1.2-2.3,1.8-1c0.8,1.6,1.5,2.9,2.8,4.1
					C116,530.8,114.8,531.9,114.1,531.2L114.1,531.2z"/>
			</g>
			<g>
				<path class="st7" d="M104.2,515.5c-0.4-0.5-0.9-1-1.3-1.6c-0.3-0.4-0.1-1,0.3-1.3c0.4-0.3,1-0.1,1.3,0.3
					c0.3,0.5,0.6,1.1,0.9,1.7c0.2,0.3,0.1,0.7-0.2,0.9C104.9,515.7,104.4,515.8,104.2,515.5L104.2,515.5z"/>
			</g>
			<g>
				<path class="st7" d="M132.2,534c-0.7-1.7-1.5-3.4-2.2-5.2c-0.4-1.1,1.4-1.6,1.8-0.5c0.7,1.7,1.2,3.5,1.9,5.3
					C134,534.5,132.6,534.8,132.2,534L132.2,534z"/>
			</g>
			<g>
				<path class="st7" d="M126.8,530.2c-0.6-1.4-1.4-2.5-2.4-3.6c-0.8-1,0.7-2.2,1.4-1.1c0.9,1.3,1.5,2.9,1.9,4.4
					C127.9,530.6,127,530.8,126.8,530.2L126.8,530.2z"/>
			</g>
			<g>
				<path class="st7" d="M119.8,517.4c-0.3-0.4-0.5-0.8-0.9-1c0.1,0.1,0.2,0.1,0.3,0.2c-0.2-0.1-0.4-0.2-0.6-0.4
					c-0.4-0.4-0.3-1,0.1-1.3c0.4-0.3,1.1-0.2,1.3,0.3c0.1,0.3,0.2,0.6,0.3,0.9c0.2,0.3,0.3,0.5,0.5,0.8c0.2,0.3,0.1,0.7-0.2,0.8
					C120.4,517.8,120,517.7,119.8,517.4L119.8,517.4z"/>
			</g>
			<g>
				<path class="st7" d="M140.6,525.1c-0.4-1.1-1.1-2-1.9-2.8c-0.9-0.8,0.5-2.2,1.3-1.3c0.9,1.1,1.6,2.3,2,3.7
					C142.1,525.6,140.9,525.9,140.6,525.1L140.6,525.1z"/>
			</g>
			<g>
				<path class="st7" d="M135.4,524.2c-0.7-1-1.4-1.9-2.1-2.8c-0.8-1.1,0.8-2.3,1.5-1.1c0.6,1.1,1.3,2.1,2,3.2
					C137.4,524.3,136,525,135.4,524.2L135.4,524.2z"/>
			</g>
			<g>
				<path class="st7" d="M129,513.2c-0.5-0.6-1-1.3-1.7-1.7c-0.5-0.3-0.6-1.1-0.1-1.5c0.5-0.4,1.2-0.1,1.4,0.5
					c0.3,0.7,0.9,1.4,1.3,2C130.2,513.1,129.4,513.7,129,513.2L129,513.2z"/>
			</g>
			<g>
				<path class="st4" d="M-71.5,320c-2.6-0.8-5-0.7-7.5,0.4c-1.6,0.7-2.6-1.6-0.9-2.2c2.8-1.1,6.1-1,8.9,0.2
					C-70.1,318.8-70.4,320.4-71.5,320L-71.5,320z"/>
			</g>
			<g>
				<path class="st4" d="M-58.8,335.7c-2.3-2.6-5.3-4.2-8.7-4.6c-1.3-0.2-0.9-2.3,0.4-2c3.8,0.7,7.1,2.8,9.4,5.8
					C-57.1,335.6-58.2,336.4-58.8,335.7L-58.8,335.7z"/>
			</g>
			<g>
				<path class="st4" d="M-69.9,335.7c-2.3-1.2-4.7-2-7.3-2.5c-1.3-0.3-0.8-2.4,0.6-2c2.6,0.7,5.2,1.9,7.5,3.4
					C-68.5,335-69.2,336.1-69.9,335.7L-69.9,335.7z"/>
			</g>
			<g>
				<path class="st4" d="M-68.4,326.4c-0.9-0.6-1.9-0.5-2.8,0.1c-1,0.7-2.1-1.1-1-1.7c1.5-0.7,3.2-0.7,4.5,0.2
					C-66.8,325.6-67.5,326.9-68.4,326.4L-68.4,326.4z"/>
			</g>
			<g>
				<path class="st4" d="M-80.3,328.2c-1.4-0.2-2.8-0.3-4.2-0.4c-1.4-0.1-1.1-2.2,0.3-1.9c1.4,0.3,2.7,0.6,4.1,0.8
					C-79.3,326.9-79.5,328.3-80.3,328.2L-80.3,328.2z"/>
			</g>
			<g>
				<path class="st4" d="M-83.1,338.2c-1.5-1.8-3.3-2.8-5.6-2.9c-1.2-0.1-1-2,0.2-1.8c2.6,0.4,4.9,2,6,4.4
					C-82.4,338.2-82.8,338.5-83.1,338.2L-83.1,338.2z"/>
			</g>
			<g>
				<path class="st4" d="M-82.6,354c-0.9-2.3-2.3-4.3-4-6.2c-0.8-0.9,0.5-2.3,1.4-1.4c1.9,2,3,4.6,3.6,7.2
					C-81.5,354.4-82.3,354.6-82.6,354L-82.6,354z"/>
			</g>
			<g>
				<path class="st4" d="M-74.8,345.2c0.1-2.3-0.8-4.2-2.6-5.6c-1-0.8,0.5-2.3,1.4-1.4c1.8,1.9,2.8,4.4,2.5,7
					C-73.6,346-74.9,346-74.8,345.2L-74.8,345.2z"/>
			</g>
		</g>
	</g>
	<g>
		<g>
			<path class="st12" d="M-66.9,369.8c-0.1,0.9-0.2,1.7-0.3,2.6c-0.1,0.9,0,1.8-0.1,2.7c-0.1,1.6-2.5,1.6-2.5,0c0-1.9,0.7-4.2,2-5.6
				C-67.5,369.1-66.8,369.3-66.9,369.8L-66.9,369.8z"/>
		</g>
		<g>
			<path class="st12" d="M-72.3,373.1c-0.6,3.1-0.4,6.1-0.2,9.2c0.1,1.4-2.3,1.8-2.5,0.3c-0.6-3.4,0-7,1.4-10.1
				C-73.3,371.8-72.2,372.4-72.3,373.1L-72.3,373.1z"/>
		</g>
		<g>
			<path class="st12" d="M-68.3,380.5c0.7,1.7,1.1,3.6,1.6,5.3c0.5,1.7-2.3,2.1-2.4,0.3c-0.1-1.8-0.2-3.7-0.1-5.5
				C-69.2,380.1-68.5,380-68.3,380.5L-68.3,380.5z"/>
		</g>
		<g>
			<path class="st12" d="M-68.5,401.2c0.2,1.7,0.8,3.1,1.6,4.6c0.7,1.3-1.2,2.4-1.9,1.1c-1.1-1.7-1.3-3.9-0.9-5.9
				C-69.7,400.2-68.6,400.5-68.5,401.2L-68.5,401.2z"/>
		</g>
		<g>
			<path class="st12" d="M-73.9,398.2c0.2,1.1,0.2,2.1,0.4,3.2c0.2,1.1,0.6,2.1,1,3.2c0.5,1.5-1.8,2.1-2.4,0.7
				c-0.8-2-0.9-5.2,0.1-7.2C-74.6,397.8-74,397.8-73.9,398.2L-73.9,398.2z"/>
		</g>
		<g>
			<path class="st12" d="M-69.1,412.8c0.2,1.1,0.8,2,1.7,2.6c1.5,1-0.2,3.2-1.5,2c-1.2-1.1-1.7-2.8-1.6-4.3
				C-70.5,412.2-69.2,411.9-69.1,412.8L-69.1,412.8z"/>
		</g>
		<g>
			<path class="st12" d="M-49.5,411c0.8,1.7,1.7,3.2,3.1,4.4c1.2,1.1-0.8,2.8-1.8,1.4c-1.1-1.6-2-3.4-2.3-5.4
				C-50.6,410.9-49.8,410.4-49.5,411L-49.5,411z"/>
		</g>
		<g>
			<path class="st12" d="M-52.1,416.1c1.1,1.9,2.1,3.8,3.4,5.6c1,1.4-1.5,2.9-2.4,1.4c-1.1-2-2-4.3-2.3-6.6
				C-53.4,415.8-52.4,415.6-52.1,416.1L-52.1,416.1z"/>
		</g>
		<g>
			<path class="st12" d="M-38.2,430.1c0.9,1.7,2.1,3.2,3.6,4.5c1.2,1.1-0.9,2.9-1.8,1.4c-1.1-1.7-2.1-3.5-2.9-5.5
				C-39.6,429.9-38.5,429.5-38.2,430.1L-38.2,430.1z"/>
		</g>
		<g>
			<path class="st12" d="M-40.4,436.3c0.8,0.9,1.6,1.7,2.5,2.5c0.9,0.8,2,1.4,2.8,2.2c1,1-0.3,2.8-1.5,2c-2-1.4-3.5-4-4.7-6
				C-41.7,436.4-40.9,435.8-40.4,436.3L-40.4,436.3z"/>
		</g>
		<g>
			<path class="st12" d="M-53.6,429.7c0.7,0.5,1.4,1,2.2,1.4c0.7,0.4,0.8,1.4,0.2,1.9c-0.5,0.5-1.5,0.4-1.9-0.2
				c-0.4-0.8-1-1.4-1.5-2.1C-55,430.1-54.2,429.4-53.6,429.7L-53.6,429.7z"/>
		</g>
		<g>
			<path class="st12" d="M-12.3,442.2c1.2,1.6,2.8,2.5,4.5,3.6c1.3,0.8,0.1,2.7-1.2,2c-1.9-1.1-3.4-3-4.5-4.8
				C-14.1,442.2-12.9,441.5-12.3,442.2L-12.3,442.2z"/>
		</g>
		<g>
			<path class="st12" d="M-15.1,447.5c1.9,1.5,4,2.7,6.3,3.6c1.6,0.6,0.6,3.1-0.9,2.2c-2.3-1.2-4.4-2.8-6.3-4.6
				C-16.6,448.2-15.8,447-15.1,447.5L-15.1,447.5z"/>
		</g>
		<g>
			<path class="st12" d="M-21.5,446.9c1,1,2.1,1.9,3.1,2.8c0.6,0.5,0.4,1.5-0.1,1.9c-0.6,0.5-1.4,0.3-1.8-0.4
				c-0.7-1.2-1.5-2.3-2.4-3.4C-23.2,447.1-22.1,446.3-21.5,446.9L-21.5,446.9z"/>
		</g>
		<g>
			<path class="st12" d="M11.3,458.2c1.7,1.2,3.4,2.3,5.2,3.2c1.3,0.7,0.1,2.8-1.2,2c-1.8-1.2-3.4-2.7-4.7-4.4
				C10.3,458.6,10.8,457.8,11.3,458.2L11.3,458.2z"/>
		</g>
		<g>
			<path class="st12" d="M9,461.4c0.5,0.4,1.1,0.7,1.7,1.1c0.6,0.3,1.2,0.6,1.7,1c1.5,0.9-0.1,3.1-1.5,1.9c-0.5-0.4-0.9-0.9-1.4-1.4
				c-0.5-0.4-1-0.9-1.5-1.3C7.3,462.1,8.2,460.9,9,461.4L9,461.4z"/>
		</g>
		<g>
			<path class="st12" d="M37.7,462.8c2.1,1,4,1.9,6.4,2.3c1.5,0.2,0.8,2.8-0.6,2.3c-2.3-0.8-4.7-2-6.3-3.8
				C36.8,463.1,37.2,462.5,37.7,462.8L37.7,462.8z"/>
		</g>
		<g>
			<path class="st12" d="M30.1,465.2c2,0.8,4,1.5,6,2.3c1.7,0.7,0.6,3.2-1,2.3c-1.9-1.1-3.7-2.3-5.6-3.4
				C29,466,29.3,464.9,30.1,465.2L30.1,465.2z"/>
		</g>
		<g>
			<path class="st12" d="M47.8,470.9c1.9,0.6,3.8,1.3,5.8,1.8c1.8,0.4,0.6,3.2-1,2.3c-1.7-1-3.5-1.9-5.3-2.8
				C46.6,471.8,47,470.7,47.8,470.9L47.8,470.9z"/>
		</g>
		<g>
			<path class="st12" d="M-2.7,468c0.1,1.4-0.1,2.8-0.5,4.1c-0.4,1.5-2.8,0.6-2.1-0.9c0.5-1,0.8-2.1,0.9-3.2
				C-4.3,467-2.8,466.9-2.7,468L-2.7,468z"/>
		</g>
		<g>
			<path class="st12" d="M-8.6,464.3c0.7,1,0.9,2.3,1.1,3.5c0.3,1.6-2,1.9-2.2,0.3c-0.1-1.2-0.3-2.5,0-3.6
				C-9.5,463.9-8.9,463.9-8.6,464.3L-8.6,464.3z"/>
		</g>
		<g>
			<path class="st12" d="M-30.8,454.9c0.1,1.4-0.1,2.8-0.5,4.1c-0.4,1.5-2.8,0.6-2.1-0.9c0.5-1,0.8-2.1,0.9-3.2
				C-32.3,453.9-30.8,453.8-30.8,454.9L-30.8,454.9z"/>
		</g>
		<path class="st12" d="M-36.7,451.2c0.7,1,0.9,2.3,1.1,3.5c0.3,1.6-2,1.9-2.2,0.3"/>
	</g>
</g>
</svg>
